<svg width="16" height="16" viewBox="0 0 16 16" fill="none" xmlns="http://www.w3.org/2000/svg">
<path d="M7.00293 3.15289C7.47619 3.15296 7.89602 3.44048 8.06934 3.88043L8.67578 5.42047C9.01582 6.287 9.70961 6.97326 10.5762 7.31989L12.1162 7.92633C12.5562 8.09966 12.8428 8.52038 12.8428 8.99371C12.8426 9.46688 12.5561 9.88681 12.1162 10.0601L10.5762 10.6666C9.70951 11.0066 9.02245 11.7003 8.67578 12.567L8.06934 14.107C7.89595 14.5468 7.47609 14.8335 7.00293 14.8336C6.52974 14.8336 6.10996 14.5468 5.93652 14.107L5.3291 12.567C4.98913 11.7004 4.29627 11.0133 3.42969 10.6666L1.88965 10.0601C1.44976 9.88683 1.16323 9.46691 1.16309 8.99371C1.16309 8.52038 1.44965 8.09966 1.88965 7.92633L3.42969 7.31989C4.29605 6.97991 4.98241 6.28681 5.3291 5.42047L5.93652 3.88043C6.10986 3.44043 6.5296 3.15289 7.00293 3.15289ZM7.00293 4.16656C6.95626 4.16656 6.89581 4.18032 6.86914 4.26031L6.2627 5.80035C5.82265 6.9202 4.92263 7.82036 3.80273 8.26031L2.2627 8.86676C2.18965 8.89336 2.16907 8.95298 2.16895 8.99957C2.16895 9.04623 2.18274 9.10669 2.2627 9.13336L3.80273 9.73981C4.92265 10.1798 5.82266 11.0799 6.2627 12.1998L6.86914 13.7398C6.92914 13.8931 7.07574 13.8931 7.13574 13.7398L7.74316 12.1998C8.18322 11.0799 9.08325 10.1798 10.2031 9.73981L11.7432 9.13336C11.8162 9.10663 11.8359 9.04617 11.8359 8.99957C11.8359 8.95304 11.8226 8.89341 11.7432 8.86676L10.2031 8.26031C9.08327 7.82037 8.18323 6.92015 7.74316 5.80035L7.13574 4.26031C7.10911 4.18707 7.04957 4.16661 7.00293 4.16656ZM12.3369 1.16754C12.6436 1.16754 12.9169 1.35451 13.0303 1.64117L13.2568 2.22125C13.3502 2.46789 13.551 2.66113 13.791 2.75446L14.3701 2.98102C14.6567 3.09433 14.8369 3.36093 14.8369 3.66754C14.8369 3.97408 14.6507 4.24748 14.3643 4.3609L13.791 4.58746C13.5444 4.68077 13.3502 4.88075 13.2568 5.12067L13.0303 5.70074C12.9169 5.98741 12.6502 6.17438 12.3369 6.17438V6.16754C12.0304 6.16741 11.7568 5.98047 11.6436 5.69391L11.417 5.11481C11.3237 4.86814 11.1238 4.67396 10.8838 4.58063L10.3037 4.35406C10.0172 4.24067 9.83691 3.97411 9.83691 3.66754C9.83697 3.36093 10.0239 3.0875 10.3105 2.97418L10.8838 2.74762C11.1304 2.6543 11.3236 2.45436 11.417 2.21442L11.6436 1.64117C11.7568 1.35461 12.0304 1.16767 12.3369 1.16754ZM12.3369 2.61481C12.1369 3.08783 11.7572 3.47423 11.2842 3.66754C11.7574 3.8609 12.1436 4.24798 12.3369 4.72125C12.5369 4.24792 12.9173 3.86087 13.3906 3.66754C12.9174 3.47424 12.5303 3.08802 12.3369 2.61481Z" fill="#251455"/>
</svg>
