<svg width="16" height="16" viewBox="0 0 16 16" fill="none" xmlns="http://www.w3.org/2000/svg">
<g clip-path="url(#clip0_17_72)">
<path d="M7.33301 0.833008C10.9228 0.833008 13.8328 3.74331 13.833 7.33301C13.833 8.9479 13.2424 10.4238 12.2676 11.5605L15.0205 14.3135C15.2154 14.5088 15.2157 14.8254 15.0205 15.0205C14.8254 15.2157 14.5088 15.2154 14.3135 15.0205L11.5605 12.2676C10.4238 13.2424 8.9479 13.833 7.33301 13.833C3.74331 13.8328 0.833008 10.9228 0.833008 7.33301C0.833184 3.74341 3.74341 0.833184 7.33301 0.833008ZM7.33301 1.83301C4.2957 1.83318 1.83318 4.2957 1.83301 7.33301C1.83301 10.3705 4.29559 12.8328 7.33301 12.833C10.3706 12.833 12.833 10.3706 12.833 7.33301C12.8328 4.29559 10.3705 1.83301 7.33301 1.83301Z" fill="#251455"/>
</g>
<defs>
<clipPath id="clip0_17_72">
<rect width="16" height="16" fill="white"/>
</clipPath>
</defs>
</svg>
