<svg width="16" height="16" viewBox="0 0 16 16" fill="none" xmlns="http://www.w3.org/2000/svg">
<path d="M6.90332 8.83301C7.7024 8.83301 8.44528 9.07771 9.0459 9.49414C9.27259 9.65154 9.32914 9.96262 9.17188 10.1895C9.01453 10.4164 8.70252 10.4728 8.47559 10.3154C8.04162 10.0146 7.4977 9.83301 6.90332 9.83301H4.42773C2.95601 9.83301 1.83206 10.9256 1.83203 12.1904C1.83203 12.5085 2.12432 12.8329 2.57031 12.833H8.76074C9.03678 12.833 9.26057 13.057 9.26074 13.333C9.26074 13.6092 9.03688 13.833 8.76074 13.833H2.57031C1.64888 13.8329 0.832031 13.1346 0.832031 12.1904C0.832058 10.2994 2.48059 8.83301 4.42773 8.83301H6.90332ZM12.666 8.83301C12.9419 8.83318 13.1658 9.05712 13.166 9.33301V10.833H14.666C14.9419 10.8332 15.1658 11.0571 15.166 11.333C15.166 11.609 14.942 11.8328 14.666 11.833H13.166V13.333C13.166 13.609 12.942 13.8328 12.666 13.833C12.3899 13.833 12.166 13.6092 12.166 13.333V11.833H10.666C10.3899 11.833 10.166 11.6092 10.166 11.333C10.1662 11.057 10.39 10.833 10.666 10.833H12.166V9.33301C12.1662 9.05702 12.39 8.83301 12.666 8.83301ZM5.66602 2.16699C7.23067 2.16717 8.49902 3.4353 8.49902 5C8.49902 6.5647 7.23067 7.83283 5.66602 7.83301C4.10121 7.83301 2.83203 6.56481 2.83203 5C2.83203 3.43519 4.10121 2.16699 5.66602 2.16699ZM8.99902 2.16699C10.5638 2.16699 11.832 3.43519 11.832 5C11.832 6.56481 10.5638 7.83301 8.99902 7.83301C8.72288 7.83301 8.49902 7.60915 8.49902 7.33301C8.4992 7.05701 8.72299 6.83301 8.99902 6.83301C10.0115 6.83301 10.832 6.01252 10.832 5C10.832 3.98748 10.0115 3.16699 8.99902 3.16699C8.72299 3.16699 8.4992 2.94298 8.49902 2.66699C8.49902 2.39085 8.72288 2.16699 8.99902 2.16699ZM5.66602 3.16699C4.65349 3.16699 3.83203 3.98748 3.83203 5C3.83203 6.01252 4.65349 6.83301 5.66602 6.83301C6.67839 6.83283 7.49902 6.01241 7.49902 5C7.49902 3.98759 6.67839 3.16717 5.66602 3.16699Z" fill="white"/>
</svg>
