<svg width="8" height="14" viewBox="0 0 8 14" fill="none" xmlns="http://www.w3.org/2000/svg">
<path d="M0.305285 1.35372C0.46666 1.4756 0.948403 1.83951 1.22611 2.05624C1.78233 2.49031 2.52142 3.08342 3.25831 3.72323C3.99893 4.36627 4.72022 5.04178 5.25046 5.64189C5.51634 5.94281 5.71838 6.20714 5.84987 6.42527C5.97355 6.63042 5.99927 6.75161 5.99927 6.75161C5.99927 6.75161 5.97355 6.86923 5.84988 7.07437C5.71838 7.2925 5.51635 7.55684 5.25047 7.85775C4.72022 8.45786 3.99892 9.13337 3.2583 9.77641C2.5214 10.4162 1.7823 11.0093 1.22608 11.4434C0.948367 11.6601 0.467304 12.0235 0.305929 12.1454C-0.0275941 12.3911 -0.0995302 12.8611 0.146102 13.1946C0.391735 13.5281 0.861233 13.5994 1.19476 13.3537L1.1973 13.3518C1.36655 13.224 1.86557 12.8471 2.14892 12.6259C2.7177 12.1821 3.47861 11.5716 4.24171 10.9091C5.00109 10.2497 5.77979 9.52408 6.37454 8.85096C6.67116 8.51526 6.93788 8.17497 7.1345 7.8488C7.31872 7.54322 7.5 7.15633 7.5 6.74982C7.5 6.34331 7.31871 5.95642 7.1345 5.65084C6.93787 5.32468 6.67116 4.98439 6.37454 4.64869C5.77979 3.97557 5.0011 3.2499 4.24173 2.59058C3.47863 1.92803 2.71774 1.3176 2.14896 0.873719C1.86541 0.652433 1.36637 0.275507 1.19747 0.147929L1.19528 0.14628C0.861762 -0.0993549 0.391787 -0.0284594 0.146152 0.305062C-0.099474 0.638573 -0.0282083 1.10808 0.305285 1.35372Z" fill="#251455"/>
</svg>
