<svg width="26" height="29" viewBox="0 0 26 29" fill="none" xmlns="http://www.w3.org/2000/svg">
<path d="M18.0827 6.45832V5.42499C18.0827 3.97819 18.0827 3.25479 17.8011 2.70218C17.5534 2.2161 17.1582 1.8209 16.6722 1.57322C16.1196 1.29166 15.3962 1.29166 13.9493 1.29166H11.8827C10.4359 1.29166 9.71248 1.29166 9.15987 1.57322C8.67379 1.8209 8.27859 2.2161 8.03092 2.70218C7.74935 3.25479 7.74935 3.97819 7.74935 5.42499V6.45832M10.3327 13.5625V20.0208M15.4993 13.5625V20.0208M1.29102 6.45832H24.541M21.9577 6.45832V20.925C21.9577 23.0952 21.9577 24.1803 21.5353 25.0092C21.1638 25.7383 20.571 26.3311 19.8419 26.7026C19.013 27.125 17.9279 27.125 15.7577 27.125H10.0743C7.90415 27.125 6.81904 27.125 5.99014 26.7026C5.26101 26.3311 4.66821 25.7383 4.2967 25.0092C3.87435 24.1803 3.87435 23.0952 3.87435 20.925V6.45832" stroke="#DB2627" stroke-width="2.58333" stroke-linecap="round" stroke-linejoin="round"/>
</svg>
