<svg width="24" height="24" viewBox="0 0 24 24" fill="none" xmlns="http://www.w3.org/2000/svg">
<path d="M4.91151 18.2743C5.11765 19.8054 6.3858 21.0049 7.92904 21.0758C9.2276 21.1355 10.5467 21.1667 11.9993 21.1667C13.452 21.1667 14.7711 21.1355 16.0696 21.0758C17.6129 21.0049 18.881 19.8054 19.0872 18.2743C19.2218 17.2751 19.3327 16.2511 19.3327 15.2083C19.3327 14.1655 19.2218 13.1415 19.0872 12.1424C18.881 10.6113 17.6129 9.41178 16.0696 9.34083C14.7711 9.28114 13.452 9.25 11.9993 9.25C10.5467 9.25 9.2276 9.28114 7.92904 9.34083C6.3858 9.41178 5.11765 10.6113 4.91151 12.1424C4.77698 13.1415 4.66602 14.1655 4.66602 15.2083C4.66602 16.2511 4.77698 17.2751 4.91151 18.2743Z" stroke="#251455" stroke-width="1.375"/>
<path d="M7.875 9.25001V6.95834C7.875 4.68017 9.72183 2.83334 12 2.83334C14.2782 2.83334 16.125 4.68017 16.125 6.95834V9.25001" stroke="#251455" stroke-width="1.375" stroke-linecap="round" stroke-linejoin="round"/>
<path d="M15.666 15.1992V15.2092" stroke="#251455" stroke-width="1.83333" stroke-linecap="round" stroke-linejoin="round"/>
<path d="M12 15.1992V15.2092" stroke="#251455" stroke-width="1.83333" stroke-linecap="round" stroke-linejoin="round"/>
<path d="M8.33398 15.1992V15.2092" stroke="#251455" stroke-width="1.83333" stroke-linecap="round" stroke-linejoin="round"/>
</svg>
