<svg width="24" height="24" viewBox="0 0 24 24" fill="none" xmlns="http://www.w3.org/2000/svg">
<path d="M14.5391 20.4092C14.8655 20.1543 15.3368 20.2117 15.5918 20.5381C15.8468 20.8645 15.7883 21.3358 15.4619 21.5908C14.5309 22.3181 13.3159 22.75 12 22.75C10.6843 22.7499 9.46998 22.318 8.53906 21.5908C8.21263 21.3358 8.1542 20.8645 8.40918 20.5381C8.66416 20.2117 9.1355 20.1543 9.46191 20.4092C10.123 20.9256 11.0111 21.2499 12 21.25C12.9891 21.25 13.8778 20.9257 14.5391 20.4092ZM12 1.25C16.5463 1.25012 20.2744 4.82165 20.2744 9.2793C20.2745 10.3065 20.3454 11.0729 20.8271 11.7627C20.9154 11.8872 21.0091 12.0109 21.1113 12.1465C21.138 12.1819 21.1654 12.2187 21.1934 12.2559C21.3247 12.4306 21.4671 12.6217 21.5996 12.8232C21.8623 13.2227 22.1215 13.7088 22.2109 14.2773C22.5032 16.1366 21.1549 17.3239 19.8477 17.8496C15.2054 19.7161 8.79463 19.7161 4.15234 17.8496C2.84505 17.324 1.49682 16.1368 1.78906 14.2773C1.87848 13.7088 2.13775 13.2227 2.40039 12.8232C2.53282 12.6219 2.67446 12.4305 2.80566 12.2559C2.83362 12.2186 2.86102 12.1819 2.8877 12.1465C2.98996 12.0108 3.08366 11.8872 3.17188 11.7627C3.6536 11.0729 3.72452 10.3064 3.72461 9.2793C3.72467 4.82158 7.45359 1.25 12 1.25ZM12 2.75C8.23474 2.75 5.22467 5.69651 5.22461 9.2793C5.22452 10.3318 5.17171 11.5213 4.40039 12.624L4.39746 12.627C4.2945 12.7724 4.18339 12.9203 4.0791 13.0586C4.05404 13.0918 4.02894 13.1242 4.00488 13.1562C3.87634 13.3274 3.75848 13.4875 3.65332 13.6475C3.44053 13.9711 3.31182 14.2479 3.27051 14.5107C3.1376 15.3572 3.6912 16.0476 4.71191 16.458C8.99512 18.1801 15.0049 18.1802 19.2881 16.458C20.3087 16.0476 20.8615 15.3572 20.7285 14.5107C20.6872 14.2479 20.5585 13.9711 20.3457 13.6475C20.2406 13.4876 20.1226 13.3273 19.9941 13.1562C19.9702 13.1244 19.9458 13.0917 19.9209 13.0586C19.8166 12.9203 19.7055 12.7724 19.6025 12.627L19.5996 12.624C18.8282 11.5213 18.7745 10.3319 18.7744 9.2793C18.7743 5.69658 15.7652 2.75012 12 2.75Z" fill="#251455"/>
</svg>
