<svg width="121" height="119" viewBox="0 0 121 119" fill="none" xmlns="http://www.w3.org/2000/svg">
<g opacity="0.8">
<path d="M120.999 21.9248V107.044C120.999 108.645 119.701 109.944 118.1 109.944H44.3995C42.7983 109.944 41.5 108.645 41.5 107.044V2.89953C41.5 1.29826 42.7983 0 44.3995 0H99.0745L120.999 21.9248Z" fill="#F4F0FF"/>
<path d="M120.999 21.9248H101.539C100.177 21.9248 99.0742 20.8215 99.0742 19.4602V0L120.999 21.9248Z" fill="#F9FAFB"/>
<path d="M84.0599 90.9851H55.9852C55.2147 90.9851 54.5898 91.61 54.5898 92.3805C54.5898 93.1511 55.2147 93.7759 55.9852 93.7759H84.0599C84.8305 93.7759 85.4553 93.1511 85.4553 92.3805C85.4553 91.61 84.8305 90.9851 84.0599 90.9851Z" fill="#F9FAFB"/>
<path d="M106.515 77.387H55.9852C55.2147 77.387 54.5898 78.0118 54.5898 78.7824C54.5898 79.5529 55.2147 80.1778 55.9852 80.1778H106.515C107.285 80.1778 107.91 79.5529 107.91 78.7824C107.91 78.0118 107.285 77.387 106.515 77.387Z" fill="#F9FAFB"/>
<path d="M106.515 63.7889H55.9852C55.2147 63.7889 54.5898 64.4138 54.5898 65.1843C54.5898 65.9549 55.2147 66.5797 55.9852 66.5797H106.515C107.285 66.5797 107.91 65.9549 107.91 65.1843C107.91 64.4138 107.285 63.7889 106.515 63.7889Z" fill="#F9FAFB"/>
<path d="M106.515 50.1909H55.9852C55.2147 50.1909 54.5898 50.8158 54.5898 51.5863C54.5898 52.3569 55.2147 52.9817 55.9852 52.9817H106.515C107.285 52.9817 107.91 52.3569 107.91 51.5863C107.91 50.8158 107.285 50.1909 106.515 50.1909Z" fill="#F9FAFB"/>
<path d="M106.515 36.5928H55.9852C55.2147 36.5928 54.5898 37.2176 54.5898 37.9882C54.5898 38.7587 55.2147 39.3836 55.9852 39.3836H106.515C107.285 39.3836 107.91 38.7587 107.91 37.9882C107.91 37.2176 107.285 36.5928 106.515 36.5928Z" fill="#F9FAFB"/>
<path d="M62.3475 55.7268C70.5495 63.9289 71.9906 76.3316 66.6692 86.0095C66.0531 87.1309 65.347 88.2161 64.5482 89.2534C64.1386 89.7869 63.7037 90.3073 63.2456 90.814C62.9556 91.1352 62.6555 91.4505 62.3467 91.76C60.0583 94.0485 57.4415 95.8114 54.6485 97.0466C45.3019 101.184 33.9756 99.4213 26.3143 91.76C18.653 84.0987 16.8901 72.7724 21.0277 63.4258C22.2629 60.6328 24.0251 58.0167 26.3143 55.7276C26.6231 55.4188 26.9391 55.1187 27.2603 54.8287C27.767 54.3706 28.2874 53.9364 28.8209 53.5261C29.8582 52.728 30.9427 52.0212 32.0648 51.4051C41.7427 46.0844 54.1454 47.5248 62.3475 55.7268Z" fill="#F4F0FF"/>
<path d="M27.2611 54.828L63.2472 90.8141C62.9572 91.1352 62.6571 91.4505 62.3483 91.76C60.0599 94.0485 57.443 95.8114 54.6501 97.0466L21.0293 63.4258C22.2645 60.6329 24.0267 58.0168 26.3159 55.7276C26.6247 55.4188 26.9407 55.1187 27.2618 54.8287L27.2611 54.828Z" fill="white"/>
<path d="M32.0661 51.405L66.6705 86.0095C66.0544 87.1309 65.3484 88.216 64.5495 89.2533L28.8223 53.526C29.8596 52.7279 30.944 52.0212 32.0661 51.405Z" fill="white"/>
<path d="M69.4455 83.9393C70.7619 80.6925 71.4295 77.2616 71.4295 73.7431C71.4295 70.2245 70.7619 66.7936 69.4455 63.5469C68.082 60.1841 66.0791 57.1679 63.4927 54.5822C60.9064 51.9959 57.8901 49.993 54.5281 48.6295C51.2814 47.3131 47.8505 46.6455 44.3319 46.6455C40.8133 46.6455 37.3825 47.3131 34.1357 48.6295C30.773 49.993 27.7568 51.9959 25.1711 54.5822C22.5847 57.1686 20.5819 60.1849 19.2184 63.5469C17.902 66.7936 17.2344 70.2245 17.2344 73.7431C17.2344 77.2616 17.902 80.6925 19.2184 83.9393C20.2013 86.3625 21.5155 88.6053 23.1414 90.6379L20.1883 93.5911L24.4839 97.8867L27.4371 94.9335C29.4689 96.5595 31.7124 97.8737 34.1357 98.8566C37.3825 100.173 40.8133 100.841 44.3319 100.841C47.8505 100.841 51.2814 100.173 54.5281 98.8566C57.8909 97.4931 60.9071 95.4902 63.4927 92.9039C66.0791 90.3175 68.082 87.3013 69.4455 83.9393ZM44.3319 97.6026C37.9588 97.6026 31.9669 95.1206 27.4603 90.614C22.9537 86.1074 20.4717 80.1155 20.4717 73.7423C20.4717 67.3692 22.9537 61.3773 27.4603 56.8707C31.9669 52.3641 37.9588 49.8821 44.3319 49.8821C50.7051 49.8821 56.697 52.3641 61.2036 56.8707C65.7102 61.3773 68.1922 67.3692 68.1922 73.7423C68.1922 80.1155 65.7102 86.1074 61.2036 90.614C56.697 95.1206 50.7051 97.6026 44.3319 97.6026Z" fill="#251455"/>
<path d="M23.4242 100.544L6.72437 117.244C5.6153 118.353 3.81614 118.353 2.70707 117.244L0.831802 115.369C-0.277267 114.26 -0.277267 112.461 0.831802 111.352L17.5316 94.6523L18.6407 94.3936L23.7004 99.4532L23.4235 100.544H23.4242Z" fill="#251455"/>
<path d="M25.5013 98.4651L23.4231 100.543L17.5312 94.6515L19.6095 92.5733C19.9342 92.2485 20.4605 92.2485 20.7852 92.5733L25.5013 97.2894C25.8261 97.6141 25.8261 98.1404 25.5013 98.4651Z" fill="#6B39F4"/>
</g>
</svg>
