<svg width="121" height="119" viewBox="0 0 121 119" fill="none" xmlns="http://www.w3.org/2000/svg">
<path d="M120.999 21.9248V107.044C120.999 108.645 119.701 109.944 118.1 109.944H44.3995C42.7983 109.944 41.5 108.645 41.5 107.044V2.89953C41.5 1.29826 42.7983 0 44.3995 0H99.0745L120.999 21.9248Z" fill="#F4F0FF"/>
<path d="M120.999 21.9248H101.539C100.177 21.9248 99.0742 20.8215 99.0742 19.4602V0L120.999 21.9248Z" fill="#F9FAFB"/>
<path d="M84.0599 90.9851H55.9852C55.2147 90.9851 54.5898 91.61 54.5898 92.3805C54.5898 93.1511 55.2147 93.7759 55.9852 93.7759H84.0599C84.8305 93.7759 85.4553 93.1511 85.4553 92.3805C85.4553 91.61 84.8305 90.9851 84.0599 90.9851Z" fill="#F9FAFB"/>
<path d="M106.515 77.387H55.9852C55.2147 77.387 54.5898 78.0118 54.5898 78.7824C54.5898 79.5529 55.2147 80.1778 55.9852 80.1778H106.515C107.285 80.1778 107.91 79.5529 107.91 78.7824C107.91 78.0118 107.285 77.387 106.515 77.387Z" fill="#F9FAFB"/>
<path d="M106.515 63.7889H55.9852C55.2147 63.7889 54.5898 64.4138 54.5898 65.1843C54.5898 65.9549 55.2147 66.5797 55.9852 66.5797H106.515C107.285 66.5797 107.91 65.9549 107.91 65.1843C107.91 64.4138 107.285 63.7889 106.515 63.7889Z" fill="#F9FAFB"/>
<path d="M106.515 50.1909H55.9852C55.2147 50.1909 54.5898 50.8158 54.5898 51.5863C54.5898 52.3569 55.2147 52.9817 55.9852 52.9817H106.515C107.285 52.9817 107.91 52.3569 107.91 51.5863C107.91 50.8158 107.285 50.1909 106.515 50.1909Z" fill="#F9FAFB"/>
<path d="M106.515 36.5928H55.9852C55.2147 36.5928 54.5898 37.2176 54.5898 37.9882C54.5898 38.7587 55.2147 39.3836 55.9852 39.3836H106.515C107.285 39.3836 107.91 38.7587 107.91 37.9882C107.91 37.2176 107.285 36.5928 106.515 36.5928Z" fill="#F9FAFB"/>
</svg>
