<svg width="18" height="20" viewBox="0 0 18 20" fill="none" xmlns="http://www.w3.org/2000/svg">
<path d="M0.84375 1.37735C2.33484 0.218783 5.2458 -0.844011 8.84766 0.990631C11.2496 2.21416 13.3524 2.13547 14.7695 1.74258L14.8066 1.73282C15.2367 1.61355 15.6122 1.50899 15.9033 1.45743C16.055 1.43059 16.226 1.41016 16.3965 1.42032C16.5699 1.43067 16.7986 1.47587 17.0068 1.63419C17.3767 1.91542 17.4446 2.35299 17.4707 2.59219C17.4999 2.85931 17.5 3.20478 17.5 3.58438L17.5 11.2025C17.5019 11.3968 17.5055 11.7313 17.3252 12.0356C17.1461 12.3376 16.8741 12.4835 16.7168 12.5678C16.7035 12.5749 16.6912 12.582 16.6797 12.5883C15.0955 13.4543 11.8819 14.2199 8.16699 12.3275C4.88554 10.656 2.45145 11.8948 1.5 12.7875L1.5 18.7504C1.5 19.1646 1.16421 19.5004 0.75 19.5004C0.335865 19.5003 1.81033e-08 19.1646 0 18.7504L0 3.1713C-0.000919808 2.84835 -0.00237145 2.48867 0.177734 2.12051C0.35677 1.75468 0.5969 1.56952 0.813477 1.40176C0.823762 1.3938 0.833576 1.38525 0.84375 1.37735ZM8.16699 2.32755C5.15869 0.795127 2.86756 1.70504 1.76465 2.56192C1.70405 2.60901 1.66101 2.64172 1.625 2.6713C1.59019 2.69989 1.57118 2.71824 1.55957 2.72989C1.54967 2.73985 1.54517 2.74536 1.54297 2.74844C1.54038 2.75213 1.53457 2.76094 1.52539 2.77969L1.52441 2.78067C1.51979 2.79006 1.51414 2.8032 1.50879 2.85489C1.50097 2.93059 1.5 3.03217 1.5 3.23965L1.5 10.935C3.11209 9.98801 5.71657 9.39578 8.84766 10.9906C12.0656 12.6298 14.753 11.9317 15.96 11.2719C15.9746 11.2639 15.988 11.257 16 11.2504L16 3.62442C16 3.34054 15.9999 3.13046 15.9941 2.97012C15.7961 3.01553 15.5331 3.08746 15.1709 3.1879C13.4276 3.67127 10.9345 3.73731 8.16699 2.32755Z" fill="#251455"/>
</svg>
