<svg width="18" height="22" viewBox="0 0 18 22" fill="none" xmlns="http://www.w3.org/2000/svg">
<path fill-rule="evenodd" clip-rule="evenodd" d="M8.69541 2.82766e-07H8.80459C10.6439 -1.4082e-05 12.098 -2.53469e-05 13.2354 0.147307C14.4029 0.298529 15.3495 0.616724 16.0988 1.33863C16.852 2.06431 17.1876 2.98743 17.3464 4.12525C17.5 5.2265 17.5 6.63207 17.5 8.39945V16.7958C17.5 17.8934 17.5001 18.8053 17.3947 19.4905C17.2856 20.1995 17.0314 20.8895 16.3304 21.2639C15.7052 21.5977 15.0176 21.5298 14.4346 21.3528C13.8449 21.1738 13.2455 20.8489 12.6967 20.5021C12.1426 20.152 11.5994 19.7529 11.127 19.4038L11.0715 19.3627C10.6087 19.0206 10.2369 18.7458 9.95311 18.5749C9.55354 18.3343 9.30126 18.1835 9.09674 18.0871C8.90799 17.9982 8.8163 17.984 8.75 17.984C8.6837 17.984 8.59202 17.9982 8.40326 18.0871C8.19875 18.1835 7.94646 18.3343 7.54689 18.5749C7.26308 18.7458 6.89135 19.0206 6.42854 19.3627L6.37299 19.4038C5.90065 19.7529 5.35739 20.152 4.80335 20.5021C4.25454 20.8489 3.65514 21.1738 3.06544 21.3528C2.4824 21.5298 1.79476 21.5977 1.16957 21.2639C0.468565 20.8895 0.214378 20.1995 0.105327 19.4905C-7.26804e-05 18.8053 -3.90058e-05 17.8934 1.58497e-06 16.7958L2.77706e-06 8.39943C-1.55812e-05 6.63206 -3.01301e-05 5.2265 0.153647 4.12525C0.312428 2.98743 0.647995 2.06431 1.40121 1.33863C2.15051 0.616724 3.09712 0.298529 4.26457 0.147307C5.402 -2.53469e-05 6.85609 -1.4082e-05 8.69541 2.82766e-07ZM4.45726 1.63488C3.4462 1.76584 2.86421 2.01202 2.44194 2.41885C2.02358 2.82192 1.77336 3.37151 1.63925 4.33256C1.50172 5.31814 1.5 6.61886 1.5 8.45753V16.7308C1.5 17.9101 1.50215 18.7051 1.58789 19.2625C1.67205 19.8096 1.80429 19.9023 1.87613 19.9407C1.99925 20.0064 2.22376 20.0407 2.62969 19.9175C3.02895 19.7963 3.49532 19.5543 4.00207 19.2341C4.50359 18.9171 5.00567 18.5491 5.48144 18.1975C5.51136 18.1754 5.54129 18.1532 5.5712 18.1311C6.00048 17.8136 6.4258 17.499 6.77312 17.2899L6.80248 17.2722C7.16395 17.0545 7.48198 16.863 7.764 16.7301C8.0694 16.5863 8.38611 16.484 8.75 16.484C9.1139 16.484 9.43061 16.5863 9.736 16.7301C10.018 16.863 10.3361 17.0545 10.6975 17.2722L10.7269 17.2899C11.0742 17.499 11.4995 17.8136 11.9288 18.1311C11.9587 18.1532 11.9886 18.1754 12.0186 18.1975C12.4943 18.5491 12.9964 18.9171 13.4979 19.2341C14.0047 19.5543 14.4711 19.7963 14.8703 19.9175C15.2762 20.0407 15.5008 20.0064 15.6239 19.9407C15.6957 19.9023 15.828 19.8096 15.9121 19.2625C15.9979 18.7051 16 17.9101 16 16.7308V8.45753C16 6.61886 15.9983 5.31814 15.8608 4.33256C15.7266 3.37151 15.4764 2.82192 15.0581 2.41885C14.6358 2.01202 14.0538 1.76584 13.0427 1.63488C12.0129 1.50148 10.6561 1.5 8.75 1.5C6.84394 1.5 5.48711 1.50148 4.45726 1.63488Z" fill="#251455"/>
</svg>
