<svg width="150" height="150" viewBox="0 0 150 150" fill="none" xmlns="http://www.w3.org/2000/svg">
<path d="M100.108 14.5321C103.388 15.0218 106.96 16.2062 109.007 19.7524C111.049 23.2898 110.302 26.9761 109.102 30.071C107.947 33.0494 105.899 36.6521 103.513 40.8478L96.632 52.9532C95.3307 55.2425 94.4927 56.7235 93.9589 57.8585C93.5584 58.7103 93.4848 59.0594 93.4732 59.1171C93.4934 59.8113 93.8599 60.4379 94.4307 60.7912C94.4923 60.8111 94.8304 60.9155 95.7372 60.9864C96.9795 61.0835 98.8636 61.0869 101.487 61.0869C104.543 61.0868 107.106 61.0868 109.105 61.2398C111.038 61.3879 113.314 61.7164 115.222 62.9848C118.928 65.4478 120.854 69.8432 120.178 74.2334C119.831 76.4915 118.549 78.3964 117.358 79.9334C116.127 81.5219 114.404 83.4272 112.348 85.7005L112.348 85.7008L77.4001 124.345C74.1942 127.89 71.4953 130.875 69.2997 132.789C68.1833 133.763 66.8645 134.763 65.3928 135.36C63.7716 136.018 61.6329 136.298 59.5086 135.191C57.3889 134.086 56.3929 132.179 55.9967 130.484C55.6359 128.94 55.6882 127.287 55.8359 125.81C56.1264 122.905 56.9966 118.969 58.0312 114.29L62.3953 94.5482C63.261 90.6323 63.7893 88.1895 63.9244 86.4014C64.1099 84.9274 62.8241 84.2953 62.1581 84.1635C60.3986 83.909 57.918 83.8974 53.9252 83.8974L50.6999 83.8974C46.3693 83.8978 42.5995 83.898 39.6865 83.4641C36.6048 83.0051 33.3057 81.9025 31.2338 78.6976C29.1668 75.5004 29.5045 72.039 30.3354 69.034C31.1227 66.1867 32.6523 62.7277 34.4128 58.7465L45.9769 32.5905L45.977 32.5904C47.6055 28.9067 48.9749 25.8091 50.3716 23.3839C51.8518 20.8136 53.562 18.6279 56.0605 16.9957C58.5606 15.3624 61.247 14.6772 64.1913 14.3606C66.9663 14.0623 70.341 14.0624 74.3491 14.0625L88.0224 14.0625C92.8264 14.0622 96.958 14.0619 100.108 14.5321Z" fill="#F4F0FF"/>
</svg>
