<svg width="18" height="18" viewBox="0 0 18 18" fill="none" xmlns="http://www.w3.org/2000/svg">
<path d="M9 0.9375C13.4528 0.9375 17.0625 4.5472 17.0625 9C17.0625 13.4528 13.4528 17.0625 9 17.0625C4.5472 17.0625 0.9375 13.4528 0.9375 9C0.9375 4.5472 4.5472 0.9375 9 0.9375ZM3.71387 4.50879C2.68452 5.71913 2.0625 7.28664 2.0625 9C2.0625 12.8315 5.16852 15.9375 9 15.9375C10.7133 15.9375 12.2799 15.3145 13.4902 14.2852L3.71387 4.50879ZM9 2.0625C7.28664 2.0625 5.71913 2.68452 4.50879 3.71387L14.2852 13.4902C15.3145 12.2799 15.9375 10.7133 15.9375 9C15.9375 5.16852 12.8315 2.0625 9 2.0625Z" fill="#251455"/>
</svg>
