<svg width="18" height="18" viewBox="0 0 18 18" fill="none" xmlns="http://www.w3.org/2000/svg">
<path fill-rule="evenodd" clip-rule="evenodd" d="M11.8469 2.85653C11.5621 2.81402 11.1518 2.8125 10.5182 2.8125H8.95114C8.43319 2.8125 8.08901 2.81325 7.8232 2.84183C7.57099 2.86894 7.44111 2.91692 7.34254 2.98131C7.24377 3.04584 7.14697 3.14611 7.01949 3.36749C6.88533 3.60044 6.74469 3.91672 6.53439 4.39238L5.17566 7.46558C4.94218 7.99367 4.79421 8.33199 4.72456 8.5839C4.69146 8.70362 4.68612 8.77088 4.68765 8.80557C4.68871 8.82946 4.69232 8.83252 4.69278 8.8329C4.69284 8.83329 4.69356 8.83734 4.71398 8.84758C4.74392 8.86259 4.80635 8.88483 4.92814 8.90297C5.1847 8.94119 5.55166 8.94269 6.12681 8.94269H6.47103C6.48407 8.94269 6.49707 8.94269 6.51003 8.94269C6.93798 8.94265 7.31855 8.94261 7.61996 8.98619C7.9459 9.03332 8.28765 9.14493 8.53592 9.45605C8.78367 9.76653 8.81755 10.1244 8.79273 10.4529C8.76971 10.7575 8.68724 11.1305 8.59428 11.5508L8.07086 13.9185C7.99309 14.2703 7.93068 14.5542 7.88651 14.784C8.04714 14.6158 8.24093 14.402 8.48062 14.137L12.632 9.54649C12.8981 9.25225 13.0755 9.05551 13.1937 8.90292C13.2841 8.78622 13.3069 8.7353 13.3108 8.72741C13.321 8.63847 13.2825 8.552 13.2123 8.5009C13.203 8.49822 13.15 8.48147 13.0067 8.4705C12.815 8.45582 12.5511 8.45543 12.1555 8.45543H12.1337C11.8468 8.45544 11.5991 8.45545 11.4008 8.43995C11.2005 8.42429 10.9728 8.38896 10.7665 8.26778C10.3518 8.02412 10.0964 7.5803 10.0917 7.1001C10.0894 6.86161 10.1713 6.64666 10.257 6.4643C10.3419 6.28379 10.4647 6.06782 10.6071 5.81724L11.4217 4.3842C11.736 3.83138 11.9385 3.47203 12.0434 3.20173C12.0936 3.07219 12.1068 2.99787 12.1085 2.95911C12.1093 2.94227 12.1077 2.93535 12.1076 2.93492C12.1076 2.93485 12.1076 2.93496 12.1076 2.93492C12.1075 2.93466 12.1071 2.93383 12.1065 2.93274C12.106 2.93191 12.1057 2.93138 12.1055 2.93109C12.1051 2.93073 12.1039 2.92971 12.1015 2.92809C12.0987 2.92615 12.0939 2.92311 12.0865 2.91926C12.0531 2.90204 11.9833 2.87689 11.8469 2.85653ZM12.013 1.74386C12.4066 1.80261 12.8351 1.94474 13.0808 2.37029C13.3259 2.79477 13.2363 3.23713 13.0922 3.60852C12.9536 3.96593 12.7078 4.39825 12.4216 4.90173L11.5958 6.35439C11.4397 6.6291 11.3391 6.80682 11.2751 6.94303C11.227 7.04524 11.2182 7.08712 11.2168 7.09405C11.2192 7.17736 11.2632 7.25255 11.3317 7.29495C11.3391 7.29734 11.3796 7.30987 11.4885 7.31837C11.6375 7.33002 11.8406 7.33043 12.1555 7.33043H12.1785C12.5451 7.33042 12.8527 7.33041 13.0926 7.34878C13.3245 7.36654 13.5977 7.40597 13.8267 7.55818C14.2713 7.85373 14.5025 8.38119 14.4214 8.908C14.3797 9.17898 14.2259 9.40757 14.083 9.592C13.9352 9.78263 13.7285 10.0113 13.4817 10.2841L9.28801 14.9214C8.9033 15.3469 8.57944 15.705 8.31596 15.9347C8.182 16.0515 8.02374 16.1716 7.84713 16.2432C7.6526 16.3221 7.39595 16.3557 7.14103 16.2229C6.88667 16.0903 6.76715 15.8615 6.71961 15.6581C6.67631 15.4728 6.68259 15.2745 6.70031 15.0972C6.73517 14.7486 6.83959 14.2763 6.96374 13.7148L7.48743 11.3458C7.59131 10.8759 7.65471 10.5827 7.67093 10.3682C7.67852 10.2677 7.67284 10.2128 7.66679 10.1847C7.6625 10.1649 7.6587 10.1603 7.65693 10.1582C7.6568 10.158 7.65704 10.1583 7.65693 10.1582C7.65682 10.158 7.65634 10.1575 7.65621 10.1573C7.65461 10.1552 7.65137 10.1509 7.63399 10.1428C7.60889 10.1312 7.55768 10.1139 7.45897 10.0996C7.24783 10.0691 6.95016 10.0677 6.47103 10.0677L6.08398 10.0677C5.56431 10.0677 5.11194 10.0678 4.76238 10.0157C4.39258 9.96061 3.99668 9.8283 3.74806 9.44372C3.50002 9.06004 3.54054 8.64468 3.64025 8.28408C3.73472 7.9424 3.91827 7.52732 4.12954 7.04958C4.13525 7.03665 4.14099 7.02368 4.14674 7.01067L5.51723 3.91086C5.71266 3.46881 5.87699 3.0971 6.04459 2.80606C6.22221 2.49763 6.42744 2.23535 6.72725 2.03948C7.02727 1.84348 7.34964 1.76126 7.70295 1.72328C8.03595 1.68748 8.44092 1.68749 8.92189 1.6875L10.5627 1.6875C11.1392 1.68747 11.635 1.68743 12.013 1.74386Z" fill="#6B39F4"/>
</svg>
