<svg width="18" height="18" viewBox="0 0 18 18" fill="none" xmlns="http://www.w3.org/2000/svg">
<path d="M2.22461 0.9375C3.17968 0.937548 4.02931 1.57019 4.26758 2.49609L4.63867 3.9375L16.5 3.9375C16.8107 3.9375 17.0625 4.18934 17.0625 4.5C17.0625 4.81066 16.8107 5.0625 16.5 5.0625H16.2539L15.832 8.8584C15.7193 9.8731 15.538 10.6881 14.9805 11.2305C14.4229 11.7727 13.6041 11.9309 12.5869 12.0156L6.36816 12.5332C6.30528 12.6669 6.22894 12.7956 6.13672 12.915L5.77539 13.3809C6.11197 13.6463 6.36248 14.014 6.48242 14.4375L10.7676 14.4375C11.0126 13.5721 11.8061 12.9375 12.75 12.9375C13.8891 12.9375 14.8125 13.8609 14.8125 15C14.8125 16.1391 13.8891 17.0625 12.75 17.0625C11.8061 17.0625 11.0126 16.4279 10.7676 15.5625L6.48242 15.5625C6.23736 16.4279 5.44385 17.0625 4.5 17.0625C3.36091 17.0625 2.4375 16.1391 2.4375 15C2.4375 13.8609 3.36091 12.9375 4.5 12.9375C4.56421 12.9375 4.62772 12.9405 4.69043 12.9463L5.24609 12.2275C5.42015 12.0021 5.47826 11.7157 5.40918 11.4473L3.17773 2.77637C3.07234 2.36684 2.68647 2.06255 2.22461 2.0625H1.5C1.18934 2.0625 0.9375 1.81066 0.9375 1.5C0.9375 1.18934 1.18934 0.9375 1.5 0.9375H2.22461ZM4.5 14.0625C3.98223 14.0625 3.5625 14.4822 3.5625 15C3.5625 15.5178 3.98223 15.9375 4.5 15.9375C5.01777 15.9375 5.4375 15.5178 5.4375 15C5.4375 14.4822 5.01777 14.0625 4.5 14.0625ZM12.75 14.0625C12.2322 14.0625 11.8125 14.4822 11.8125 15C11.8125 15.5178 12.2322 15.9375 12.75 15.9375C13.2678 15.9375 13.6875 15.5178 13.6875 15C13.6875 14.4822 13.2678 14.0625 12.75 14.0625ZM6.49902 11.167C6.51799 11.2407 6.53151 11.3152 6.54199 11.3896L12.4932 10.8945C13.5221 10.8088 13.9559 10.6577 14.1963 10.4238C14.4367 10.1899 14.5999 9.76051 14.7139 8.73438L15.1221 5.0625L4.92773 5.0625L6.49902 11.167Z" fill="#251455"/>
</svg>
