<svg width="18" height="18" viewBox="0 0 18 18" fill="none" xmlns="http://www.w3.org/2000/svg">
<path fill-rule="evenodd" clip-rule="evenodd" d="M0.75 1.5C0.75 1.08579 1.08579 0.75 1.5 0.75L2.2245 0.75C3.26181 0.75 4.18835 1.43728 4.44878 2.44928L4.78351 3.75L15.739 3.75L15.7479 3.74993L15.7593 3.75H16.5C16.9142 3.75 17.25 4.08579 17.25 4.5C17.25 4.91421 16.9142 5.25 16.5 5.25H16.4213L16.018 8.87947C15.9055 9.89227 15.7221 10.7709 15.1117 11.3648C14.5013 11.9586 13.6179 12.1178 12.6024 12.2024L6.48995 12.7118C6.43115 12.8223 6.36268 12.9287 6.28485 13.0295L6.03419 13.3542C6.29635 13.5986 6.50003 13.905 6.62197 14.25L10.628 14.25C10.9369 13.3761 11.7703 12.75 12.75 12.75C13.9926 12.75 15 13.7574 15 15C15 16.2426 13.9926 17.25 12.75 17.25C11.7703 17.25 10.9369 16.6239 10.628 15.75L6.62197 15.75C6.31309 16.6239 5.47966 17.25 4.5 17.25C3.25736 17.25 2.25 16.2426 2.25 15C2.25 13.7574 3.25736 12.75 4.5 12.75C4.53479 12.75 4.56939 12.7508 4.6038 12.7524L5.09751 12.1128C5.2366 11.9327 5.28207 11.7061 5.22755 11.4943L2.99611 2.82311C2.91286 2.49961 2.60421 2.25 2.2245 2.25L1.5 2.25C1.08579 2.25 0.75 1.91421 0.75 1.5ZM4.5 14.25C4.08579 14.25 3.75 14.5858 3.75 15C3.75 15.4142 4.08579 15.75 4.5 15.75C4.91421 15.75 5.25 15.4142 5.25 15C5.25 14.5858 4.91421 14.25 4.5 14.25ZM12 15C12 15.4142 12.3358 15.75 12.75 15.75C13.1642 15.75 13.5 15.4142 13.5 15C13.5 14.5858 13.1642 14.25 12.75 14.25C12.3358 14.25 12 14.5858 12 15Z" fill="white"/>
</svg>
