<svg width="16" height="16" viewBox="0 0 16 16" fill="none" xmlns="http://www.w3.org/2000/svg">
<g opacity="0.8">
<path d="M6.94824 1.4978C7.5795 1.05593 8.4205 1.05593 9.05176 1.4978L14.5166 5.32397C14.9238 5.6092 15.1669 6.07485 15.167 6.57202C15.167 7.27157 14.6904 7.88185 14.0117 8.05151L13.7959 8.10522L13.5225 10.8181C13.4394 11.6441 13.3726 12.3121 13.251 12.8357C13.1244 13.3804 12.9254 13.8342 12.5352 14.1873C12.1447 14.5404 11.6729 14.6929 11.1182 14.7644C10.5849 14.8331 9.91331 14.8328 9.08301 14.8328L6.91699 14.8328C6.08669 14.8328 5.41506 14.8331 4.88184 14.7644C4.32705 14.6929 3.85526 14.5404 3.46484 14.1873C3.07461 13.8342 2.87564 13.3804 2.74902 12.8357C2.62736 12.3121 2.56061 11.6441 2.47754 10.8181L2.2041 8.10522L1.98828 8.05151C1.30962 7.88185 0.833008 7.27157 0.833008 6.57202C0.833144 6.07485 1.07618 5.6092 1.4834 5.32397L6.94824 1.4978ZM8.47754 2.31714C8.19072 2.11653 7.80928 2.11653 7.52246 2.31714L2.05664 6.14233C1.91659 6.24041 1.83314 6.40106 1.83301 6.57202C1.83301 6.81261 1.99712 7.02234 2.23047 7.08081L2.78809 7.22046C2.99264 7.27164 3.14296 7.4462 3.16406 7.65601L3.46875 10.6833C3.55613 11.5521 3.61818 12.1565 3.72363 12.6101C3.82583 13.0495 3.95495 13.2825 4.13574 13.446C4.31656 13.6096 4.56126 13.7155 5.00879 13.7732C5.47072 13.8327 6.07807 13.8328 6.95117 13.8328L9.04883 13.8328C9.92193 13.8328 10.5293 13.8327 10.9912 13.7732C11.4387 13.7155 11.6834 13.6096 11.8643 13.446C12.045 13.2825 12.1742 13.0495 12.2764 12.6101C12.3818 12.1565 12.4439 11.5521 12.5312 10.6833L12.8359 7.65601C12.857 7.4462 13.0074 7.27164 13.2119 7.22046L13.7695 7.08081C14.0029 7.02234 14.167 6.81261 14.167 6.57202C14.1669 6.40106 14.0834 6.24041 13.9434 6.14233L8.47754 2.31714ZM9.69336 10.2722C9.91118 10.1028 10.2249 10.1415 10.3945 10.3591C10.5641 10.577 10.5253 10.8916 10.3076 11.0613C9.68522 11.5458 8.87606 11.8337 8 11.8337C7.12412 11.8337 6.3157 11.5456 5.69336 11.0613C5.47545 10.8917 5.43585 10.577 5.60547 10.3591C5.77513 10.1414 6.08978 10.1026 6.30762 10.2722C6.75121 10.6174 7.3426 10.8337 8 10.8337C8.6576 10.8337 9.24972 10.6176 9.69336 10.2722Z" fill="#251455"/>
</g>
</svg>
