<svg width="16" height="16" viewBox="0 0 16 16" fill="none" xmlns="http://www.w3.org/2000/svg">
<path d="M6.94824 1.4978C7.5795 1.05593 8.4205 1.05593 9.05176 1.4978L14.5166 5.32397C14.9238 5.6092 15.1669 6.07485 15.167 6.57202C15.167 7.27157 14.6904 7.88185 14.0117 8.05151L13.7959 8.10522L13.5225 10.8181C13.4394 11.6441 13.3726 12.3121 13.251 12.8357C13.1244 13.3804 12.9254 13.8342 12.5352 14.1873C12.1447 14.5404 11.6729 14.6929 11.1182 14.7644C10.585 14.8331 9.91329 14.8328 9.08301 14.8328L6.91699 14.8328C6.08672 14.8328 5.41505 14.8331 4.88184 14.7644C4.32705 14.6929 3.85526 14.5404 3.46484 14.1873C3.07461 13.8342 2.87564 13.3804 2.74902 12.8357C2.62736 12.3121 2.56061 11.6441 2.47754 10.8181L2.2041 8.10522L1.98828 8.05151C1.30962 7.88185 0.833008 7.27157 0.833008 6.57202C0.833144 6.07485 1.07618 5.6092 1.4834 5.32397L6.94824 1.4978ZM10.3945 10.3591C10.2249 10.1415 9.91118 10.1028 9.69336 10.2722C9.24972 10.6176 8.6576 10.8337 8 10.8337C7.3426 10.8337 6.75121 10.6174 6.30762 10.2722C6.08978 10.1026 5.77513 10.1414 5.60547 10.3591C5.43585 10.577 5.47545 10.8917 5.69336 11.0613C6.3157 11.5456 7.12412 11.8337 8 11.8337C8.87606 11.8337 9.68522 11.5458 10.3076 11.0613C10.5253 10.8916 10.5641 10.577 10.3945 10.3591Z" fill="white"/>
</svg>
