<svg width="18" height="17" viewBox="0 0 18 17" fill="none" xmlns="http://www.w3.org/2000/svg">
<path d="M17.3721 0.149414C17.7188 0.149414 17.9999 0.430686 18 0.777344C18 2.92875 16.6659 4.99455 15.2422 6.4209C15.1235 6.53978 15.0639 6.59936 15.0479 6.66992C15.0319 6.74062 15.0606 6.82252 15.1182 6.98535C15.3057 7.51559 15.4262 8.07753 15.4697 8.66016C15.4811 8.81188 15.4871 8.88789 15.4482 8.95508C15.4092 9.02236 15.3363 9.05712 15.1914 9.12598L14.5371 9.4375C13.4012 9.88186 12.5586 10.9374 12.5586 12.2139C12.5587 13.2613 13.1294 14.1643 13.9609 14.6963L14.0479 14.7559C14.2322 14.8827 14.324 14.9471 14.3486 15.0342C14.3636 15.0876 14.3592 15.1524 14.3369 15.2031C14.3004 15.286 14.2057 15.3332 14.0166 15.4277C12.7003 16.0859 10.9259 16.4756 9 16.4756C7.07415 16.4756 5.29975 16.0859 3.9834 15.4277C3.79086 15.3315 3.69446 15.2837 3.6582 15.1992C3.63654 15.1487 3.6324 15.0841 3.64746 15.0312C3.6727 14.9429 3.76697 14.8789 3.95605 14.752L4.03613 14.6982C4.86939 14.1665 5.44223 13.2626 5.44238 12.2139C5.44238 10.9365 4.59808 9.88032 3.46094 9.43652L2.81152 9.13379C2.66512 9.06563 2.59139 9.03138 2.55176 8.96387C2.51233 8.89643 2.51804 8.8198 2.5293 8.66699C2.57238 8.08191 2.69355 7.51767 2.88184 6.98535C2.93943 6.82252 2.96812 6.74062 2.95215 6.66992C2.93607 6.59936 2.87648 6.53978 2.75781 6.4209C1.33408 4.99455 0 2.92875 0 0.777344C0.00014748 0.430686 0.281237 0.149414 0.62793 0.149414C3.63435 0.149421 5.49547 1.52324 6.43945 2.76074C6.56088 2.91993 6.62193 2.99937 6.69727 3.02344C6.77264 3.04748 6.86796 3.01798 7.05762 2.95898C8.31705 2.56732 9.68295 2.56732 10.9424 2.95898C11.132 3.01798 11.2274 3.04748 11.3027 3.02344C11.3781 2.99937 11.4391 2.91993 11.5605 2.76074C12.5045 1.52324 14.3656 0.149421 17.3721 0.149414ZM15.291 10.4873C15.3647 10.481 15.4072 10.493 15.4658 10.5381C15.5019 10.5659 15.5463 10.6383 15.6357 10.7822C15.6722 10.8409 15.7135 10.9045 15.7588 10.9746C15.7882 11.0202 15.8202 11.0689 15.8535 11.1211C16.061 11.4463 16.3252 11.8986 16.3252 12.499C16.3251 13.0312 16.15 13.5141 15.8545 13.9424C15.7439 14.1027 15.6881 14.1833 15.5859 14.2021C15.4839 14.2207 15.3949 14.159 15.2178 14.0371L14.6631 13.6553C14.6568 13.6509 14.65 13.6467 14.6436 13.6426C14.1262 13.3143 13.8146 12.7865 13.8145 12.2139C13.8145 11.5181 14.2794 10.8805 15.0088 10.6016C15.1011 10.5663 15.1911 10.4959 15.291 10.4873ZM2.70117 10.4873C2.80353 10.4931 2.89718 10.5656 2.99121 10.6016C3.72071 10.8804 4.18652 11.5181 4.18652 12.2139C4.18637 12.7866 3.87393 13.3143 3.35645 13.6426L3.34277 13.6514L2.77344 14.0342C2.59598 14.1534 2.50675 14.2128 2.40527 14.1934C2.30407 14.1738 2.2489 14.0939 2.13965 13.9346C1.84734 13.5082 1.67491 13.028 1.6748 12.499C1.6748 11.8986 1.939 11.4463 2.14648 11.1211C2.17983 11.0688 2.21172 11.0193 2.24121 10.9736C2.28463 10.9064 2.3241 10.8457 2.35938 10.7891C2.45266 10.6394 2.49996 10.5648 2.53906 10.5361C2.59419 10.4958 2.63292 10.4836 2.70117 10.4873ZM10.3174 10.8838C10.093 10.6246 9.69606 10.5926 9.43164 10.8125C9.11621 11.0748 9.01501 11.0772 9.00391 11.0771C8.98712 11.077 8.88312 11.0677 8.56543 10.8086C8.29891 10.5914 7.90342 10.6276 7.68164 10.8887C7.4599 11.1498 7.49547 11.5374 7.76172 11.7549C8.10553 12.0353 8.5077 12.3048 8.99707 12.3076C9.49101 12.3104 9.89492 12.0414 10.2441 11.751C10.5085 11.5311 10.5416 11.1429 10.3174 10.8838ZM6.48145 7.58984C6.01928 7.59005 5.64459 7.95717 5.64453 8.41016C5.64453 8.86319 6.01925 9.23026 6.48145 9.23047H6.48926C6.95164 9.23047 7.32617 8.86331 7.32617 8.41016C7.32612 7.95705 6.9516 7.58984 6.48926 7.58984H6.48145ZM11.5117 7.58984C11.0494 7.58984 10.6749 7.95705 10.6748 8.41016C10.6748 8.86331 11.0493 9.23047 11.5117 9.23047H11.5195C11.9817 9.23027 12.3564 8.86319 12.3564 8.41016C12.3564 7.95717 11.9817 7.59005 11.5195 7.58984H11.5117Z" fill="white"/>
</svg>
