<svg width="18" height="16" viewBox="0 0 18 16" fill="none" xmlns="http://www.w3.org/2000/svg">
<path d="M17.3721 0C17.7188 0 17.9999 0.275436 18 0.615234C18 2.84594 16.507 4.98262 14.9941 6.38281C15.3126 7.1341 15.4883 7.95773 15.4883 8.82031C15.4883 9.01467 15.462 9.23304 15.4414 9.40332C15.4353 9.45364 15.43 9.49994 15.4258 9.54004C15.4033 9.75318 15.4035 9.88497 15.4268 9.97949C15.476 10.1795 15.5842 10.3433 15.7588 10.6084C15.7883 10.6532 15.8201 10.7007 15.8535 10.752C16.061 11.0707 16.3252 11.5139 16.3252 12.1025C16.3252 13.3675 15.2954 14.347 14.0166 14.9736C12.7003 15.6187 10.9258 16 9 16C7.07419 16 5.29973 15.6187 3.9834 14.9736C2.70461 14.347 1.6748 13.3675 1.6748 12.1025C1.67481 11.5139 1.93897 11.0707 2.14648 10.752C2.17987 10.7007 2.21169 10.6532 2.24121 10.6084C2.41585 10.3433 2.524 10.1795 2.57324 9.97949C2.59649 9.88494 2.59673 9.75315 2.57422 9.54004C2.56998 9.49993 2.56467 9.45364 2.55859 9.40332C2.53802 9.23303 2.51172 9.01468 2.51172 8.82031C2.51175 7.95773 2.68744 7.13411 3.00586 6.38281C1.49301 4.98261 0 2.84594 0 0.615234C8.2838e-05 0.275436 0.281197 0 0.62793 0C3.90625 7.39543e-06 5.82339 1.60072 6.67383 2.88379C8.16257 2.32631 9.8374 2.32632 11.3262 2.88379C12.1766 1.60069 14.0938 7.269e-06 17.3721 0ZM16.6914 1.25879C13.9428 1.48626 12.5784 3.06477 12.1641 3.93066C12.0924 4.08035 11.9619 4.19533 11.8027 4.25C11.6434 4.30462 11.4677 4.29405 11.3164 4.2207C9.87293 3.52105 8.12702 3.52104 6.68359 4.2207C6.53229 4.29405 6.3566 4.30462 6.19727 4.25C6.0382 4.19536 5.90855 4.0802 5.83691 3.93066C5.42255 3.06475 4.05722 1.48627 1.30859 1.25879C1.57746 2.93205 2.83426 4.61975 4.17969 5.76465C4.39703 5.94958 4.45815 6.25615 4.32812 6.50781C3.96961 7.20188 3.76761 7.98714 3.76758 8.82031C3.76758 8.93621 3.7812 9.04692 3.79883 9.19336C3.80046 9.2069 3.80104 9.22116 3.80273 9.23535C4.40328 9.55227 4.98852 10.162 5.25684 10.9189C5.42548 11.3949 5.47314 11.9403 5.3125 12.5098C5.18163 12.9734 4.91853 13.4257 4.51465 13.8574C4.52474 13.8624 4.53473 13.8681 4.54492 13.873C5.65265 14.4158 7.2269 14.7695 9 14.7695C10.7731 14.7695 12.3474 14.4158 13.4551 13.873C13.4621 13.8696 13.4686 13.8648 13.4756 13.8613C13.0781 13.4332 12.8191 12.9848 12.6895 12.5254C12.5288 11.956 12.5756 11.4115 12.7441 10.9355C13.0118 10.1802 13.5951 9.57054 14.1943 9.25293C14.1968 9.23249 14.1989 9.21249 14.2012 9.19336C14.2188 9.04692 14.2324 8.93621 14.2324 8.82031C14.2324 7.98716 14.0304 7.20189 13.6719 6.50781C13.5418 6.25615 13.603 5.94959 13.8203 5.76465C15.1657 4.61974 16.4225 2.93203 16.6914 1.25879ZM14.3525 10.6758C14.1794 10.8548 14.0225 11.0798 13.9307 11.3389C13.8369 11.6035 13.8134 11.8924 13.8994 12.1973C13.9786 12.478 14.161 12.8047 14.5244 13.1572C14.902 12.7951 15.0693 12.4291 15.0693 12.1025C15.0693 11.8899 14.9826 11.7038 14.7939 11.4141C14.772 11.3803 14.7477 11.3436 14.7217 11.3047C14.6095 11.1373 14.4669 10.9232 14.3525 10.6758ZM3.65234 10.6631C3.53708 10.9158 3.3924 11.1345 3.27832 11.3047C3.25226 11.3436 3.22801 11.3803 3.20605 11.4141C3.01741 11.7038 2.93067 11.8899 2.93066 12.1025C2.93066 12.4268 3.09489 12.7908 3.4668 13.1504C3.83677 12.7943 4.02259 12.4649 4.10254 12.1816C4.18853 11.8768 4.16496 11.5878 4.07129 11.3232C3.98005 11.0657 3.82421 10.8416 3.65234 10.6631ZM9.43066 10.8125C9.69509 10.5926 10.092 10.6246 10.3164 10.8838C10.5407 11.1429 10.5075 11.5311 10.2432 11.751C9.89394 12.0414 9.49002 12.3104 8.99609 12.3076C8.50671 12.3048 8.10455 12.0353 7.76074 11.7549C7.49449 11.5374 7.45891 11.1498 7.68066 10.8887C7.90245 10.6276 8.29794 10.5914 8.56445 10.8086C8.88229 11.0679 8.98624 11.077 9.00293 11.0771C9.01404 11.0772 9.11522 11.0748 9.43066 10.8125ZM6.48926 7.58984C6.9516 7.58984 7.32612 7.95705 7.32617 8.41016C7.32617 8.86331 6.95164 9.23047 6.48926 9.23047H6.48145C6.01925 9.23026 5.64453 8.86319 5.64453 8.41016C5.64459 7.95717 6.01928 7.59005 6.48145 7.58984H6.48926ZM11.5195 7.58984C11.9817 7.59004 12.3564 7.95717 12.3564 8.41016C12.3564 8.86319 11.9817 9.23027 11.5195 9.23047H11.5117C11.0493 9.23047 10.6748 8.86331 10.6748 8.41016C10.6749 7.95705 11.0494 7.58984 11.5117 7.58984H11.5195Z" fill="#251455"/>
</svg>
