<svg width="16" height="16" viewBox="0 0 16 16" fill="none" xmlns="http://www.w3.org/2000/svg">
<path fill-rule="evenodd" clip-rule="evenodd" d="M9.84856 2.83822L9.93825 2.74853C10.3405 2.34633 10.9909 2.35011 11.391 2.75022L13.2495 4.6087C13.6496 5.00882 13.6534 5.65923 13.2512 6.06144L13.1615 6.15112C13.4457 6.67087 13.7846 7.4081 14.0499 8.24905C14.3777 9.28763 14.6054 10.5223 14.4502 11.7177C14.4235 11.9231 14.273 12.0907 14.0717 12.1394C13.8704 12.188 13.66 12.1075 13.5425 11.9369C12.7031 10.7181 12.2304 10.044 10.8374 8.46039C10.4343 8.7624 9.86096 8.72723 9.49595 8.36222L7.63745 6.50374C7.27244 6.13873 7.23726 5.56541 7.53926 5.16226C5.95572 3.7693 5.28161 3.29666 4.06274 2.45724C3.89219 2.33978 3.8117 2.12935 3.86031 1.92806C3.90893 1.72677 4.0766 1.57627 4.28196 1.54961C5.47737 1.3944 6.71206 1.62211 7.75065 1.94982C8.59159 2.21516 9.3288 2.55399 9.84856 2.83822ZM8.23995 4.44681L9.10815 3.57862C8.66621 3.35507 8.09192 3.1061 7.44974 2.90347C6.96769 2.75137 6.45687 2.6284 5.94187 2.5597C6.58329 3.03398 7.23738 3.56371 8.23995 4.44681ZM11.5529 7.75972C12.436 8.7623 12.9658 9.4164 13.4401 10.0578C13.3714 9.54284 13.2484 9.03202 13.0963 8.54997C12.8937 7.90776 12.6447 7.33346 12.4211 6.89151L11.5529 7.75972ZM10.6839 3.45733C10.6713 3.44471 10.654 3.44698 10.6454 3.45564L8.34286 5.75811C8.3342 5.76677 8.33193 5.78401 8.34455 5.79663L10.2031 7.65511C10.2157 7.66773 10.2329 7.66546 10.2416 7.6568L12.5441 5.35433C12.5527 5.34567 12.555 5.32843 12.5424 5.31581L10.6839 3.45733ZM7.33538 7.25841C7.53064 7.45367 7.53064 7.77025 7.33537 7.96551L2.63576 12.6651C2.45592 12.8449 2.4494 13.1521 2.64855 13.3512C2.84771 13.5504 3.15485 13.5439 3.33471 13.364L8.03432 8.66444C8.22958 8.46918 8.54616 8.46918 8.74142 8.66444C8.93668 8.8597 8.93668 9.17629 8.74142 9.37155L4.04181 14.0711C3.45925 14.6537 2.51883 14.6357 1.94145 14.0583C1.36407 13.4809 1.3461 12.5405 1.92866 11.958L6.62827 7.2584C6.82353 7.06314 7.14011 7.06314 7.33538 7.25841Z" fill="#251455"/>
</svg>
