<svg width="18" height="18" viewBox="0 0 18 18" fill="none" xmlns="http://www.w3.org/2000/svg">
<path d="M5.25 11.3438C6.28553 11.3438 7.125 12.1832 7.125 13.2188C7.125 14.2543 6.28553 15.0937 5.25 15.0938C4.21447 15.0938 3.375 14.2543 3.375 13.2188C3.375 12.1832 4.21447 11.3438 5.25 11.3438ZM12.75 11.3438C13.7855 11.3438 14.625 12.1832 14.625 13.2188C14.625 14.2543 13.7855 15.0937 12.75 15.0938C11.7145 15.0938 10.875 14.2543 10.875 13.2188C10.875 12.1832 11.7145 11.3438 12.75 11.3438ZM9.69434 2.90625C10.2435 2.90624 10.71 2.90629 11.0986 2.94727C11.5141 2.9911 11.8934 3.08586 12.2578 3.30566C12.6177 3.52279 12.8893 3.81784 13.1445 4.16992C13.3886 4.5066 13.6648 4.96717 13.9785 5.49121C14.3962 6.18888 14.8927 6.72507 15.4814 7.15527C16.0777 7.59035 16.5588 7.94116 16.8232 8.51563C16.9582 8.80896 17.0137 9.10667 17.0391 9.42285C17.053 9.59663 17.0583 9.79086 17.0605 10.0059C17.0625 10.1935 17.0636 10.2873 17.0049 10.3467C16.9462 10.406 16.8515 10.4063 16.6621 10.4063L16.3125 10.4063C16.0018 10.4063 15.75 10.6581 15.75 10.9688C15.75 11.2794 16.0018 11.5313 16.3125 11.5313H16.6328C16.8329 11.5313 16.9326 11.5316 16.9922 11.5977C17.0518 11.6638 17.0421 11.7577 17.0225 11.9463C17.0215 11.9558 17.0206 11.9653 17.0195 11.9746C16.9738 12.3764 16.87 12.7787 16.5859 13.1211C16.4175 13.3042 16.2108 13.4527 15.9932 13.5586C15.9798 13.5651 15.9731 13.5684 15.9512 13.5752C15.7845 13.6267 15.593 13.5063 15.5664 13.334C15.5629 13.3113 15.5625 13.2804 15.5625 13.2188C15.5625 11.6655 14.3033 10.4063 12.75 10.4063C11.1967 10.4063 9.9375 11.6655 9.9375 13.2188C9.9375 13.437 9.93701 13.5463 9.91016 13.6055C9.87624 13.68 9.83635 13.721 9.76172 13.7549C9.70261 13.7817 9.61081 13.7812 9.42773 13.7813H8.57227C8.38919 13.7813 8.29739 13.7817 8.23828 13.7549C8.16364 13.721 8.12376 13.68 8.08984 13.6055C8.06299 13.5463 8.0625 13.437 8.0625 13.2188C8.0625 11.6655 6.8033 10.4063 5.25 10.4063C3.6967 10.4062 2.4375 11.6655 2.4375 13.2188C2.4375 13.4368 2.23376 13.6051 2.04492 13.4961C1.90611 13.4159 1.76275 13.3201 1.60352 13.2139L1.55762 13.1826C1.41017 13.0843 1.22057 12.9507 1.09375 12.7383C0.959346 12.5132 0.937501 12.2762 0.9375 12.0674L0.9375 8.71875C0.937501 8.40809 1.18934 8.15625 1.5 8.15625L8.1377 8.15625C8.27899 8.15625 8.34964 8.15622 8.39355 8.1123C8.43747 8.06839 8.4375 7.99774 8.4375 7.85645L8.4375 3.63086C8.4376 3.43872 8.51374 3.25403 8.64844 3.11816C8.78319 2.98247 8.96583 2.90625 9.15625 2.90625H9.69434ZM10.1006 4.35742C10.071 4.3573 10.0425 4.3627 10.0166 4.37305C9.98713 4.38482 9.97241 4.39092 9.94727 4.44434C9.92212 4.49779 9.93223 4.5307 9.95312 4.5957L10.375 5.90625C10.5838 6.55592 10.7286 7.00602 10.8721 7.34082C11.0128 7.66932 11.129 7.82825 11.2471 7.92773C11.3555 8.01903 11.4897 8.0805 11.751 8.11621C12.0344 8.1549 12.4044 8.15625 12.9727 8.15625H13.5293C13.8855 8.15625 14.0638 8.15608 14.1025 8.06445C14.141 7.97286 14.0118 7.83943 13.7529 7.57324C13.3753 7.18495 13.054 6.75064 12.749 6.24121C12.4148 5.683 12.1875 5.30427 11.9854 5.02539C11.7901 4.75612 11.652 4.62911 11.5205 4.5498C11.3935 4.47323 11.2369 4.41992 10.9502 4.38965C10.7278 4.36619 10.4593 4.35942 10.1006 4.35742Z" fill="white"/>
</svg>
