<svg width="18" height="18" viewBox="0 0 18 18" fill="none" xmlns="http://www.w3.org/2000/svg">
<path d="M9.52441 2.81226C10.7941 2.81226 11.4932 2.81275 12.1396 3.19897C12.7726 3.5777 13.1397 4.18494 13.8701 5.39526C14.3246 6.14751 14.7852 6.66176 15.4092 7.11401C16.135 7.63962 16.5731 7.95679 16.8281 8.50562C17.0606 9.00587 17.0605 9.5403 17.0605 10.5085V10.8982C17.056 11.9593 17.014 12.5858 16.6084 13.071C16.6062 13.0732 16.6047 13.0757 16.6025 13.0779C16.5839 13.0996 16.5672 13.1185 16.5508 13.1365C16.1171 13.604 15.5913 13.67 14.7334 13.6804C14.49 14.5484 13.6935 15.1873 12.749 15.1873C11.8067 15.1872 11.0117 14.5513 10.7666 13.6863L7.23535 13.6863C6.99011 14.5513 6.19436 15.1873 5.25195 15.1873C4.31069 15.1872 3.51655 14.5527 3.27051 13.6892C2.95688 13.6824 2.61931 13.6565 2.41406 13.5789C2.41063 13.5775 2.40711 13.5763 2.4043 13.575C2.14421 13.4708 1.86435 13.2851 1.66113 13.1501L1.63867 13.1345C1.46017 13.0265 0.969102 12.7209 0.954102 12.1697C0.928614 11.7864 0.939152 9.77987 0.941406 9.37183L0.941406 8.6814C0.9242 8.47009 1.01979 8.32444 1.08203 8.25464C1.26203 8.05064 1.48075 8.05558 1.65625 8.05933C1.69599 8.06008 1.74728 8.06151 1.8125 8.06226L8.43945 8.06226L8.43945 3.38843C8.4387 3.34793 8.44172 3.30731 8.44922 3.26831C8.46501 3.18524 8.49896 3.1086 8.54688 3.04272C8.59412 2.97749 8.65676 2.92306 8.72949 2.88257C8.78574 2.85182 8.84806 2.82959 8.91406 2.81909C8.94774 2.81386 8.98074 2.81151 9.01367 2.81226H9.52441ZM5.25195 12.1873C4.73538 12.1873 4.31561 12.6082 4.31543 13.1248C4.31543 13.6415 4.73527 14.0622 5.25195 14.0623C5.76718 14.0623 6.18601 13.6443 6.18848 13.1296V13.1169C6.18408 12.6039 5.76598 12.1873 5.25195 12.1873ZM12.749 12.1873C12.2324 12.1873 11.8127 12.6082 11.8125 13.1248C11.8125 13.6415 12.2323 14.0622 12.749 14.0623C13.2658 14.0623 13.6865 13.6415 13.6865 13.1248C13.6863 12.6082 13.2657 12.1873 12.749 12.1873ZM2.06543 9.18726V9.37378C2.05868 10.5335 2.05901 11.8227 2.07324 12.0681C2.09723 12.0891 2.14267 12.1265 2.22656 12.1775C2.23327 12.1812 2.24012 12.1857 2.24609 12.1902L2.2793 12.2117C2.42105 12.3054 2.65777 12.4624 2.81152 12.5261C2.87615 12.5444 3.05505 12.557 3.26953 12.5623C3.51509 11.698 4.31016 11.0623 5.25195 11.0623C6.19339 11.0623 6.98825 11.6976 7.23437 12.5613L8.4375 12.5613V9.18628L2.25195 9.18628C2.25195 9.18628 2.17169 9.18651 2.06543 9.18726ZM9.5625 12.5613H10.7676C11.0135 11.6976 11.8077 11.0623 12.749 11.0623C13.689 11.0623 14.4831 11.6956 14.7305 12.5574C15.3372 12.5501 15.5879 12.5188 15.7207 12.3757C15.7267 12.369 15.7376 12.3572 15.748 12.3445C15.868 12.2012 15.911 11.8997 15.9268 11.4363H15.748C15.4376 11.4363 15.1856 11.1843 15.1855 10.8738C15.1855 10.5633 15.4375 10.3113 15.748 10.3113H15.9355C15.9355 9.76603 15.9283 9.41861 15.8721 9.17261C15.8324 9.18156 15.7907 9.18627 15.748 9.18628L12.9717 9.18628C11.8084 9.18628 11.1065 9.18587 10.5215 8.69312C10.0872 8.32712 9.8565 7.82092 9.5625 6.95093L9.5625 12.5613ZM10.376 5.81226C10.7419 6.94991 10.9428 7.57645 11.248 7.83374C11.5083 8.05272 11.9386 8.06225 12.9727 8.06226L14.8018 8.06226C14.7853 8.05026 14.7673 8.03692 14.75 8.02417C13.9965 7.47827 13.4458 6.86581 12.9082 5.97729C12.2737 4.92654 11.9557 4.39932 11.5635 4.16382C11.2252 3.96134 10.7769 3.93951 9.77344 3.93726L10.376 5.81226Z" fill="#251455"/>
<path d="M9.52441 2.81226C10.7941 2.81226 11.4932 2.81275 12.1396 3.19897C12.7726 3.5777 13.1397 4.18494 13.8701 5.39526C14.3246 6.14751 14.7852 6.66176 15.4092 7.11401C16.135 7.63962 16.5731 7.95679 16.8281 8.50562C17.0606 9.00587 17.0605 9.5403 17.0605 10.5085V10.8982C17.056 11.9593 17.014 12.5858 16.6084 13.071C16.6062 13.0732 16.6047 13.0757 16.6025 13.0779C16.5839 13.0996 16.5672 13.1185 16.5508 13.1365C16.1171 13.604 15.5913 13.67 14.7334 13.6804C14.49 14.5484 13.6935 15.1873 12.749 15.1873C11.8067 15.1872 11.0117 14.5513 10.7666 13.6863L7.23535 13.6863C6.99011 14.5513 6.19436 15.1873 5.25195 15.1873C4.31069 15.1872 3.51655 14.5527 3.27051 13.6892C2.95688 13.6824 2.61931 13.6565 2.41406 13.5789C2.41063 13.5775 2.40711 13.5763 2.4043 13.575C2.14421 13.4708 1.86435 13.2851 1.66113 13.1501L1.63867 13.1345C1.46017 13.0265 0.969102 12.7209 0.954102 12.1697C0.928614 11.7864 0.939152 9.77987 0.941406 9.37183L0.941406 8.6814C0.9242 8.47009 1.01979 8.32444 1.08203 8.25464C1.26203 8.05064 1.48075 8.05558 1.65625 8.05933C1.69599 8.06008 1.74728 8.06151 1.8125 8.06226L8.43945 8.06226L8.43945 3.38843C8.4387 3.34793 8.44172 3.30731 8.44922 3.26831C8.46501 3.18524 8.49896 3.1086 8.54688 3.04272C8.59412 2.97749 8.65676 2.92306 8.72949 2.88257C8.78574 2.85182 8.84806 2.82959 8.91406 2.81909C8.94774 2.81386 8.98074 2.81151 9.01367 2.81226H9.52441ZM5.25195 12.1873C4.73538 12.1873 4.31561 12.6082 4.31543 13.1248C4.31543 13.6415 4.73527 14.0622 5.25195 14.0623C5.76718 14.0623 6.18601 13.6443 6.18848 13.1296V13.1169C6.18408 12.6039 5.76598 12.1873 5.25195 12.1873ZM12.749 12.1873C12.2324 12.1873 11.8127 12.6082 11.8125 13.1248C11.8125 13.6415 12.2323 14.0622 12.749 14.0623C13.2658 14.0623 13.6865 13.6415 13.6865 13.1248C13.6863 12.6082 13.2657 12.1873 12.749 12.1873ZM2.06543 9.18726V9.37378C2.05868 10.5335 2.05901 11.8227 2.07324 12.0681C2.09723 12.0891 2.14267 12.1265 2.22656 12.1775C2.23327 12.1812 2.24012 12.1857 2.24609 12.1902L2.2793 12.2117C2.42105 12.3054 2.65777 12.4624 2.81152 12.5261C2.87615 12.5444 3.05505 12.557 3.26953 12.5623C3.51509 11.698 4.31016 11.0623 5.25195 11.0623C6.19339 11.0623 6.98825 11.6976 7.23437 12.5613L8.4375 12.5613V9.18628L2.25195 9.18628C2.25195 9.18628 2.17169 9.18651 2.06543 9.18726ZM9.5625 12.5613H10.7676C11.0135 11.6976 11.8077 11.0623 12.749 11.0623C13.689 11.0623 14.4831 11.6956 14.7305 12.5574C15.3372 12.5501 15.5879 12.5188 15.7207 12.3757C15.7267 12.369 15.7376 12.3572 15.748 12.3445C15.868 12.2012 15.911 11.8997 15.9268 11.4363H15.748C15.4376 11.4363 15.1856 11.1843 15.1855 10.8738C15.1855 10.5633 15.4375 10.3113 15.748 10.3113H15.9355C15.9355 9.76603 15.9283 9.41861 15.8721 9.17261C15.8324 9.18156 15.7907 9.18627 15.748 9.18628L12.9717 9.18628C11.8084 9.18628 11.1065 9.18587 10.5215 8.69312C10.0872 8.32712 9.8565 7.82092 9.5625 6.95093L9.5625 12.5613ZM10.376 5.81226C10.7419 6.94991 10.9428 7.57645 11.248 7.83374C11.5083 8.05272 11.9386 8.06225 12.9727 8.06226L14.8018 8.06226C14.7853 8.05026 14.7673 8.03692 14.75 8.02417C13.9965 7.47827 13.4458 6.86581 12.9082 5.97729C12.2737 4.92654 11.9557 4.39932 11.5635 4.16382C11.2252 3.96134 10.7769 3.93951 9.77344 3.93726L10.376 5.81226Z" fill="#251455"/>
</svg>
