<svg width="18" height="18" viewBox="0 0 18 18" fill="none" xmlns="http://www.w3.org/2000/svg">
<path d="M9.22461 11.0498C9.33545 10.7596 9.66096 10.6138 9.95117 10.7246C10.2412 10.8356 10.3862 11.1611 10.2754 11.4512C9.79626 12.7054 9.06753 13.3973 8.18262 13.7432C7.36337 14.0633 6.45562 14.0626 5.67383 14.0625C5.65753 14.0625 5.64119 14.0625 5.625 14.0625C4.78492 14.0625 4.08061 14.07 3.47754 14.3057C2.92313 14.5223 2.40562 14.9557 2.02539 15.9512C1.91446 16.2411 1.58983 16.386 1.2998 16.2754C1.0097 16.1646 0.863989 15.8399 0.974609 15.5498C1.45366 14.2956 2.18257 13.6037 3.06738 13.2578C3.88657 12.9377 4.79442 12.9374 5.57617 12.9375C5.59245 12.9375 5.60884 12.9375 5.625 12.9375C6.46493 12.9375 7.16946 12.9308 7.77246 12.6953C8.32682 12.4787 8.84439 12.0451 9.22461 11.0498ZM5.625 6.9375C6.97117 6.93753 8.0625 8.02882 8.0625 9.375C8.0625 10.7212 6.97117 11.8125 5.625 11.8125C4.27881 11.8125 3.1875 10.7212 3.1875 9.375C3.1875 8.02881 4.27881 6.9375 5.625 6.9375ZM12.791 1.6875C13.6404 1.68748 14.3347 1.68711 14.8828 1.76074C15.4558 1.83778 15.9531 2.00485 16.3496 2.40137C16.746 2.79779 16.9132 3.29441 16.9902 3.86719C17.0639 4.41533 17.0635 5.11034 17.0635 5.95996V7.54004C17.0635 8.38966 17.0639 9.08467 16.9902 9.63281C16.9132 10.2056 16.746 10.7022 16.3496 11.0986C15.9531 11.4952 15.4558 11.6622 14.8828 11.7393C14.3347 11.8129 13.6404 11.8125 12.791 11.8125H11.625C11.3143 11.8125 11.0625 11.5607 11.0625 11.25C11.0625 10.9393 11.3143 10.6875 11.625 10.6875H12.751C13.6507 10.6875 14.269 10.6865 14.7334 10.624C15.1816 10.5638 15.4011 10.4554 15.5537 10.3027C15.7064 10.1501 15.8147 9.93061 15.875 9.48242C15.9374 9.01803 15.9385 8.39976 15.9385 7.5V6C15.9385 5.10024 15.9374 4.48197 15.875 4.01758C15.8147 3.56939 15.7064 3.34992 15.5537 3.19727C15.4011 3.04461 15.1816 2.93624 14.7334 2.87598C14.269 2.81354 13.6507 2.8125 12.751 2.8125L9.75098 2.8125C8.85125 2.8125 8.23294 2.81355 7.76855 2.87598C7.32037 2.93623 7.1009 3.04463 6.94824 3.19727C6.81755 3.32796 6.7212 3.50562 6.6582 3.82715C6.59213 4.16445 6.57087 4.61298 6.56543 5.25488C6.56274 5.56548 6.30866 5.81513 5.99805 5.8125C5.68743 5.80983 5.4378 5.55575 5.44043 5.24512C5.44584 4.60734 5.46528 4.06303 5.55371 3.61133C5.64529 3.14382 5.81774 2.73597 6.15234 2.40137C6.54878 2.00495 7.04537 1.83779 7.61816 1.76074C8.16631 1.68705 8.86131 1.68748 9.71094 1.6875L12.791 1.6875ZM5.625 8.0625C4.90013 8.0625 4.3125 8.65013 4.3125 9.375C4.3125 10.0999 4.90013 10.6875 5.625 10.6875C6.34985 10.6875 6.9375 10.0999 6.9375 9.375C6.9375 8.65015 6.34985 8.06253 5.625 8.0625ZM13.5 7.6875C13.8106 7.68753 14.0625 7.93936 14.0625 8.25C14.0625 8.56064 13.8106 8.81247 13.5 8.8125L11.25 8.8125C10.9393 8.8125 10.6875 8.56066 10.6875 8.25C10.6875 7.93934 10.9393 7.6875 11.25 7.6875L13.5 7.6875ZM13.5 4.6875C13.8106 4.68753 14.0625 4.93936 14.0625 5.25C14.0625 5.56064 13.8106 5.81247 13.5 5.8125L9 5.8125C8.68934 5.8125 8.4375 5.56066 8.4375 5.25C8.4375 4.93934 8.68934 4.6875 9 4.6875L13.5 4.6875Z" fill="#251455"/>
</svg>
