<svg width="18" height="18" viewBox="0 0 18 18" fill="none" xmlns="http://www.w3.org/2000/svg">
<path d="M4.79199 9.66699C6.86306 9.66699 8.54199 11.3459 8.54199 13.417C8.54199 15.4881 6.86306 17.167 4.79199 17.167C2.72092 17.167 1.04199 15.4881 1.04199 13.417C1.04199 11.3459 2.72092 9.66699 4.79199 9.66699ZM13.417 9.66699C15.4881 9.66699 17.167 11.3459 17.167 13.417C17.167 15.4881 15.4881 17.167 13.417 17.167C11.3459 17.167 9.66699 15.4881 9.66699 13.417C9.66699 11.3459 11.3459 9.66699 13.417 9.66699ZM4.79199 10.792C3.34224 10.792 2.16699 11.9672 2.16699 13.417C2.16699 14.8667 3.34224 16.042 4.79199 16.042C6.24174 16.042 7.41699 14.8667 7.41699 13.417C7.41699 11.9672 6.24174 10.792 4.79199 10.792ZM13.417 10.792C11.9672 10.792 10.792 11.9672 10.792 13.417C10.792 14.8667 11.9672 16.042 13.417 16.042C14.8667 16.042 16.042 14.8667 16.042 13.417C16.042 11.9672 14.8667 10.792 13.417 10.792ZM4.79199 1.04199C6.86306 1.04199 8.54199 2.72092 8.54199 4.79199C8.54199 6.86306 6.86306 8.54199 4.79199 8.54199C2.72092 8.54199 1.04199 6.86306 1.04199 4.79199C1.04199 2.72092 2.72092 1.04199 4.79199 1.04199ZM13.417 1.04199C15.4881 1.04199 17.167 2.72092 17.167 4.79199C17.167 6.86306 15.4881 8.54199 13.417 8.54199C11.3459 8.54199 9.66699 6.86306 9.66699 4.79199C9.66699 2.72092 11.3459 1.04199 13.417 1.04199ZM4.79199 2.16699C3.34224 2.16699 2.16699 3.34224 2.16699 4.79199C2.16699 6.24174 3.34224 7.41699 4.79199 7.41699C6.24174 7.41699 7.41699 6.24174 7.41699 4.79199C7.41699 3.34224 6.24174 2.16699 4.79199 2.16699ZM13.417 2.16699C11.9672 2.16699 10.792 3.34224 10.792 4.79199C10.792 6.24174 11.9672 7.41699 13.417 7.41699C14.8667 7.41699 16.042 6.24174 16.042 4.79199C16.042 3.34224 14.8667 2.16699 13.417 2.16699Z" fill="#251455"/>
</svg>
