<svg width="24" height="24" viewBox="0 0 24 24" fill="none" xmlns="http://www.w3.org/2000/svg">
<path d="M14.6497 10.2927C15.5377 10.2358 16.4636 10.2359 17.3499 10.2927C20.2226 10.477 22.5332 12.7203 22.7239 15.5642C22.7583 16.0782 22.7583 16.6098 22.7239 17.1238C22.6523 18.1927 22.1745 19.1395 21.6643 19.8865C21.6384 19.9415 21.6223 20.0268 21.6467 20.1707C21.6753 20.3389 21.754 20.5433 21.8782 20.7703C21.8839 20.7808 21.8899 20.7917 21.8958 20.8025C21.9852 20.9657 22.088 21.1535 22.1497 21.3201C22.217 21.5018 22.3158 21.8679 22.092 22.2361C21.8936 22.5626 21.5824 22.6697 21.3733 22.7087C21.2066 22.7399 21.009 22.7443 20.8518 22.7478C20.8403 22.7481 20.8287 22.7485 20.8176 22.7488C19.9028 22.7702 19.2419 22.5135 18.7161 22.1394C18.6866 22.1184 18.66 22.0988 18.636 22.0818C18.5884 22.1004 18.5345 22.1229 18.4709 22.1482C18.1155 22.2894 17.7159 22.3718 17.3499 22.3953C16.4636 22.4521 15.5377 22.4522 14.6497 22.3953C11.7768 22.211 9.46612 19.9678 9.27563 17.1238C9.24121 16.6098 9.24121 16.0782 9.27563 15.5642C9.46626 12.7203 11.7769 10.477 14.6497 10.2927ZM17.2542 11.7898C16.4316 11.737 15.5696 11.7369 14.7454 11.7898C12.5987 11.9276 10.9112 13.5967 10.7727 15.6648C10.7428 16.1119 10.7428 16.576 10.7727 17.0232C10.9112 19.0913 12.5987 20.7604 14.7454 20.8982C15.5696 20.9511 16.4316 20.9509 17.2542 20.8982C17.4765 20.8839 17.7193 20.8319 17.9163 20.7537L17.9329 20.7468C18.0721 20.6915 18.2028 20.6399 18.3079 20.6042C18.3099 20.6036 18.3124 20.6031 18.3147 20.6023C18.3918 20.576 18.5975 20.5056 18.8206 20.532C19.0404 20.5581 19.2134 20.665 19.2834 20.7087C19.3694 20.7624 19.4703 20.8347 19.5706 20.906L19.5852 20.9167C19.7982 21.0683 20.0561 21.1936 20.4329 21.2351C20.169 20.6707 19.9469 19.866 20.3723 19.1228C20.3826 19.1048 20.3937 19.0872 20.4055 19.0701C20.8517 18.4236 21.1807 17.7264 21.2278 17.0232C21.2577 16.5761 21.2577 16.1119 21.2278 15.6648C21.0893 13.5966 19.4009 11.9275 17.2542 11.7898ZM9.40356 1.31909C10.7921 1.22724 12.2436 1.22704 13.635 1.31909C17.9791 1.60658 21.4337 5.08396 21.7444 9.44702C21.7736 9.85995 21.4629 10.2182 21.05 10.2478C20.6369 10.2772 20.2778 9.96654 20.2483 9.55347C19.99 5.92655 17.1211 3.05337 13.5354 2.81616C12.2101 2.7285 10.8248 2.72866 9.5022 2.81616C5.90145 3.05446 3.02351 5.95076 2.78638 9.59937C2.73741 10.3535 2.73741 11.1362 2.78638 11.8904C2.86943 13.1683 3.44323 14.3944 4.1731 15.4851C4.18455 15.5022 4.19531 15.5198 4.20532 15.5378C4.8529 16.7047 4.37637 18.0312 3.90063 18.9285C3.83637 19.0497 3.78136 19.1527 3.73462 19.2439C3.79084 19.2456 3.85251 19.2471 3.92114 19.2488C4.93099 19.2732 5.56889 18.9953 6.07642 18.6228L6.09399 18.6101C6.25876 18.4892 6.40954 18.379 6.53442 18.2986C6.64232 18.2291 6.84462 18.1024 7.09204 18.072C7.31559 18.0447 7.52124 18.1052 7.6272 18.1384C7.75759 18.1794 7.9097 18.239 8.07153 18.3044C8.45552 18.4596 8.64169 18.897 8.48657 19.281C8.33136 19.665 7.89403 19.8503 7.51001 19.6951C7.41284 19.6558 7.33743 19.6271 7.27856 19.6052C7.20372 19.657 7.10476 19.7286 6.96411 19.8318C6.2037 20.3898 5.24397 20.7807 3.88501 20.7478C3.87024 20.7474 3.85501 20.7472 3.84009 20.7468C3.58052 20.7407 3.29989 20.7344 3.07056 20.6902C2.79327 20.6367 2.44409 20.5016 2.22485 20.1296C1.98524 19.723 2.08251 19.3127 2.1731 19.0603C2.25837 18.8228 2.40552 18.5451 2.55396 18.2654C2.56099 18.2521 2.5684 18.2386 2.57544 18.2253C3.018 17.3906 3.13196 16.7248 2.90649 16.2888C2.11283 15.0961 1.3965 13.6227 1.29028 11.9871C1.23712 11.1683 1.23712 10.3215 1.29028 9.50269C1.57531 5.11341 5.04079 1.60771 9.40356 1.31909Z" fill="#161616"/>
</svg>
