<svg width="16" height="16" viewBox="0 0 16 16" fill="none" xmlns="http://www.w3.org/2000/svg">
<path d="M7.09738 0.868631C7.24243 0.810957 7.4061 0.824339 7.53986 0.90481C10.3838 2.61574 13.0108 5.53742 13.8714 8.35381C14.3052 9.7737 14.3037 11.2198 13.5807 12.4601C12.8583 13.6995 11.4741 14.6325 9.35685 15.1522C9.14464 15.2043 8.92318 15.1125 8.80998 14.9256C8.69678 14.7387 8.71807 14.4999 8.86255 14.336C9.72851 13.3534 10.4937 12.2051 10.6053 10.9957C10.6902 10.075 10.4015 9.03171 9.29304 7.92183C9.30111 9.10298 8.8462 10.0866 8.38791 10.6491C8.26565 10.7991 8.06777 10.8651 7.87991 10.8185C7.69204 10.7719 7.54795 10.6211 7.50999 10.4313C7.3268 9.51533 6.80636 9.11185 6.2521 8.82776C6.21453 9.60827 5.8741 10.17 5.62634 10.5789C5.55636 10.6944 5.49378 10.7976 5.4475 10.8902C4.71033 12.3645 5.60288 13.4345 6.22041 14.1749L6.22042 14.1749C6.27117 14.2357 6.32006 14.2943 6.36603 14.3508C6.50854 14.5257 6.51626 14.7743 6.38489 14.9577C6.25351 15.1412 6.01558 15.2139 5.80412 15.1352C3.89485 14.4252 2.54447 13.0951 2.04447 11.4723C1.54139 9.83943 1.92707 7.99989 3.31372 6.34541C3.75855 5.81466 4.14722 5.37442 4.48945 4.98677C5.69331 3.62313 6.32253 2.9104 6.80054 1.19877C6.84252 1.04842 6.95232 0.926305 7.09738 0.868631Z" fill="#DB2627"/>
</svg>
