<svg width="16" height="16" viewBox="0 0 16 16" fill="none" xmlns="http://www.w3.org/2000/svg">
<path d="M1.33301 7.59961C1.33303 7.2524 1.3575 6.91064 1.40332 6.57617C1.45333 6.21143 1.78954 5.9559 2.1543 6.00586C2.51876 6.05602 2.77342 6.3923 2.72363 6.75684C2.68602 7.03146 2.66701 7.31304 2.66699 7.59961C2.66699 10.8072 5.09436 13.333 8 13.333C10.9056 13.333 13.333 10.8072 13.333 7.59961C13.333 7.31304 13.314 7.03145 13.2764 6.75684C13.2266 6.3923 13.4812 6.05602 13.8457 6.00586C14.2105 5.9559 14.5467 6.21143 14.5967 6.57617C14.6425 6.91065 14.667 7.2524 14.667 7.59961C14.667 11.4612 11.7218 14.667 8 14.667C4.27823 14.667 1.33301 11.4612 1.33301 7.59961ZM5.8623 7.47168C5.67166 7.28104 5.61463 6.99421 5.71777 6.74512C5.82092 6.49611 6.0635 6.33315 6.33301 6.33301H7.33301V2C7.33301 1.63182 7.63182 1.33302 8 1.33301C8.36819 1.33301 8.66699 1.63181 8.66699 2V6.33301H9.66699C9.93651 6.33313 10.1791 6.49609 10.2822 6.74512C10.3854 6.99422 10.3283 7.28103 10.1377 7.47168L8.47168 9.1377C8.21133 9.39805 7.78867 9.39805 7.52832 9.1377L5.8623 7.47168Z" fill="#7464A1"/>
</svg>
