<svg width="16" height="16" viewBox="0 0 16 16" fill="none" xmlns="http://www.w3.org/2000/svg">
<path d="M10.4463 5.95361C10.8466 5.9536 11.1867 5.95359 11.4686 5.98123C11.7686 6.01064 12.0466 6.0744 12.3128 6.22774C12.5789 6.38102 12.7731 6.58904 12.9486 6.8334C13.1132 7.06276 13.2827 7.35584 13.4819 7.70046L13.4819 7.7005C13.5571 7.83049 13.6628 8.01394 13.7377 8.1444C13.8612 8.35942 13.9838 8.57289 14.0553 8.75724C14.1335 8.95862 14.2092 9.27078 14.0273 9.58353C13.8451 9.89666 13.5352 9.98508 13.3222 10.0171C13.1259 10.0466 12.8783 10.0465 12.6278 10.0465H3.37245C3.12191 10.0465 2.87434 10.0466 2.67797 10.0171C2.46501 9.98508 2.15508 9.89666 1.97295 9.58353C1.79104 9.27078 1.86673 8.95862 1.94489 8.75724C2.01644 8.57288 2.13902 8.35942 2.26249 8.1444C2.33737 8.01393 2.44309 7.83049 2.51826 7.7005C2.71752 7.35586 2.88699 7.06277 3.05166 6.83339C3.22707 6.58904 3.42135 6.38102 3.68744 6.22774C3.95363 6.0744 4.23162 6.01064 4.53162 5.98123C4.81356 5.95359 5.15359 5.9536 5.55395 5.95361H5.55397H10.4462H10.4463Z" fill="#C98905"/>
<path opacity="0.4" d="M13.7246 11.1631C13.9233 11.1631 14.114 11.1623 14.2764 11.1797C14.4596 11.1994 14.65 11.2449 14.8359 11.3613C15.1577 11.5628 15.3487 11.9611 15.4912 12.2578C15.9505 13.2044 16.2326 14.1001 15.7451 14.9004C15.3593 15.5338 14.6885 15.7784 13.9131 15.8896C13.1491 15.9993 12.1253 16 10.8438 16H5.15723C3.8757 16 2.85091 15.9993 2.08691 15.8896C1.31172 15.7784 0.640653 15.5337 0.254883 14.9004C-0.232383 14.1002 0.0495581 13.2042 0.508789 12.2578C0.651284 11.9612 0.842506 11.5629 1.16406 11.3613C1.34986 11.245 1.54051 11.1994 1.72363 11.1797C1.88596 11.1623 2.07666 11.1631 2.27539 11.1631H13.7246ZM8 0C8.49695 0 8.9289 0.19958 9.31055 0.506836C9.68328 0.80694 10.0313 1.22887 10.3809 1.72266C10.6954 2.16692 10.9968 2.59161 11.1592 2.91992C11.331 3.26742 11.4512 3.69541 11.2266 4.13184C10.9979 4.57561 10.5634 4.72124 10.1768 4.78027C9.80488 4.837 9.3143 4.83695 8.74609 4.83691H7.25488C6.68633 4.83695 6.19524 4.83707 5.82324 4.78027C5.43662 4.72124 5.0031 4.57558 4.77441 4.13184C4.54959 3.69526 4.66992 3.26751 4.8418 2.91992C5.00413 2.59167 5.30465 2.16684 5.61914 1.72266C5.96872 1.22882 6.31766 0.806945 6.69043 0.506836C7.07196 0.199723 7.50324 6.59399e-05 8 0Z" fill="#C98905"/>
</svg>
