<svg width="16" height="16" viewBox="0 0 16 16" fill="none" xmlns="http://www.w3.org/2000/svg">
<path d="M14.3985 1.69504C14.0869 1.35944 13.5983 1.23374 13.1315 1.18875C12.6411 1.14148 12.0536 1.17292 11.4212 1.25587C10.1528 1.42224 8.62049 1.80734 7.14847 2.28116C5.67553 2.75529 4.23975 3.32576 3.1645 3.8723C2.62936 4.14431 2.16522 4.41953 1.8278 4.68389C1.65979 4.81553 1.50647 4.95732 1.39115 5.10824C1.28115 5.25218 1.16542 5.45698 1.16701 5.70387C1.17119 6.35192 1.61252 6.80992 2.08251 7.11734C2.56222 7.43112 3.18698 7.66757 3.80807 7.85278C4.43582 8.03998 5.09597 8.18505 5.66348 8.30264C5.70067 8.31034 5.77501 8.32572 5.8661 8.34454C6.20915 8.41542 6.38067 8.45086 6.5419 8.4026C6.70314 8.35434 6.82709 8.23039 7.07501 7.98248L9.52891 5.52858C9.78926 5.26823 10.2114 5.26824 10.4717 5.52859C10.7321 5.78894 10.7321 6.21105 10.4717 6.4714L8.18329 8.75981C7.9306 9.0125 7.80425 9.13885 7.75643 9.30285C7.70861 9.46685 7.74717 9.64093 7.82429 9.98909C8.12329 11.3389 8.38285 12.4543 8.64186 13.2047C8.79313 13.643 8.96332 14.0224 9.17886 14.3022C9.40382 14.5942 9.70977 14.8148 10.1125 14.8326C10.3632 14.8437 10.5717 14.7292 10.7147 14.6229C10.8653 14.511 11.007 14.3609 11.1384 14.1968C11.4024 13.867 11.6798 13.4106 11.9558 12.8831C12.5105 11.8231 13.0978 10.4019 13.5948 8.93972C14.0915 7.47818 14.5055 5.95372 14.7049 4.68672C14.8043 4.05486 14.8535 3.46804 14.8262 2.9765C14.8002 2.51036 14.7009 2.02069 14.3985 1.69504Z" fill="white"/>
</svg>
