<svg width="16" height="16" viewBox="0 0 16 16" fill="none" xmlns="http://www.w3.org/2000/svg">
<path d="M6.94824 1.49854C7.5795 1.05666 8.4205 1.05666 9.05176 1.49854L14.5166 5.32373C14.924 5.60902 15.167 6.07536 15.167 6.57275C15.1669 7.27222 14.6903 7.88162 14.0117 8.05127L13.7959 8.10596L13.5225 10.8179C13.4394 11.6442 13.3727 12.3127 13.251 12.8364C13.1244 13.381 12.9252 13.834 12.5352 14.187C12.1447 14.5401 11.6729 14.6937 11.1182 14.7651C10.585 14.8338 9.91325 14.8335 9.08301 14.8335L6.91699 14.8335C6.08676 14.8335 5.41504 14.8338 4.88184 14.7651C4.32705 14.6937 3.85526 14.5401 3.46484 14.187C3.07477 13.834 2.87562 13.381 2.74902 12.8364C2.62728 12.3127 2.56064 11.6442 2.47754 10.8179L2.2041 8.10596L1.98828 8.05127C1.30968 7.88162 0.833101 7.27222 0.833008 6.57275C0.833008 6.07536 1.07597 5.60902 1.4834 5.32373L6.94824 1.49854ZM10.3945 10.3599C10.225 10.1421 9.91125 10.1027 9.69336 10.272C9.24972 10.6173 8.6576 10.8335 8 10.8335C7.34252 10.8335 6.75123 10.6172 6.30762 10.272C6.08971 10.1024 5.77509 10.142 5.60547 10.3599C5.43601 10.5778 5.47551 10.8915 5.69336 11.061C6.31572 11.5454 7.12403 11.8335 8 11.8335C8.87606 11.8335 9.68522 11.5455 10.3076 11.061C10.5251 10.8914 10.5639 10.5776 10.3945 10.3599Z" fill="white"/>
</svg>
