<svg width="121" height="119" viewBox="0 0 121 119" fill="none" xmlns="http://www.w3.org/2000/svg">
<g opacity="0.8">
<path d="M121 21.9249V107.044C121 108.645 119.702 109.944 118.101 109.944H44.4005C42.7992 109.944 41.501 108.645 41.501 107.044V2.89959C41.501 1.29833 42.7992 6.10352e-05 44.4005 6.10352e-05H99.0755L121 21.9249Z" fill="#F4F0FF"/>
<path d="M121 21.9249H101.54C100.178 21.9249 99.0752 20.8216 99.0752 19.4603V6.10352e-05L121 21.9249Z" fill="#F9FAFB"/>
<path d="M84.0599 90.9851H55.9852C55.2147 90.9851 54.5898 91.61 54.5898 92.3805C54.5898 93.1511 55.2147 93.7759 55.9852 93.7759H84.0599C84.8305 93.7759 85.4553 93.1511 85.4553 92.3805C85.4553 91.61 84.8305 90.9851 84.0599 90.9851Z" fill="#F9FAFB"/>
<path d="M106.516 77.387H55.9862C55.2157 77.387 54.5908 78.0119 54.5908 78.7824C54.5908 79.553 55.2157 80.1778 55.9862 80.1778H106.516C107.286 80.1778 107.911 79.553 107.911 78.7824C107.911 78.0119 107.286 77.387 106.516 77.387Z" fill="#F9FAFB"/>
<path d="M106.516 63.789H55.9862C55.2157 63.789 54.5908 64.4139 54.5908 65.1844C54.5908 65.955 55.2157 66.5798 55.9862 66.5798H106.516C107.286 66.5798 107.911 65.955 107.911 65.1844C107.911 64.4139 107.286 63.789 106.516 63.789Z" fill="#F9FAFB"/>
<path d="M106.516 50.191H55.9862C55.2157 50.191 54.5908 50.8158 54.5908 51.5864C54.5908 52.3569 55.2157 52.9818 55.9862 52.9818H106.516C107.286 52.9818 107.911 52.3569 107.911 51.5864C107.911 50.8158 107.286 50.191 106.516 50.191Z" fill="#F9FAFB"/>
<path d="M106.516 36.5929H55.9862C55.2157 36.5929 54.5908 37.2177 54.5908 37.9883C54.5908 38.7588 55.2157 39.3837 55.9862 39.3837H106.516C107.286 39.3837 107.911 38.7588 107.911 37.9883C107.911 37.2177 107.286 36.5929 106.516 36.5929Z" fill="#F9FAFB"/>
<path d="M62.3484 55.7268C70.5505 63.9288 71.9916 76.3316 66.6702 86.0095C66.054 87.1309 65.348 88.216 64.5492 89.2533C64.1396 89.7868 63.7047 90.3073 63.2466 90.814C62.9566 91.1351 62.6565 91.4505 62.3477 91.76C60.0593 94.0484 57.4424 95.8113 54.6495 97.0465C45.3028 101.184 33.9765 99.4213 26.3153 91.76C18.654 84.0987 16.8911 72.7724 21.0287 63.4258C22.2639 60.6328 24.0261 58.0167 26.3153 55.7275C26.6241 55.4187 26.9401 55.1186 27.2612 54.8287C27.7679 54.3706 28.2884 53.9363 28.8219 53.5261C29.8592 52.728 30.9436 52.0212 32.0658 51.4051C41.7437 46.0844 54.1464 47.5248 62.3484 55.7268Z" fill="#F4F0FF"/>
<path d="M27.2611 54.828L63.2472 90.814C62.9572 91.1352 62.6571 91.4505 62.3483 91.76C60.0599 94.0485 57.443 95.8114 54.6501 97.0466L21.0293 63.4258C22.2645 60.6328 24.0267 58.0167 26.3159 55.7275C26.6247 55.4187 26.9407 55.1187 27.2618 54.8287L27.2611 54.828Z" fill="white"/>
<path d="M32.0661 51.405L66.6705 86.0095C66.0544 87.1309 65.3484 88.216 64.5495 89.2533L28.8223 53.526C29.8596 52.7279 30.944 52.0212 32.0661 51.405Z" fill="white"/>
<path d="M69.4455 83.9392C70.7619 80.6924 71.4295 77.2615 71.4295 73.743C71.4295 70.2244 70.7619 66.7935 69.4455 63.5468C68.082 60.184 66.0791 57.1678 63.4927 54.5822C60.9064 51.9958 57.8901 49.9929 54.5281 48.6294C51.2814 47.313 47.8505 46.6454 44.3319 46.6454C40.8133 46.6454 37.3825 47.313 34.1357 48.6294C30.773 49.9929 27.7568 51.9958 25.1711 54.5822C22.5847 57.1685 20.5819 60.1848 19.2184 63.5468C17.902 66.7935 17.2344 70.2244 17.2344 73.743C17.2344 77.2615 17.902 80.6924 19.2184 83.9392C20.2013 86.3624 21.5155 88.6052 23.1414 90.6378L20.1883 93.591L24.4839 97.8866L27.4371 94.9334C29.4689 96.5594 31.7124 97.8736 34.1357 98.8565C37.3825 100.173 40.8133 100.841 44.3319 100.841C47.8505 100.841 51.2814 100.173 54.5281 98.8565C57.8909 97.493 60.9071 95.4902 63.4927 92.9038C66.0791 90.3174 68.082 87.3012 69.4455 83.9392ZM44.3319 97.6025C37.9588 97.6025 31.9669 95.1205 27.4603 90.6139C22.9537 86.1073 20.4717 80.1154 20.4717 73.7422C20.4717 67.3691 22.9537 61.3772 27.4603 56.8706C31.9669 52.364 37.9588 49.882 44.3319 49.882C50.7051 49.882 56.697 52.364 61.2036 56.8706C65.7102 61.3772 68.1922 67.3691 68.1922 73.7422C68.1922 80.1154 65.7102 86.1073 61.2036 90.6139C56.697 95.1205 50.7051 97.6025 44.3319 97.6025Z" fill="#251455"/>
<path d="M23.4242 100.544L6.72437 117.244C5.6153 118.353 3.81614 118.353 2.70707 117.244L0.831802 115.369C-0.277267 114.26 -0.277267 112.461 0.831802 111.352L17.5316 94.6523L18.6407 94.3935L23.7004 99.4532L23.4235 100.544H23.4242Z" fill="#251455"/>
<path d="M25.5023 98.4651L23.4241 100.543L17.5322 94.6515L19.6105 92.5733C19.9352 92.2486 20.4615 92.2486 20.7862 92.5733L25.5023 97.2894C25.8271 97.6141 25.8271 98.1404 25.5023 98.4651Z" fill="#6B39F4"/>
</g>
</svg>
