<svg width="16" height="16" viewBox="0 0 16 16" fill="none" xmlns="http://www.w3.org/2000/svg">
<path fill-rule="evenodd" clip-rule="evenodd" d="M9.84856 2.83834L9.93825 2.74865C10.3405 2.34645 10.9909 2.35024 11.391 2.75035L13.2495 4.60883C13.6496 5.00894 13.6534 5.65936 13.2512 6.06156L13.1615 6.15124C13.4457 6.67099 13.7846 7.40822 14.0499 8.24917C14.3777 9.28775 14.6054 10.5224 14.4502 11.7178C14.4235 11.9232 14.273 12.0909 14.0717 12.1395C13.8704 12.1881 13.66 12.1076 13.5425 11.9371C12.7031 10.7182 12.2304 10.0441 10.8374 8.46052C10.4343 8.76252 9.86096 8.72735 9.49595 8.36234L7.63745 6.50386C7.27244 6.13885 7.23726 5.56553 7.53926 5.16238C5.95572 3.76942 5.28161 3.29679 4.06274 2.45736C3.89219 2.33991 3.8117 2.12947 3.86031 1.92818C3.90893 1.72689 4.0766 1.5764 4.28196 1.54973C5.47737 1.39452 6.71206 1.62223 7.75065 1.94994C8.59159 2.21528 9.3288 2.55412 9.84856 2.83834ZM8.23995 4.44694L9.10815 3.57875C8.66621 3.3552 8.09192 3.10622 7.44974 2.90359C6.96769 2.75149 6.45687 2.62852 5.94187 2.55982C6.58329 3.0341 7.23738 3.56383 8.23995 4.44694ZM11.5529 7.75984C12.436 8.76242 12.9658 9.41652 13.4401 10.0579C13.3714 9.54296 13.2484 9.03214 13.0963 8.55009C12.8937 7.90788 12.6447 7.33358 12.4211 6.89163L11.5529 7.75984ZM10.6839 3.45746C10.6713 3.44483 10.654 3.4471 10.6454 3.45576L8.34286 5.75823C8.3342 5.76689 8.33193 5.78413 8.34455 5.79675L10.2031 7.65523C10.2157 7.66785 10.2329 7.66558 10.2416 7.65692L12.5441 5.35445C12.5527 5.34579 12.555 5.32856 12.5424 5.31594L10.6839 3.45746ZM7.33538 7.25853C7.53064 7.45379 7.53064 7.77038 7.33537 7.96564L2.63576 12.6652C2.45592 12.845 2.4494 13.1522 2.64855 13.3513C2.84771 13.5505 3.15486 13.544 3.33471 13.3641L8.03432 8.66456C8.22958 8.4693 8.54616 8.4693 8.74142 8.66456C8.93668 8.85983 8.93668 9.17641 8.74142 9.37167L4.04181 14.0712C3.45925 14.6538 2.51883 14.6358 1.94145 14.0584C1.36407 13.4811 1.3461 12.5406 1.92866 11.9581L6.62827 7.25853C6.82353 7.06327 7.14011 7.06327 7.33538 7.25853Z" fill="white"/>
</svg>
