<svg width="18" height="18" viewBox="0 0 18 18" fill="none" xmlns="http://www.w3.org/2000/svg">
<path d="M9.52441 2.81218C10.7941 2.81218 11.4932 2.81267 12.1396 3.1989C12.7726 3.57762 13.1397 4.18487 13.8701 5.39519C14.3246 6.14744 14.7852 6.66169 15.4092 7.11394C16.135 7.63954 16.5731 7.95672 16.8281 8.50554C17.0606 9.00579 17.0605 9.54022 17.0605 10.5085V10.8981C17.056 11.9592 17.014 12.5857 16.6084 13.071C16.6062 13.0731 16.6047 13.0756 16.6025 13.0778C16.5839 13.0995 16.5672 13.1185 16.5508 13.1364C16.1171 13.6039 15.5913 13.6699 14.7334 13.6803C14.49 14.5483 13.6935 15.1872 12.749 15.1872C11.8067 15.1871 11.0117 14.5512 10.7666 13.6862L7.23535 13.6862C6.99011 14.5513 6.19436 15.1872 5.25195 15.1872C4.31069 15.1871 3.51655 14.5526 3.27051 13.6891C2.95688 13.6823 2.61931 13.6565 2.41406 13.5788C2.41063 13.5774 2.40711 13.5762 2.4043 13.5749C2.14421 13.4707 1.86435 13.285 1.66113 13.1501L1.63867 13.1344C1.46017 13.0264 0.969102 12.7209 0.954102 12.1696C0.928614 11.7863 0.939152 9.77979 0.941406 9.37175L0.941406 8.68132C0.9242 8.47002 1.01979 8.32436 1.08203 8.25456C1.26203 8.05056 1.48075 8.0555 1.65625 8.05925C1.69599 8.06 1.74728 8.06143 1.8125 8.06218L8.43945 8.06218L8.43945 3.38835C8.4387 3.34785 8.44172 3.30723 8.44922 3.26823C8.46501 3.18516 8.49896 3.10853 8.54688 3.04265C8.59412 2.97742 8.65676 2.92299 8.72949 2.88249C8.78574 2.85174 8.84806 2.82952 8.91406 2.81902C8.94774 2.81379 8.98074 2.81143 9.01367 2.81218H9.52441ZM5.25195 12.1872C4.73538 12.1873 4.31561 12.6081 4.31543 13.1247C4.31543 13.6414 4.73527 14.0621 5.25195 14.0622C5.76718 14.0622 6.18601 13.6442 6.18848 13.1296V13.1169C6.18408 12.6039 5.76598 12.1872 5.25195 12.1872ZM12.749 12.1872C12.2324 12.1873 11.8127 12.6081 11.8125 13.1247C11.8125 13.6414 12.2323 14.0621 12.749 14.0622C13.2658 14.0622 13.6865 13.6414 13.6865 13.1247C13.6863 12.6081 13.2657 12.1872 12.749 12.1872ZM2.06543 9.18718V9.3737C2.05868 10.5334 2.05901 11.8227 2.07324 12.068C2.09723 12.089 2.14267 12.1265 2.22656 12.1774C2.23327 12.1811 2.24012 12.1856 2.24609 12.1901L2.2793 12.2116C2.42105 12.3053 2.65777 12.4623 2.81152 12.526C2.87615 12.5443 3.05505 12.5569 3.26953 12.5622C3.51509 11.6979 4.31016 11.0622 5.25195 11.0622C6.19339 11.0622 6.98825 11.6975 7.23437 12.5612L8.4375 12.5612V9.1862L2.25195 9.1862C2.25195 9.1862 2.17169 9.18643 2.06543 9.18718ZM9.5625 12.5612H10.7676C11.0135 11.6975 11.8077 11.0622 12.749 11.0622C13.689 11.0622 14.4831 11.6956 14.7305 12.5573C15.3372 12.55 15.5879 12.5188 15.7207 12.3757C15.7267 12.3689 15.7376 12.3571 15.748 12.3444C15.868 12.2011 15.911 11.8996 15.9268 11.4362H15.748C15.4376 11.4362 15.1856 11.1842 15.1855 10.8737C15.1855 10.5632 15.4375 10.3112 15.748 10.3112H15.9355C15.9355 9.76595 15.9283 9.41853 15.8721 9.17253C15.8324 9.18148 15.7907 9.1862 15.748 9.1862L12.9717 9.1862C11.8084 9.1862 11.1065 9.18579 10.5215 8.69304C10.0872 8.32704 9.8565 7.82085 9.5625 6.95085L9.5625 12.5612ZM10.376 5.81218C10.7419 6.94984 10.9428 7.57638 11.248 7.83366C11.5083 8.05264 11.9386 8.06218 12.9727 8.06218L14.8018 8.06218C14.7853 8.05018 14.7673 8.03684 14.75 8.02409C13.9965 7.4782 13.4458 6.86574 12.9082 5.97722C12.2737 4.92647 11.9557 4.39924 11.5635 4.16374C11.2252 3.96126 10.7769 3.93943 9.77344 3.93718L10.376 5.81218Z" fill="#251455"/>
<path d="M9.52441 2.81218C10.7941 2.81218 11.4932 2.81267 12.1396 3.1989C12.7726 3.57762 13.1397 4.18487 13.8701 5.39519C14.3246 6.14744 14.7852 6.66169 15.4092 7.11394C16.135 7.63954 16.5731 7.95672 16.8281 8.50554C17.0606 9.00579 17.0605 9.54022 17.0605 10.5085V10.8981C17.056 11.9592 17.014 12.5857 16.6084 13.071C16.6062 13.0731 16.6047 13.0756 16.6025 13.0778C16.5839 13.0995 16.5672 13.1185 16.5508 13.1364C16.1171 13.6039 15.5913 13.6699 14.7334 13.6803C14.49 14.5483 13.6935 15.1872 12.749 15.1872C11.8067 15.1871 11.0117 14.5512 10.7666 13.6862L7.23535 13.6862C6.99011 14.5513 6.19436 15.1872 5.25195 15.1872C4.31069 15.1871 3.51655 14.5526 3.27051 13.6891C2.95688 13.6823 2.61931 13.6565 2.41406 13.5788C2.41063 13.5774 2.40711 13.5762 2.4043 13.5749C2.14421 13.4707 1.86435 13.285 1.66113 13.1501L1.63867 13.1344C1.46017 13.0264 0.969102 12.7209 0.954102 12.1696C0.928614 11.7863 0.939152 9.77979 0.941406 9.37175L0.941406 8.68132C0.9242 8.47002 1.01979 8.32436 1.08203 8.25456C1.26203 8.05056 1.48075 8.0555 1.65625 8.05925C1.69599 8.06 1.74728 8.06143 1.8125 8.06218L8.43945 8.06218L8.43945 3.38835C8.4387 3.34785 8.44172 3.30723 8.44922 3.26823C8.46501 3.18516 8.49896 3.10853 8.54688 3.04265C8.59412 2.97742 8.65676 2.92299 8.72949 2.88249C8.78574 2.85174 8.84806 2.82952 8.91406 2.81902C8.94774 2.81379 8.98074 2.81143 9.01367 2.81218H9.52441ZM5.25195 12.1872C4.73538 12.1873 4.31561 12.6081 4.31543 13.1247C4.31543 13.6414 4.73527 14.0621 5.25195 14.0622C5.76718 14.0622 6.18601 13.6442 6.18848 13.1296V13.1169C6.18408 12.6039 5.76598 12.1872 5.25195 12.1872ZM12.749 12.1872C12.2324 12.1873 11.8127 12.6081 11.8125 13.1247C11.8125 13.6414 12.2323 14.0621 12.749 14.0622C13.2658 14.0622 13.6865 13.6414 13.6865 13.1247C13.6863 12.6081 13.2657 12.1872 12.749 12.1872ZM2.06543 9.18718V9.3737C2.05868 10.5334 2.05901 11.8227 2.07324 12.068C2.09723 12.089 2.14267 12.1265 2.22656 12.1774C2.23327 12.1811 2.24012 12.1856 2.24609 12.1901L2.2793 12.2116C2.42105 12.3053 2.65777 12.4623 2.81152 12.526C2.87615 12.5443 3.05505 12.5569 3.26953 12.5622C3.51509 11.6979 4.31016 11.0622 5.25195 11.0622C6.19339 11.0622 6.98825 11.6975 7.23437 12.5612L8.4375 12.5612V9.1862L2.25195 9.1862C2.25195 9.1862 2.17169 9.18643 2.06543 9.18718ZM9.5625 12.5612H10.7676C11.0135 11.6975 11.8077 11.0622 12.749 11.0622C13.689 11.0622 14.4831 11.6956 14.7305 12.5573C15.3372 12.55 15.5879 12.5188 15.7207 12.3757C15.7267 12.3689 15.7376 12.3571 15.748 12.3444C15.868 12.2011 15.911 11.8996 15.9268 11.4362H15.748C15.4376 11.4362 15.1856 11.1842 15.1855 10.8737C15.1855 10.5632 15.4375 10.3112 15.748 10.3112H15.9355C15.9355 9.76595 15.9283 9.41853 15.8721 9.17253C15.8324 9.18148 15.7907 9.1862 15.748 9.1862L12.9717 9.1862C11.8084 9.1862 11.1065 9.18579 10.5215 8.69304C10.0872 8.32704 9.8565 7.82085 9.5625 6.95085L9.5625 12.5612ZM10.376 5.81218C10.7419 6.94984 10.9428 7.57638 11.248 7.83366C11.5083 8.05264 11.9386 8.06218 12.9727 8.06218L14.8018 8.06218C14.7853 8.05018 14.7673 8.03684 14.75 8.02409C13.9965 7.4782 13.4458 6.86574 12.9082 5.97722C12.2737 4.92647 11.9557 4.39924 11.5635 4.16374C11.2252 3.96126 10.7769 3.93943 9.77344 3.93718L10.376 5.81218Z" fill="#251455"/>
</svg>
