<svg width="24" height="24" viewBox="0 0 24 24" fill="none" xmlns="http://www.w3.org/2000/svg">
<path d="M9.08008 2.78705C11.0331 2.73798 12.9669 2.73798 14.9199 2.78705L14.9785 2.78802C16.503 2.8263 17.7297 2.85709 18.7129 3.02826C19.7424 3.20755 20.5793 3.5521 21.2861 4.26166C21.99 4.96822 22.3319 5.79283 22.5078 6.8056C22.6753 7.76995 22.7008 8.96735 22.7324 10.4501L22.7344 10.5087C22.7556 11.5048 22.7556 12.4951 22.7344 13.4911L22.7324 13.5507C22.7008 15.0333 22.6752 16.23 22.5078 17.1943C22.3319 18.207 21.99 19.0317 21.2861 19.7382C20.5793 20.4478 19.7424 20.7923 18.7129 20.9716C17.7297 21.1428 16.503 21.1736 14.9785 21.2119L14.9199 21.2128C12.9669 21.2619 11.0331 21.2619 9.08008 21.2128L9.02148 21.2119C7.49704 21.1736 6.27029 21.1428 5.28711 20.9716C4.25761 20.7923 3.42073 20.4478 2.71387 19.7382C2.01001 19.0317 1.66806 18.207 1.49219 17.1943C1.32477 16.23 1.29917 15.0333 1.26758 13.5507L1.26562 13.4911C1.24439 12.4951 1.24439 11.5048 1.26562 10.5087L1.26758 10.4492C1.29917 8.9666 1.32476 7.76985 1.49219 6.8056C1.66807 5.79281 2.00998 4.96823 2.71387 4.26166C3.42073 3.5521 4.25761 3.20755 5.28711 3.02826C6.27029 2.8571 7.49705 2.8263 9.02148 2.78802L9.08008 2.78705ZM2.9209 7.37885C2.81689 8.17136 2.79477 9.17347 2.76562 10.54C2.74483 11.515 2.74483 12.4849 2.76562 13.4599C2.79879 15.0153 2.82394 16.0989 2.96973 16.9384C3.10931 17.7419 3.34931 18.2509 3.77637 18.6796C4.20063 19.1055 4.71641 19.35 5.54395 19.4941C6.4051 19.6441 7.52076 19.6737 9.11719 19.7138C11.045 19.7622 12.9541 19.7622 14.8818 19.7138C16.4785 19.6737 17.5948 19.6441 18.4561 19.4941C19.2835 19.35 19.7994 19.1055 20.2236 18.6796C20.6507 18.2509 20.8907 17.7418 21.0303 16.9384C21.1761 16.0989 21.2012 15.0153 21.2344 13.4599C21.2552 12.4849 21.2552 11.515 21.2344 10.54C21.2052 9.17388 21.1811 8.17222 21.0771 7.37982L15.457 10.5654C14.1639 11.2981 13.1133 11.7459 12.001 11.746C10.8885 11.746 9.83722 11.2982 8.54395 10.5654L2.9209 7.37885ZM14.8818 4.28607C12.9541 4.23764 11.045 4.23764 9.11719 4.28607C7.52074 4.32618 6.40511 4.3568 5.54395 4.50677C4.71649 4.6509 4.20061 4.89439 3.77637 5.32025C3.60339 5.49391 3.46205 5.68117 3.34473 5.89545L9.2832 9.26068C10.5385 9.97194 11.3008 10.246 12.001 10.246C12.7011 10.2459 13.4627 9.97179 14.7178 9.26068L20.6543 5.89642C20.5369 5.68201 20.3967 5.49399 20.2236 5.32025C19.7994 4.89441 19.2835 4.6509 18.4561 4.50677C17.5948 4.35679 16.4785 4.32619 14.8818 4.28607Z" fill="#251455"/>
</svg>
