<svg width="16" height="16" viewBox="0 0 16 16" fill="none" xmlns="http://www.w3.org/2000/svg">
<path d="M8 0.833008C11.9365 0.833008 15.1669 3.89215 15.167 7.71094C15.167 11.5298 11.9365 14.5889 8 14.5889C7.53612 14.5895 7.0737 14.5465 6.61816 14.4609C6.46004 14.4312 6.35893 14.4125 6.28418 14.4023C6.2525 14.398 6.23267 14.3962 6.22168 14.3955C6.21037 14.3998 6.18749 14.4086 6.15137 14.4258C6.07511 14.462 5.97365 14.516 5.81836 14.5986C4.86388 15.1062 3.74983 15.2867 2.67578 15.0869C2.50243 15.0546 2.35868 14.9331 2.29785 14.7676C2.23714 14.602 2.26866 14.4171 2.37988 14.2803C2.69175 13.8967 2.90614 13.4339 3.00098 12.9365C3.02648 12.7998 2.96838 12.6137 2.79004 12.4326C1.58018 11.204 0.833008 9.54274 0.833008 7.71094C0.833118 3.89215 4.06355 0.833008 8 0.833008ZM6.21973 14.3936C6.21755 14.3939 6.21533 14.3944 6.21387 14.3945C6.21241 14.3947 6.21145 14.3955 6.21094 14.3955C6.21203 14.3955 6.21573 14.3951 6.22168 14.3955L6.23047 14.3916C6.22947 14.3918 6.22563 14.3926 6.21973 14.3936ZM8 1.83301C4.57362 1.83301 1.83312 4.48573 1.83301 7.71094C1.83301 9.26366 2.46442 10.6778 3.50195 11.7314C3.81802 12.0524 4.09067 12.5525 3.9834 13.1221V13.123C3.91414 13.4867 3.79603 13.8381 3.63379 14.166C4.22965 14.1519 4.81964 13.9971 5.34863 13.7158L5.3584 13.7109C5.50104 13.6351 5.62329 13.5697 5.72266 13.5225C5.81878 13.4768 5.93941 13.4251 6.06934 13.4053C6.19567 13.386 6.31874 13.3981 6.4209 13.4121C6.52303 13.4261 6.64816 13.4488 6.79102 13.4756L6.80273 13.4785C7.19722 13.5526 7.5976 13.5894 7.99902 13.5889C11.4255 13.5889 14.167 10.9363 14.167 7.71094C14.1669 4.48573 11.4264 1.83301 8 1.83301Z" fill="#251455"/>
</svg>
