<svg width="16" height="15" viewBox="0 0 16 15" fill="none" xmlns="http://www.w3.org/2000/svg">
<path d="M2.15442 0.850105C4.3729 -0.556434 6.36309 0.00413141 7.5654 0.937376C7.76319 1.09091 7.89894 1.19598 8 1.26694C8.10106 1.19598 8.23681 1.09091 8.4346 0.937376C9.63691 0.00413141 11.6271 -0.556434 13.8456 0.850105C15.3796 1.82268 16.2427 3.85425 15.9399 6.18845C15.6355 8.53392 14.1667 11.1867 11.0562 13.5663C9.9761 14.3932 9.18335 15 8 15C6.81666 15 6.0239 14.3932 4.94377 13.5663C1.83325 11.1867 0.364483 8.53392 0.0601384 6.18845C-0.242745 3.85425 0.620417 1.82268 2.15442 0.850105Z" fill="#251455"/>
</svg>
