<svg width="16" height="15" viewBox="0 0 16 15" fill="none" xmlns="http://www.w3.org/2000/svg">
<path fill-rule="evenodd" clip-rule="evenodd" d="M2.15442 0.850105C4.3729 -0.556434 6.36309 0.00413136 7.5654 0.937376C7.76319 1.09091 7.89894 1.19598 8 1.26694C8.10106 1.19598 8.23681 1.09091 8.4346 0.937376C9.63691 0.00413136 11.6271 -0.556434 13.8456 0.850105C15.3796 1.82268 16.2427 3.85425 15.9399 6.18845C15.6355 8.53392 14.1667 11.1867 11.0562 13.5663C11.0302 13.5862 11.0044 13.606 10.9788 13.6256C9.89867 14.4524 9.18335 15 8 15C6.81666 15 6.10133 14.4524 5.02119 13.6256C4.99559 13.606 4.96979 13.5862 4.94377 13.5663C1.83325 11.1867 0.364483 8.53392 0.0601384 6.18845C-0.242745 3.85425 0.620417 1.82268 2.15442 0.850105ZM7.88335 1.34128C7.88096 1.3424 7.88138 1.34203 7.88438 1.34079C7.884 1.34097 7.88365 1.34114 7.88335 1.34128ZM8.11561 1.34078C8.11862 1.34203 8.11904 1.3424 8.11665 1.34128C8.11635 1.34114 8.116 1.34097 8.11561 1.34078ZM6.89505 1.86C6.00458 1.16881 4.51107 0.709569 2.73811 1.83364C1.65295 2.52164 0.910206 4.05952 1.16655 6.03508C1.42144 7.99937 2.67703 10.3967 5.6079 12.6389C6.78537 13.5397 7.21513 13.8462 8 13.8462C8.78487 13.8462 9.21463 13.5397 10.3921 12.6389C13.323 10.3967 14.5786 7.99937 14.8334 6.03508C15.0898 4.05952 14.347 2.52164 13.2619 1.83364C11.4889 0.709569 9.99542 1.16881 9.10495 1.86L9.08939 1.87209C8.88816 2.02829 8.71532 2.16246 8.57706 2.25602C8.5052 2.30465 8.42562 2.35417 8.34303 2.39274C8.26465 2.42935 8.14425 2.47515 8 2.47515C7.85575 2.47515 7.73535 2.42935 7.65696 2.39274C7.57438 2.35417 7.4948 2.30465 7.42294 2.25602C7.28467 2.16245 7.11182 2.02827 6.91058 1.87206L6.89505 1.86Z" fill="#251455"/>
</svg>
