<svg width="16" height="16" viewBox="0 0 16 16" fill="none" xmlns="http://www.w3.org/2000/svg">
<path d="M9.89935 12.8382C10.444 12.8382 10.8493 12.4076 11.338 11.8889C11.4833 11.7342 11.6487 11.5589 11.838 11.3689L13.1487 10.0542C14.0207 9.17888 14.5 8.69756 14.5 7.99823C14.5 7.2989 14.0207 6.81822 13.15 5.94422L13.1487 5.94289L11.838 4.62824C11.694 4.48358 11.5633 4.34889 11.4433 4.22622C10.7367 3.49956 10.226 2.97491 9.49264 3.23358C8.69131 3.51558 8.67269 4.56822 8.70736 5.31955C8.64136 5.31822 8.57599 5.31691 8.51133 5.31558C7.73466 5.29891 6.93067 5.28158 6.14134 5.42958C4.49667 5.73891 3.2647 6.55622 2.47936 7.85956C1.82936 8.93756 1.5 10.3316 1.5 12.0022C1.5 12.1889 1.60397 12.3602 1.77064 12.4462C1.93664 12.5322 2.13666 12.5182 2.28932 12.4102L2.49668 12.2629C3.33401 11.6669 4.12465 11.1036 5.05332 10.8502C6.01932 10.5856 7.11532 10.6189 8.17533 10.6509C8.35133 10.6562 8.52999 10.6616 8.70866 10.6656C8.67333 11.4176 8.68803 12.4809 9.49336 12.7642C9.63803 12.8156 9.77268 12.8389 9.89935 12.8389V12.8382ZM12.4407 6.64891L12.442 6.65025C13.102 7.31291 13.5007 7.7129 13.5007 7.99823C13.5007 8.28356 13.1027 8.68423 12.4427 9.34689L11.1307 10.6629C10.9307 10.8636 10.7607 11.0442 10.6107 11.2036C10.084 11.7629 9.95668 11.8642 9.83001 11.8222C9.76335 11.7636 9.66268 11.5136 9.71868 10.5102C9.72602 10.3796 9.73203 10.2662 9.73203 10.1716C9.73203 9.89557 9.50803 9.67157 9.23203 9.67157C8.89803 9.67157 8.56134 9.66156 8.20534 9.6509C7.072 9.6169 5.89997 9.58157 4.78997 9.88557C3.95131 10.1142 3.22798 10.5422 2.54531 11.0076C2.79198 8.38224 4.06069 6.83823 6.32669 6.41223C7.01403 6.28289 7.76469 6.29956 8.49069 6.3149C8.73402 6.32023 8.98536 6.32557 9.23203 6.32557C9.50803 6.32557 9.73203 6.10157 9.73203 5.82557C9.73203 5.73157 9.72602 5.61823 9.71868 5.4869C9.66335 4.48423 9.76335 4.23422 9.83001 4.17489C9.96268 4.13689 10.318 4.50157 10.7273 4.9229C10.85 5.0489 10.9833 5.18623 11.1307 5.33423L12.4413 6.64891H12.4407Z" fill="#251455"/>
</svg>
