<svg width="24" height="24" viewBox="0 0 24 24" fill="none" xmlns="http://www.w3.org/2000/svg">
<path d="M12 1.25C17.2755 1.25 21.75 5.60956 21.75 10.9258C21.75 13.6392 20.6 15.9205 18.9863 17.8037C17.379 19.6795 15.2853 21.1929 13.3184 22.3965L13.3076 22.4033L13.2959 22.4102C12.9007 22.6333 12.454 22.75 12 22.75C11.546 22.75 11.0993 22.6333 10.7041 22.4102L10.6787 22.3945C8.71882 21.1813 6.62467 19.673 5.0166 17.8027C3.40158 15.9244 2.25 13.6482 2.25 10.9258C2.25 5.60955 6.72451 1.25 12 1.25ZM12 2.75C7.53437 2.75 3.75 6.45643 3.75 10.9258C3.75 13.1911 4.70019 15.1329 6.1543 16.8242C7.61176 18.5193 9.54857 19.9303 11.4531 21.1104C11.62 21.202 11.8083 21.25 12 21.25C12.1921 21.25 12.3807 21.2014 12.5479 21.1094C14.453 19.9426 16.3909 18.5282 17.8477 16.8281C19.3014 15.1315 20.25 13.183 20.25 10.9258C20.25 6.45643 16.4656 2.75 12 2.75ZM12 6.75C14.3472 6.75 16.25 8.65279 16.25 11C16.25 13.3472 14.3472 15.25 12 15.25C9.65279 15.25 7.75 13.3472 7.75 11C7.75 8.65279 9.65279 6.75 12 6.75ZM12 8.25C10.4812 8.25 9.25 9.48122 9.25 11C9.25 12.5188 10.4812 13.75 12 13.75C13.5188 13.75 14.75 12.5188 14.75 11C14.75 9.48122 13.5188 8.25 12 8.25Z" fill="#161616"/>
</svg>
