<svg width="16" height="16" viewBox="0 0 16 16" fill="none" xmlns="http://www.w3.org/2000/svg">
<path d="M8 11.167C8.46024 11.167 8.83301 11.5398 8.83301 12C8.83301 12.4602 8.46024 12.833 8 12.833C7.53976 12.833 7.16699 12.4602 7.16699 12C7.16699 11.5398 7.53976 11.167 8 11.167ZM8 7.16699C8.46024 7.16699 8.83301 7.53976 8.83301 8C8.83301 8.46024 8.46024 8.83301 8 8.83301C7.53976 8.83301 7.16699 8.46024 7.16699 8C7.16699 7.53976 7.53976 7.16699 8 7.16699ZM8 3.16699C8.46024 3.16699 8.83301 3.53976 8.83301 4C8.83301 4.46024 8.46024 4.83301 8 4.83301C7.53976 4.83301 7.16699 4.46024 7.16699 4C7.16699 3.53976 7.53976 3.16699 8 3.16699Z" fill="#251455"/>
</svg>
