<svg width="18" height="18" viewBox="0 0 18 18" fill="none" xmlns="http://www.w3.org/2000/svg">
<path fill-rule="evenodd" clip-rule="evenodd" d="M11.847 2.85653C11.5622 2.81402 11.152 2.8125 10.5183 2.8125H8.95127C8.43332 2.8125 8.08913 2.81325 7.82333 2.84183C7.57111 2.86894 7.44123 2.91692 7.34266 2.98131C7.24389 3.04584 7.14709 3.14611 7.01961 3.36749C6.88546 3.60044 6.74482 3.91672 6.53451 4.39238L5.17579 7.46558C4.9423 7.99367 4.79433 8.33199 4.72468 8.5839C4.69158 8.70362 4.68624 8.77088 4.68777 8.80557C4.68883 8.82946 4.6929 8.8329 4.6929 8.8329C4.6929 8.8329 4.69368 8.83734 4.7141 8.84758C4.74405 8.86259 4.80647 8.88483 4.92826 8.90297C5.18483 8.94119 5.55178 8.94269 6.12693 8.94269H6.47115C6.48419 8.94269 6.49719 8.94269 6.51015 8.94269C6.9381 8.94265 7.31867 8.94261 7.62008 8.98619C7.94602 9.03332 8.28777 9.14493 8.53604 9.45605C8.78379 9.76653 8.81767 10.1244 8.79285 10.4529C8.76983 10.7575 8.68736 11.1305 8.5944 11.5508L8.07098 13.9185C7.99321 14.2703 7.9308 14.5542 7.88663 14.784C8.04726 14.6158 8.24105 14.402 8.48074 14.137L12.6321 9.54649C12.8982 9.25225 13.0756 9.05551 13.1938 8.90292C13.2842 8.78622 13.307 8.7353 13.3109 8.72741C13.3212 8.63847 13.2826 8.552 13.2124 8.5009C13.2031 8.49822 13.1501 8.48147 13.0068 8.4705C12.8152 8.45582 12.5513 8.45543 12.1556 8.45543H12.1338C11.8469 8.45544 11.5992 8.45545 11.4009 8.43995C11.2006 8.42429 10.9729 8.38896 10.7667 8.26778C10.3519 8.02412 10.0965 7.5803 10.0919 7.1001C10.0895 6.86161 10.1714 6.64666 10.2571 6.4643C10.342 6.28379 10.4648 6.06782 10.6072 5.81724L11.4218 4.3842C11.7361 3.83138 11.9386 3.47203 12.0435 3.20173C12.0937 3.07219 12.1069 2.99787 12.1087 2.95911C12.1094 2.94227 12.1077 2.93492 12.1077 2.93492L12.1066 2.93274L12.1056 2.93109C12.1056 2.93109 12.104 2.92971 12.1017 2.92809C12.0989 2.92615 12.0941 2.92311 12.0866 2.91926C12.0532 2.90204 11.9834 2.87689 11.847 2.85653ZM12.0131 1.74386C12.4067 1.80261 12.8353 1.94474 13.0809 2.37029C13.326 2.79477 13.2364 3.23713 13.0924 3.60852C12.9537 3.96593 12.708 4.39825 12.4217 4.90173L11.596 6.35439C11.4398 6.6291 11.3392 6.80682 11.2752 6.94303C11.2271 7.04524 11.2183 7.08712 11.2169 7.09405C11.2193 7.17736 11.2633 7.25255 11.3318 7.29495C11.3392 7.29734 11.3798 7.30987 11.4886 7.31837C11.6377 7.33002 11.8407 7.33043 12.1556 7.33043H12.1786C12.5452 7.33042 12.8528 7.33041 13.0927 7.34878C13.3246 7.36654 13.5978 7.40597 13.8268 7.55818C14.2714 7.85373 14.5027 8.38119 14.4215 8.908C14.3798 9.17898 14.226 9.40757 14.0831 9.592C13.9354 9.78263 13.7286 10.0113 13.4819 10.2841L9.28813 14.9214C8.90342 15.3469 8.57956 15.705 8.31609 15.9347C8.18212 16.0515 8.02386 16.1716 7.84726 16.2432C7.65272 16.3221 7.39607 16.3557 7.14115 16.2229C6.88679 16.0903 6.76727 15.8615 6.71973 15.6581C6.67643 15.4728 6.68271 15.2745 6.70044 15.0972C6.73529 14.7486 6.83971 14.2763 6.96386 13.7148L7.48756 11.3458C7.59144 10.8759 7.65483 10.5827 7.67105 10.3682C7.67864 10.2677 7.67296 10.2128 7.66691 10.1847C7.66262 10.1649 7.65882 10.1603 7.65705 10.1582L7.65633 10.1573C7.65474 10.1552 7.65149 10.1509 7.63411 10.1428C7.60901 10.1312 7.55781 10.1139 7.45909 10.0996C7.24795 10.0691 6.95028 10.0677 6.47115 10.0677L6.08411 10.0677C5.56443 10.0677 5.11207 10.0678 4.76251 10.0157C4.3927 9.96061 3.9968 9.8283 3.74818 9.44372C3.50014 9.06004 3.54066 8.64468 3.64037 8.28408C3.73484 7.9424 3.9184 7.52732 4.12966 7.04958C4.13537 7.03665 4.14111 7.02368 4.14686 7.01067L5.51736 3.91086C5.71278 3.46881 5.87711 3.0971 6.04471 2.80606C6.22233 2.49763 6.42756 2.23535 6.72738 2.03948C7.0274 1.84348 7.34976 1.76126 7.70307 1.72328C8.03607 1.68748 8.44105 1.68749 8.92201 1.6875L10.5628 1.6875C11.1393 1.68747 11.6351 1.68743 12.0131 1.74386Z" fill="#6B39F4"/>
</svg>
