<svg width="18" height="18" viewBox="0 0 18 18" fill="none" xmlns="http://www.w3.org/2000/svg">
<path fill-rule="evenodd" clip-rule="evenodd" d="M2.8125 9C2.8125 5.58 5.58 2.8125 9 2.8125C12.42 2.8125 15.1875 5.58 15.1875 9C15.1875 12.42 12.42 15.1875 9 15.1875C5.58 15.1875 2.8125 12.42 2.8125 9ZM9 1.6875C4.965 1.6875 1.6875 4.965 1.6875 9C1.6875 13.035 4.965 16.3125 9 16.3125C13.035 16.3125 16.3125 13.035 16.3125 9C16.3125 4.965 13.035 1.6875 9 1.6875ZM9 3.9375C8.6925 3.9375 8.4375 4.1925 8.4375 4.5V8.67755L4.82254 10.7625C4.69504 10.8375 4.59747 10.9575 4.55997 11.1075C4.52247 11.25 4.54503 11.4 4.62003 11.5275C5.06253 12.3 5.7 12.9375 6.4725 13.3875C7.2375 13.83 8.115 14.0625 9 14.0625C9.885 14.0625 10.7625 13.83 11.535 13.3875C12.3 12.9375 12.9375 12.3 13.3875 11.535C13.83 10.7625 14.0625 9.885 14.0625 9C14.0625 8.115 13.83 7.2375 13.3875 6.465C12.9375 5.7 12.3 5.06252 11.535 4.61252C10.7625 4.17002 9.8925 3.9375 9 3.9375Z" fill="#6B39F4"/>
</svg>
