<svg width="16" height="16" viewBox="0 0 16 16" fill="none" xmlns="http://www.w3.org/2000/svg">
<path d="M8.03623 0.833328C9.26245 0.833319 10.2318 0.833312 10.9901 0.931533C11.7684 1.03235 12.3995 1.24448 12.899 1.72575C13.4012 2.20953 13.6249 2.82495 13.7307 3.58349C13.8332 4.31766 13.8332 5.25471 13.8332 6.43296V12.0306C13.8332 12.7622 13.8332 13.3702 13.763 13.827C13.6903 14.2996 13.5208 14.7597 13.0535 15.0092C12.6367 15.2318 12.1782 15.1865 11.7896 15.0685C11.3964 14.9492 10.9968 14.7326 10.6309 14.5014C10.2616 14.268 9.86238 13.9745 9.54748 13.7418C9.23894 13.5137 8.99112 13.3305 8.80191 13.2166C8.53554 13.0562 8.36734 12.9556 8.231 12.8914C8.10517 12.8321 8.04404 12.8227 7.99984 12.8227C7.95564 12.8227 7.89452 12.8321 7.76868 12.8914C7.63234 12.9556 7.46415 13.0562 7.19777 13.2166C7.00856 13.3305 6.76074 13.5137 6.4522 13.7418C6.1373 13.9745 5.7381 14.268 5.36874 14.5014C5.00286 14.7326 4.60326 14.9492 4.21013 15.0685C3.82144 15.1865 3.36301 15.2318 2.94622 15.0092C2.47888 14.7597 2.30942 14.2996 2.23672 13.827C2.16646 13.3702 2.16648 12.7622 2.1665 12.0306L2.16651 6.43295C2.16649 5.2547 2.16648 4.31766 2.26894 3.58349C2.37479 2.82495 2.5985 2.20953 3.10065 1.72575C3.60018 1.24448 4.23125 1.03235 5.00955 0.931533C5.76784 0.833312 6.73723 0.833319 7.96345 0.833328H8.03623Z" fill="#251455"/>
</svg>
