<svg width="16" height="16" viewBox="0 0 16 16" fill="none" xmlns="http://www.w3.org/2000/svg">
<path fill-rule="evenodd" clip-rule="evenodd" d="M7.96369 0.833374H8.03648C9.26269 0.833365 10.2321 0.833357 10.9904 0.931579C11.7687 1.03239 12.3997 1.24452 12.8993 1.72579C13.4014 2.20958 13.6251 2.82499 13.731 3.58354C13.8334 4.31771 13.8334 5.25475 13.8334 6.43301V12.0306C13.8334 12.7623 13.8335 13.3702 13.7632 13.827C13.6905 14.2997 13.521 14.7597 13.0537 15.0093C12.6369 15.2318 12.1785 15.1866 11.7898 15.0686C11.3967 14.9492 10.9971 14.7326 10.6312 14.5014C10.2618 14.268 9.89965 14.002 9.58476 13.7692L9.54773 13.7419C9.23918 13.5138 8.99137 13.3306 8.80216 13.2167C8.53578 13.0563 8.36759 12.9557 8.23124 12.8914C8.10541 12.8322 8.04428 12.8227 8.00008 12.8227C7.95588 12.8227 7.89476 12.8322 7.76892 12.8914C7.63258 12.9557 7.46439 13.0563 7.19801 13.2167C7.0088 13.3306 6.76098 13.5138 6.45244 13.7419L6.41541 13.7692C6.10052 14.002 5.73834 14.268 5.36898 14.5014C5.00311 14.7326 4.60351 14.9492 4.21037 15.0686C3.82168 15.1866 3.36325 15.2318 2.94646 15.0093C2.47912 14.7597 2.30967 14.2997 2.23697 13.827C2.1667 13.3702 2.16672 12.7623 2.16675 12.0306L2.16675 6.43299C2.16674 5.25475 2.16673 4.3177 2.26918 3.58354C2.37503 2.82499 2.59874 2.20958 3.10089 1.72579C3.60042 1.24452 4.23149 1.03239 5.0098 0.931579C5.76808 0.833357 6.73747 0.833365 7.96369 0.833374ZM5.13825 1.92329C4.46422 2.0106 4.07622 2.17472 3.79471 2.44594C3.5158 2.71465 3.34899 3.08105 3.25958 3.72175C3.16789 4.3788 3.16675 5.24595 3.16675 6.47173V11.9873C3.16675 12.7735 3.16818 13.3034 3.22534 13.675C3.28145 14.0398 3.36961 14.1016 3.4175 14.1272C3.49958 14.171 3.64925 14.1939 3.91987 14.1117C4.18605 14.0309 4.49696 13.8696 4.83479 13.6561C5.16914 13.4448 5.50386 13.1995 5.82104 12.965C5.84099 12.9503 5.86094 12.9355 5.88088 12.9208C6.16707 12.7091 6.45061 12.4994 6.68216 12.36L6.70174 12.3482C6.94271 12.2031 7.15473 12.0754 7.34275 11.9868C7.54635 11.8909 7.75749 11.8227 8.00008 11.8227C8.24268 11.8227 8.45382 11.8909 8.65742 11.9868C8.84543 12.0754 9.05745 12.2031 9.29842 12.3482L9.31801 12.36C9.54955 12.4994 9.83309 12.7091 10.1193 12.9208C10.1392 12.9355 10.1592 12.9503 10.1791 12.965C10.4963 13.1995 10.831 13.4448 11.1654 13.6561C11.5032 13.8696 11.8141 14.0309 12.0803 14.1117C12.3509 14.1939 12.5006 14.171 12.5827 14.1272C12.6306 14.1016 12.7187 14.0398 12.7748 13.675C12.832 13.3034 12.8334 12.7735 12.8334 11.9873V6.47173C12.8334 5.24595 12.8323 4.3788 12.7406 3.72175C12.6512 3.08105 12.4844 2.71465 12.2055 2.44594C11.9239 2.17472 11.536 2.0106 10.8619 1.92329C10.1753 1.83436 9.27079 1.83337 8.00008 1.83337C6.72937 1.83337 5.82482 1.83436 5.13825 1.92329Z" fill="#251455"/>
</svg>
