<svg width="24" height="24" viewBox="0 0 24 24" fill="none" xmlns="http://www.w3.org/2000/svg">
<path d="M10.4229 2.24719C11.3697 1.58438 12.6303 1.58438 13.5771 2.24719L21.7744 7.98547C22.3857 8.41335 22.7499 9.11241 22.75 9.85852C22.75 10.9078 22.0356 11.8228 21.0176 12.0773L20.6934 12.1583L20.2842 16.2267C20.1595 17.4661 20.0586 18.4685 19.876 19.254C19.686 20.0713 19.3874 20.7517 18.8018 21.2814C18.2162 21.8109 17.5098 22.0394 16.6777 22.1466C15.8778 22.2497 14.8706 22.2501 13.625 22.2501H10.375C9.12935 22.2501 8.12216 22.2497 7.32227 22.1466C6.49023 22.0394 5.78381 21.8109 5.19824 21.2814C4.61261 20.7517 4.314 20.0713 4.12402 19.254C3.94143 18.4685 3.84047 17.4661 3.71582 16.2267L3.30664 12.1583L2.98242 12.0773C1.96443 11.8228 1.25 10.9078 1.25 9.85852C1.25008 9.11241 1.61434 8.41335 2.22559 7.98547L10.4229 2.24719ZM15.5918 15.5392C15.3373 15.2124 14.8659 15.1539 14.5391 15.4083C13.8736 15.9262 12.9863 16.2501 12 16.2501C11.0137 16.2501 10.1264 15.9262 9.46094 15.4083C9.1341 15.1539 8.66265 15.2124 8.4082 15.5392C8.1538 15.866 8.21231 16.3375 8.53906 16.5919C9.47264 17.3186 10.6859 17.7501 12 17.7501C13.3141 17.7501 14.5273 17.3186 15.4609 16.5919C15.7877 16.3375 15.8462 15.866 15.5918 15.5392Z" fill="#251455"/>
</svg>
