<svg width="24" height="24" viewBox="0 0 24 24" fill="none" xmlns="http://www.w3.org/2000/svg">
<path d="M10.4229 2.24719C11.3697 1.58438 12.6303 1.58438 13.5771 2.24719L21.7744 7.98547C22.3857 8.41335 22.7499 9.11241 22.75 9.85852C22.75 10.9078 22.0356 11.8228 21.0176 12.0773L20.6934 12.1583L20.2842 16.2267C20.1595 17.4661 20.0586 18.4685 19.876 19.254C19.686 20.0713 19.3874 20.7517 18.8018 21.2814C18.2162 21.8109 17.5098 22.0394 16.6777 22.1466C15.8778 22.2497 14.8706 22.2501 13.625 22.2501H10.375C9.12935 22.2501 8.12216 22.2497 7.32227 22.1466C6.49023 22.0394 5.78381 21.8109 5.19824 21.2814C4.61261 20.7517 4.314 20.0713 4.12402 19.254C3.94143 18.4685 3.84047 17.4661 3.71582 16.2267L3.30664 12.1583L2.98242 12.0773C1.96443 11.8228 1.25 10.9078 1.25 9.85852C1.25008 9.11241 1.61434 8.41335 2.22559 7.98547L10.4229 2.24719ZM12.7168 3.47571C12.2864 3.17454 11.7136 3.17454 11.2832 3.47571L3.08594 9.21399C2.87568 9.36117 2.75008 9.60188 2.75 9.85852C2.75 10.2195 2.99556 10.5346 3.3457 10.6222L4.18164 10.8312C4.48853 10.9079 4.71441 11.1688 4.74609 11.4835L5.20312 16.0255C5.33417 17.3283 5.42684 18.2338 5.58496 18.9142C5.73829 19.5738 5.93281 19.9237 6.2041 20.1691C6.47536 20.4143 6.84229 20.5728 7.51367 20.6593C8.20656 20.7486 9.11711 20.7501 10.4268 20.7501H13.5732C14.8829 20.7501 15.7934 20.7486 16.4863 20.6593C17.1577 20.5728 17.5246 20.4143 17.7959 20.1691C18.0672 19.9237 18.2617 19.5738 18.415 18.9142C18.5732 18.2338 18.6658 17.3283 18.7969 16.0255L19.2539 11.4835C19.2856 11.1688 19.5115 10.9079 19.8184 10.8312L20.6543 10.6222C21.0044 10.5346 21.25 10.2195 21.25 9.85852C21.2499 9.60188 21.1243 9.36117 20.9141 9.21399L12.7168 3.47571ZM14.5391 15.4083C14.8659 15.1539 15.3373 15.2124 15.5918 15.5392C15.8462 15.866 15.7877 16.3375 15.4609 16.5919C14.5273 17.3186 13.3141 17.7501 12 17.7501C10.6859 17.7501 9.47264 17.3186 8.53906 16.5919C8.21231 16.3375 8.1538 15.866 8.4082 15.5392C8.66265 15.2124 9.1341 15.1539 9.46094 15.4083C10.1264 15.9262 11.0137 16.2501 12 16.2501C12.9863 16.2501 13.8736 15.9262 14.5391 15.4083Z" fill="#251455"/>
</svg>
