<svg width="24" height="24" viewBox="0 0 24 24" fill="none" xmlns="http://www.w3.org/2000/svg">
<g clip-path="url(#clip0_2933_4388)">
<path fill-rule="evenodd" clip-rule="evenodd" d="M8.7587 5.3623H15.2413C16.0463 5.36229 16.7106 5.36228 17.2518 5.4065C17.8139 5.45242 18.3306 5.55099 18.816 5.79828C19.5686 6.18177 20.1805 6.79369 20.564 7.54634C20.8113 8.03168 20.9099 8.54838 20.9558 9.11048C21 9.65167 21 10.316 21 11.121V15.6036C21 16.4086 21 17.0729 20.9558 17.6141C20.9099 18.1762 20.8113 18.6929 20.564 19.1783C20.1805 19.9309 19.5686 20.5428 18.816 20.9263C18.3306 21.1736 17.8139 21.2722 17.2518 21.3181C16.7106 21.3623 16.0463 21.3623 15.2413 21.3623H8.75873C7.95374 21.3623 7.28938 21.3623 6.74817 21.3181C6.18608 21.2722 5.66937 21.1736 5.18404 20.9263C4.43139 20.5428 3.81947 19.9309 3.43597 19.1783C3.18868 18.6929 3.09012 18.1762 3.04419 17.6141C2.99998 17.0729 2.99999 16.4086 3 15.6036V11.121C2.99999 10.316 2.99998 9.65167 3.04419 9.11048C3.09012 8.54838 3.18868 8.03168 3.43597 7.54634C3.81947 6.79369 4.43139 6.18177 5.18404 5.79828C5.66937 5.55099 6.18608 5.45242 6.74817 5.4065C7.28937 5.36228 7.95373 5.36229 8.7587 5.3623ZM6.91104 7.39986C6.47262 7.43568 6.24842 7.5006 6.09202 7.58029C5.7157 7.77204 5.40973 8.078 5.21799 8.45432C5.1383 8.61072 5.07337 8.83493 5.03755 9.27334C5.00078 9.72343 5 10.3057 5 11.1623V15.5623C5 16.4189 5.00078 17.0012 5.03755 17.4513C5.07337 17.8897 5.1383 18.1139 5.21799 18.2703C5.40973 18.6466 5.7157 18.9526 6.09202 19.1443C6.24842 19.224 6.47262 19.2889 6.91104 19.3248C7.36113 19.3615 7.94342 19.3623 8.8 19.3623H15.2C16.0566 19.3623 16.6389 19.3615 17.089 19.3248C17.5274 19.2889 17.7516 19.224 17.908 19.1443C18.2843 18.9526 18.5903 18.6466 18.782 18.2703C18.8617 18.1139 18.9266 17.8897 18.9624 17.4513C18.9992 17.0012 19 16.4189 19 15.5623V11.1623C19 10.3057 18.9992 9.72343 18.9624 9.27334C18.9266 8.83493 18.8617 8.61072 18.782 8.45432C18.5903 8.078 18.2843 7.77204 17.908 7.58029C17.7516 7.5006 17.5274 7.43568 17.089 7.39986C16.6389 7.36308 16.0566 7.3623 15.2 7.3623H8.8C7.94342 7.3623 7.36113 7.36308 6.91104 7.39986Z" fill="#D1C2FC"/>
<path fill-rule="evenodd" clip-rule="evenodd" d="M10 2.7923L10 3.36237C9.99997 3.91465 9.55222 4.36234 8.99994 4.3623C8.44766 4.36227 7.99997 3.91453 8 3.36224L8.00006 2.36224C8.00008 2.10432 8.09975 1.85637 8.27826 1.6702C8.52078 1.41728 8.88254 1.04946 9.51489 0.775093C10.1265 0.509747 10.9151 0.362305 12 0.362305C13.085 0.362305 13.8736 0.509758 14.4852 0.775112C15.1175 1.04948 15.4793 1.41731 15.7218 1.67018C15.9003 1.85637 16 2.10435 16 2.3623V3.3623C16 3.91459 15.5523 4.3623 15 4.3623C14.4477 4.3623 14 3.91459 14 3.3623V2.79229C13.9115 2.72323 13.8144 2.66422 13.6891 2.60985C13.4093 2.48842 12.9151 2.3623 12 2.3623C11.085 2.3623 10.5908 2.48841 10.3109 2.60984C10.1856 2.66422 10.0886 2.72323 10 2.7923Z" fill="#D1C2FC"/>
<path fill-rule="evenodd" clip-rule="evenodd" d="M8.2 14.7623C8.53137 14.3205 9.15817 14.2309 9.6 14.5623C10.4066 15.1673 11.1886 15.3627 11.9995 15.3623C12.8103 15.3619 13.594 15.1668 14.4 14.5623C14.8418 14.2309 15.4686 14.3205 15.8 14.7623C16.1314 15.2041 16.0418 15.8309 15.6 16.1623C14.406 17.0578 13.1879 17.3617 12.0005 17.3623C10.8097 17.3629 9.59337 17.0573 8.4 16.1623C7.95817 15.8309 7.86863 15.2041 8.2 14.7623Z" fill="#D1C2FC"/>
<path d="M7 11.8623C7 11.0339 7.67157 10.3623 8.5 10.3623C9.32843 10.3623 10 11.0339 10 11.8623C10 12.6907 9.32843 13.3623 8.5 13.3623C7.67157 13.3623 7 12.6907 7 11.8623Z" fill="#D1C2FC"/>
<path d="M14 11.8623C14 11.0339 14.6716 10.3623 15.5 10.3623C16.3284 10.3623 17 11.0339 17 11.8623C17 12.6907 16.3284 13.3623 15.5 13.3623C14.6716 13.3623 14 12.6907 14 11.8623Z" fill="#D1C2FC"/>
</g>
<defs>
<clipPath id="clip0_2933_4388">
<rect width="24" height="24" fill="white"/>
</clipPath>
</defs>
</svg>
