<svg width="24" height="24" viewBox="0 0 24 24" fill="none" xmlns="http://www.w3.org/2000/svg">
<path d="M5.94434 14.8369C9.49833 12.7208 14.0027 12.7207 17.5566 14.8369C17.6728 14.906 17.8161 14.9874 17.9785 15.0791C18.6913 15.4812 19.7696 16.089 20.5078 16.8115C20.9695 17.2634 21.4075 17.8593 21.4873 18.5889C21.5721 19.3646 21.2336 20.0924 20.5547 20.7393C19.3833 21.8553 17.9775 22.75 16.1592 22.75H7.34082C5.52262 22.7499 4.11671 21.8552 2.94531 20.7393C2.2665 20.0924 1.92793 19.3645 2.0127 18.5889C2.09245 17.8593 2.53149 17.2634 2.99316 16.8115C3.73133 16.0891 4.80877 15.4811 5.52148 15.0791C5.68407 14.9873 5.82807 14.9061 5.94434 14.8369ZM11.75 1.25C14.6495 1.25 17 3.6005 17 6.5C17 9.39949 14.6495 11.75 11.75 11.75C8.85058 11.75 6.5 9.39946 6.5 6.5C6.5 3.60053 8.85058 1.25005 11.75 1.25Z" fill="#6B39F4"/>
</svg>
