<svg width="24" height="24" viewBox="0 0 24 24" fill="none" xmlns="http://www.w3.org/2000/svg">
<path d="M6.19434 14.8369C9.74833 12.7209 14.2527 12.7207 17.8066 14.8369C17.9228 14.9061 18.0661 14.9875 18.2285 15.0791C18.9413 15.4812 20.0196 16.089 20.7578 16.8115C21.2195 17.2634 21.6576 17.8593 21.7373 18.5889C21.8221 19.3647 21.4836 20.0924 20.8047 20.7393C19.6332 21.8553 18.2275 22.75 16.4092 22.75H7.59082C5.77262 22.7499 4.36671 21.8553 3.19531 20.7393C2.51651 20.0924 2.17795 19.3646 2.2627 18.5889C2.34244 17.8593 2.7815 17.2634 3.24316 16.8115C3.98132 16.0891 5.05877 15.4812 5.77148 15.0791C5.93409 14.9874 6.07806 14.9062 6.19434 14.8369ZM17.0391 16.126C13.958 14.2914 10.043 14.2915 6.96191 16.126C6.79407 16.2259 6.60964 16.3302 6.41699 16.4395C5.70439 16.8437 4.87208 17.316 4.29199 17.8838C3.93192 18.2363 3.77846 18.5273 3.75391 18.752C3.73447 18.9303 3.78002 19.2242 4.23047 19.6533C5.26624 20.6401 6.31849 21.2499 7.59082 21.25H16.4092C17.6816 21.25 18.7347 20.6402 19.7705 19.6533C20.2207 19.2243 20.2655 18.9303 20.2461 18.752C20.2215 18.5273 20.0681 18.2363 19.708 17.8838C19.1279 17.316 18.2956 16.8437 17.583 16.4395C17.3905 16.3302 17.2068 16.2259 17.0391 16.126ZM12 1.25C14.8995 1.25 17.25 3.6005 17.25 6.5C17.25 9.39949 14.8995 11.75 12 11.75C9.1005 11.75 6.75 9.39949 6.75 6.5C6.75 3.6005 9.1005 1.25 12 1.25ZM12 2.75C9.92893 2.75 8.25 4.42893 8.25 6.5C8.25 8.57107 9.92893 10.25 12 10.25C14.0711 10.25 15.75 8.57107 15.75 6.5C15.75 4.42893 14.0711 2.75 12 2.75Z" fill="#D1C2FC"/>
</svg>
