<svg width="26" height="30" viewBox="0 0 26 30" fill="none" xmlns="http://www.w3.org/2000/svg">
<path d="M9.57255 4.75005C9.85465 4.75007 10.0833 4.52139 10.0834 4.23929C10.0834 4.08196 10.1536 3.9293 10.2899 3.85071C10.353 3.81429 10.4215 3.77986 10.4979 3.74671C10.8711 3.58481 11.53 3.41667 12.7501 3.41667C13.9701 3.41667 14.629 3.58482 15.0022 3.74672C15.0785 3.77986 15.147 3.81429 15.2102 3.8507C15.3465 3.92929 15.4167 4.08195 15.4167 4.23927C15.4167 4.52134 15.6453 4.75 15.9274 4.75H16.75C17.4864 4.75 18.0833 4.15305 18.0833 3.41667C18.0833 3.07272 17.9504 2.74208 17.7124 2.49383C17.3891 2.15667 16.9067 1.66624 16.0636 1.30041C15.2482 0.946605 14.1966 0.75 12.7501 0.75C11.3035 0.75 10.252 0.94659 9.43652 1.30038C8.59338 1.66621 8.11104 2.15664 7.78768 2.49386C7.54967 2.74209 7.41677 3.07268 7.41675 3.41659C7.4167 4.15296 8.01362 4.74996 8.75 4.75L9.57255 4.75005Z" stroke="#251455" stroke-width="1.5"/>
<path fill-rule="evenodd" clip-rule="evenodd" d="M8.42827 7.41667H17.0717C18.145 7.41665 19.0308 7.41664 19.7524 7.47559C20.5019 7.53682 21.1908 7.66824 21.838 7.99796C22.8415 8.50929 23.6574 9.32519 24.1687 10.3287C24.4984 10.9758 24.6298 11.6648 24.6911 12.4142C24.75 13.1358 24.75 14.0216 24.75 15.0949V21.0718C24.75 22.145 24.75 23.0308 24.6911 23.7524C24.6298 24.5019 24.4984 25.1908 24.1687 25.838C23.6574 26.8415 22.8415 27.6574 21.838 28.1687C21.1908 28.4984 20.5019 28.6298 19.7524 28.6911C19.0309 28.75 18.1451 28.75 17.0719 28.75H8.4283C7.3551 28.75 6.46912 28.75 5.74757 28.6911C4.9981 28.6298 4.30917 28.4984 3.66205 28.1687C2.65852 27.6574 1.84263 26.8415 1.3313 25.838C1.00158 25.1908 0.870161 24.5019 0.808927 23.7524C0.749971 23.0309 0.749985 22.145 0.750001 21.0718V15.0949C0.749985 14.0217 0.749971 13.1358 0.808927 12.4142C0.870161 11.6648 1.00158 10.9758 1.3313 10.3287C1.84263 9.32519 2.65852 8.50929 3.66205 7.99796C4.30917 7.66824 4.99811 7.53682 5.74757 7.47559C6.46916 7.41664 7.35499 7.41665 8.42827 7.41667ZM12.7508 23.4167C11.5355 23.4173 10.3003 23.1788 9.0741 22.5317C8.42284 22.188 8.30821 21.3391 8.75003 20.75C9.19186 20.1609 10.0212 20.0658 10.6988 20.3541C11.379 20.6434 12.0562 20.7504 12.7493 20.75C13.4423 20.7496 14.1204 20.6426 14.801 20.3536C15.4788 20.0657 16.3082 20.1609 16.75 20.75C17.1919 21.3391 17.0772 22.188 16.4258 22.5314C15.1986 23.1785 13.9627 23.416 12.7508 23.4167ZM8.08333 14.0833C6.97876 14.0833 6.08333 14.9788 6.08333 16.0833C6.08333 17.1879 6.97876 18.0833 8.08333 18.0833C9.1879 18.0833 10.0833 17.1879 10.0833 16.0833C10.0833 14.9788 9.1879 14.0833 8.08333 14.0833ZM15.4167 16.0833C15.4167 14.9788 16.3121 14.0833 17.4167 14.0833C18.5212 14.0833 19.4167 14.9788 19.4167 16.0833C19.4167 17.1879 18.5212 18.0833 17.4167 18.0833C16.3121 18.0833 15.4167 17.1879 15.4167 16.0833Z" stroke="#251455" stroke-width="1.5"/>
</svg>
