<svg width="25" height="29" viewBox="0 0 25 29" fill="none" xmlns="http://www.w3.org/2000/svg">
<path d="M9.83333 4.50008L9.83338 3.73999C9.95141 3.6479 10.0808 3.56922 10.2479 3.49671C10.6211 3.33481 11.28 3.16667 12.5001 3.16667C13.7201 3.16667 14.379 3.33482 14.7522 3.49672C14.9193 3.56923 15.0487 3.64789 15.1667 3.73998V4.5H17.8333V2.63069L17.4624 2.24383C17.1391 1.90667 16.6567 1.41624 15.8136 1.05041C14.9982 0.696605 13.9466 0.5 12.5001 0.5C11.0535 0.5 10.002 0.69659 9.18652 1.05038C8.34338 1.41621 7.86104 1.90664 7.53768 2.24386L7.16678 2.63068L7.16667 4.49992L9.83333 4.50008Z" stroke="#251455"/>
<path fill-rule="evenodd" clip-rule="evenodd" d="M8.17827 7.16667H16.8217C17.895 7.16665 18.7808 7.16664 19.5024 7.22559C20.2519 7.28683 20.9408 7.41824 21.588 7.74797C22.5915 8.25929 23.4074 9.07519 23.9187 10.0787C24.2484 10.7258 24.3798 11.4148 24.4411 12.1642C24.5 12.8858 24.5 13.7716 24.5 14.8449V20.8218C24.5 21.895 24.5 22.7808 24.4411 23.5024C24.3798 24.2519 24.2484 24.9408 23.9187 25.588C23.4074 26.5915 22.5915 27.4074 21.588 27.9187C20.9408 28.2484 20.2519 28.3798 19.5024 28.4411C18.7809 28.5 17.8951 28.5 16.8219 28.5H8.1783C7.1051 28.5 6.21912 28.5 5.49757 28.4411C4.7481 28.3798 4.05917 28.2484 3.41205 27.9187C2.40852 27.4074 1.59263 26.5915 1.0813 25.588C0.75158 24.9408 0.620161 24.2519 0.558927 23.5024C0.499971 22.7809 0.499985 21.8951 0.500001 20.8218V14.8449C0.499985 13.7717 0.499971 12.8858 0.558927 12.1642C0.620161 11.4148 0.75158 10.7258 1.0813 10.0787C1.59263 9.07519 2.40852 8.25929 3.41205 7.74797C4.05917 7.41824 4.74811 7.28683 5.49757 7.22559C6.21916 7.16664 7.10499 7.16665 8.17827 7.16667ZM12.5008 23.1667C10.913 23.1675 9.2912 22.76 7.70003 21.5667L9.30003 19.4333C10.3755 20.24 11.4181 20.5006 12.4993 20.5C13.5805 20.4994 14.6254 20.2393 15.7 19.4333L17.3 21.5667C15.708 22.7607 14.0839 23.1658 12.5008 23.1667ZM7.83333 13.8333C6.72877 13.8333 5.83333 14.7288 5.83333 15.8333C5.83333 16.9379 6.72877 17.8333 7.83333 17.8333C8.9379 17.8333 9.83333 16.9379 9.83333 15.8333C9.83333 14.7288 8.9379 13.8333 7.83333 13.8333ZM15.1667 15.8333C15.1667 14.7288 16.0621 13.8333 17.1667 13.8333C18.2712 13.8333 19.1667 14.7288 19.1667 15.8333C19.1667 16.9379 18.2712 17.8333 17.1667 17.8333C16.0621 17.8333 15.1667 16.9379 15.1667 15.8333Z" stroke="#251455"/>
</svg>
