<svg width="18" height="21" viewBox="0 0 18 21" fill="none" xmlns="http://www.w3.org/2000/svg">
<path d="M6.00005 4C6.55231 4 7.00001 3.55231 7.00002 3.00006L7.00003 2.7915C7.00003 2.56336 7.10166 2.33834 7.31095 2.24754C7.59082 2.12611 8.08502 2 9.00005 2C9.91506 2 10.4093 2.12611 10.6891 2.24754C10.8984 2.33834 11 2.56334 11 2.79145V3C11 3.55228 11.4477 4 12 4C12.5523 4 13 3.55228 13 3V2C13 1.74204 12.9003 1.49406 12.7218 1.30788C12.4793 1.055 12.1175 0.687178 11.4852 0.412808C10.8736 0.147454 10.085 0 9.00005 0C7.91511 0 7.12646 0.147442 6.51489 0.412789C5.88254 0.687155 5.52078 1.05498 5.27826 1.3079C5.09975 1.49407 5.00009 1.74201 5.00009 1.99994V3.00003C5.00009 3.5523 5.44779 4 6.00005 4Z" fill="#6B39F4"/>
<path fill-rule="evenodd" clip-rule="evenodd" d="M12.2413 5H5.7587C4.95374 4.99999 4.28937 4.99998 3.74818 5.04419C3.18608 5.09012 2.66938 5.18868 2.18404 5.43597C1.43139 5.81947 0.819469 6.43139 0.435976 7.18404C0.188685 7.66937 0.0901205 8.18608 0.0441953 8.74817C-2.14241e-05 9.28936 -1.15594e-05 9.95374 3.91215e-07 10.7587V15.2413C-1.15594e-05 16.0463 -2.14241e-05 16.7106 0.0441953 17.2518C0.0901205 17.8139 0.188685 18.3306 0.435976 18.816C0.819469 19.5686 1.43139 20.1805 2.18404 20.564C2.66938 20.8113 3.18608 20.9099 3.74818 20.9558C4.28934 21 4.95383 21 5.75873 21H12.2415C13.0464 21 13.7107 21 14.2518 20.9558C14.8139 20.9099 15.3306 20.8113 15.816 20.564C16.5686 20.1805 17.1805 19.5686 17.564 18.816C17.8113 18.3306 17.9099 17.8139 17.9558 17.2518C18 16.7106 18 16.0463 18 15.2413V10.7587C18 9.95372 18 9.28936 17.9558 8.74817C17.9099 8.18608 17.8113 7.66937 17.564 7.18404C17.1805 6.43139 16.5686 5.81947 15.816 5.43597C15.3306 5.18868 14.8139 5.09012 14.2518 5.04419C13.7106 4.99998 13.0463 4.99999 12.2413 5ZM4 11.5C4 10.6716 4.67157 10 5.5 10C6.32843 10 7 10.6716 7 11.5C7 12.3284 6.32843 13 5.5 13C4.67157 13 4 12.3284 4 11.5ZM12.5 10C11.6716 10 11 10.6716 11 11.5C11 12.3284 11.6716 13 12.5 13C13.3284 13 14 12.3284 14 11.5C14 10.6716 13.3284 10 12.5 10ZM9.00057 17C7.80973 17.0006 6.5934 16.695 5.40003 15.8C4.9582 15.4686 4.86869 14.8419 5.20006 14.4001C5.53143 13.9582 6.1582 13.8686 6.60003 14.2C7.40665 14.805 8.18858 15.0004 8.99948 15C9.81037 14.9996 10.5941 14.8045 11.4 14.2C11.8419 13.8686 12.4687 13.9582 12.8001 14.4001C13.1314 14.8419 13.0419 15.4686 12.6 15.8C11.406 16.6955 10.1879 16.9994 9.00057 17Z" fill="#6B39F4"/>
</svg>
