<svg width="24" height="28" viewBox="0 0 24 28" fill="none" xmlns="http://www.w3.org/2000/svg">
<path d="M8.82255 4.00005C9.10465 4.00007 9.33335 3.77139 9.33337 3.48929C9.33338 3.33196 9.40359 3.1793 9.53988 3.10071C9.60303 3.06429 9.67154 3.02986 9.74793 2.99671C10.1211 2.83481 10.78 2.66667 12.0001 2.66667C13.2201 2.66667 13.879 2.83482 14.2522 2.99672C14.3285 3.02986 14.397 3.06429 14.4602 3.1007C14.5965 3.17929 14.6667 3.33195 14.6667 3.48927C14.6667 3.77134 14.8953 4 15.1774 4H16C16.7364 4 17.3333 3.40305 17.3333 2.66667C17.3333 2.32272 17.2004 1.99208 16.9624 1.74383C16.6391 1.40667 16.1567 0.916238 15.3136 0.55041C14.4982 0.196605 13.4466 0 12.0001 0C10.5535 0 9.50195 0.19659 8.68652 0.550385C7.84338 0.916206 7.36104 1.40664 7.03768 1.74386C6.79967 1.99209 6.66677 2.32268 6.66675 2.66659C6.6667 3.40296 7.26362 3.99996 8 4L8.82255 4.00005Z" fill="#251455"/>
<path fill-rule="evenodd" clip-rule="evenodd" d="M7.67827 6.66667H16.3217C17.395 6.66665 18.2808 6.66664 19.0024 6.72559C19.7519 6.78683 20.4408 6.91824 21.088 7.24797C22.0915 7.75929 22.9074 8.57519 23.4187 9.57872C23.7484 10.2258 23.8798 10.9148 23.9411 11.6642C24 12.3858 24 13.2716 24 14.3449V20.3218C24 21.395 24 22.2808 23.9411 23.0024C23.8798 23.7519 23.7484 24.4408 23.4187 25.088C22.9074 26.0915 22.0915 26.9074 21.088 27.4187C20.4408 27.7484 19.7519 27.8798 19.0024 27.9411C18.2809 28 17.3951 28 16.3219 28H7.6783C6.6051 28 5.71912 28 4.99757 27.9411C4.2481 27.8798 3.55917 27.7484 2.91205 27.4187C1.90852 26.9074 1.09263 26.0915 0.581301 25.088C0.25158 24.4408 0.120161 23.7519 0.0589271 23.0024C-2.85655e-05 22.2809 -1.54125e-05 21.3951 5.2162e-07 20.3218V14.3449C-1.54125e-05 13.2717 -2.85655e-05 12.3858 0.0589271 11.6642C0.120161 10.9148 0.25158 10.2258 0.581301 9.57872C1.09263 8.57519 1.90852 7.75929 2.91205 7.24797C3.55917 6.91824 4.24811 6.78683 4.99757 6.72559C5.71916 6.66664 6.60499 6.66665 7.67827 6.66667ZM12.0008 22.6667C10.7855 22.6673 9.55025 22.4288 8.3241 21.7817C7.67285 21.438 7.55821 20.5891 8.00003 20C8.44186 19.4109 9.27116 19.3158 9.94878 19.6041C10.629 19.8934 11.3062 20.0004 11.9993 20C12.6923 19.9996 13.3704 19.8926 14.051 19.6036C14.7288 19.3157 15.5582 19.4109 16 20C16.4419 20.5891 16.3272 21.438 15.6758 21.7814C14.4486 22.4285 13.2127 22.666 12.0008 22.6667ZM7.33333 13.3333C6.22877 13.3333 5.33333 14.2288 5.33333 15.3333C5.33333 16.4379 6.22877 17.3333 7.33333 17.3333C8.4379 17.3333 9.33333 16.4379 9.33333 15.3333C9.33333 14.2288 8.4379 13.3333 7.33333 13.3333ZM14.6667 15.3333C14.6667 14.2288 15.5621 13.3333 16.6667 13.3333C17.7712 13.3333 18.6667 14.2288 18.6667 15.3333C18.6667 16.4379 17.7712 17.3333 16.6667 17.3333C15.5621 17.3333 14.6667 16.4379 14.6667 15.3333Z" fill="#251455"/>
</svg>
