<svg width="16" height="16" viewBox="0 0 16 16" fill="none" xmlns="http://www.w3.org/2000/svg">
<path fill-rule="evenodd" clip-rule="evenodd" d="M8.00016 0.833374C11.9582 0.833374 15.1668 4.042 15.1668 8.00004C15.1668 11.9581 11.9582 15.1667 8.00016 15.1667C4.04212 15.1667 0.833496 11.9581 0.833496 8.00004C0.833496 4.042 4.04212 0.833374 8.00016 0.833374ZM8.00316 10C7.63063 10 7.3335 10.2985 7.3335 10.6667C7.3335 11.0349 7.63063 11.3334 7.99716 11.3334C8.3697 11.3334 8.66683 11.0349 8.66683 10.6667C8.66683 10.2985 8.3697 10 8.00316 10ZM8.00016 4.66671C7.63196 4.66671 7.3335 4.96519 7.3335 5.33337V8.00004C7.3335 8.36824 7.63196 8.66671 8.00016 8.66671C8.36836 8.66671 8.66683 8.36824 8.66683 8.00004V5.33337C8.66683 4.96519 8.36836 4.66671 8.00016 4.66671Z" fill="#251455"/>
</svg>
