<svg width="16" height="15" viewBox="0 0 16 15" fill="none" xmlns="http://www.w3.org/2000/svg">
<path d="M8 0.78125C11.958 0.78125 15.167 3.78934 15.167 7.5C15.167 11.2107 11.958 14.2188 8 14.2188C4.04196 14.2188 0.833008 11.2107 0.833008 7.5C0.833008 3.78934 4.04196 0.78125 8 0.78125ZM8 1.71875C4.59424 1.71875 1.83301 4.3071 1.83301 7.5C1.83301 10.6929 4.59424 13.2812 8 13.2812C11.4058 13.2812 14.167 10.6929 14.167 7.5C14.167 4.3071 11.4058 1.71875 8 1.71875ZM8.00098 8.75C8.36908 8.7501 8.66699 9.02988 8.66699 9.375C8.66699 9.72012 8.36908 9.9999 8.00098 10H7.99512C7.62693 10 7.32812 9.72018 7.32812 9.375C7.32812 9.02982 7.62693 8.75 7.99512 8.75H8.00098ZM8 4.53125C8.27614 4.53125 8.5 4.74112 8.5 5V7.5C8.5 7.75888 8.27614 7.96875 8 7.96875C7.72386 7.96875 7.5 7.75888 7.5 7.5V5C7.5 4.74112 7.72386 4.53125 8 4.53125Z" fill="#251455"/>
</svg>
