<svg width="24" height="24" viewBox="0 0 24 24" fill="none" xmlns="http://www.w3.org/2000/svg">
<path d="M17.3963 8.55529C17.2744 8.71666 16.9105 9.1984 16.6938 9.47611C16.2597 10.0323 15.6666 10.7714 15.0268 11.5083C14.3837 12.2489 13.7082 12.9702 13.1081 13.5005C12.8072 13.7663 12.5429 13.9684 12.3247 14.0999C12.1196 14.2235 11.9984 14.2493 11.9984 14.2493C11.9984 14.2493 11.8808 14.2235 11.6756 14.0999C11.4575 13.9684 11.1932 13.7663 10.8922 13.5005C10.2921 12.9702 9.61663 12.2489 8.97359 11.5083C8.33378 10.7714 7.74067 10.0323 7.3066 9.47608C7.08987 9.19837 6.72647 8.7173 6.60458 8.55593C6.35895 8.22241 5.88894 8.15047 5.55542 8.3961C5.2219 8.64174 5.15065 9.11123 5.39628 9.44476L5.3982 9.4473C5.52604 9.61655 5.90294 10.1156 6.12407 10.3989C6.56795 10.9677 7.17838 11.7286 7.84093 12.4917C8.50025 13.2511 9.22592 14.0298 9.89904 14.6245C10.2347 14.9212 10.575 15.1879 10.9012 15.3845C11.2068 15.5687 11.5937 15.75 12.0002 15.75C12.4067 15.75 12.7936 15.5687 13.0992 15.3845C13.4253 15.1879 13.7656 14.9212 14.1013 14.6245C14.7744 14.0298 15.5001 13.2511 16.1594 12.4917C16.822 11.7286 17.4324 10.9677 17.8763 10.399C18.0976 10.1154 18.4745 9.61637 18.6021 9.44747L18.6037 9.44528C18.8494 9.11176 18.7785 8.64179 18.4449 8.39615C18.1114 8.15053 17.6419 8.22179 17.3963 8.55529Z" fill="#251455"/>
</svg>
