<svg width="24" height="24" viewBox="0 0 24 24" fill="none" xmlns="http://www.w3.org/2000/svg">
<path d="M15.4447 17.3962C15.2833 17.2743 14.8016 16.9104 14.5239 16.6936C13.9677 16.2596 13.2286 15.6665 12.4917 15.0266C11.7511 14.3836 11.0298 13.7081 10.4995 13.108C10.2337 12.8071 10.0316 12.5427 9.90013 12.3246C9.77645 12.1195 9.75073 11.9983 9.75073 11.9983C9.75073 11.9983 9.77645 11.8806 9.90012 11.6755C10.0316 11.4574 10.2337 11.193 10.4995 10.8921C11.0298 10.292 11.7511 9.6165 12.4917 8.97346C13.2286 8.33366 13.9677 7.74055 14.5239 7.30647C14.8016 7.08975 15.2827 6.72635 15.4441 6.60446C15.7776 6.35883 15.8495 5.88882 15.6039 5.5553C15.3583 5.22178 14.8888 5.15053 14.5552 5.39616L14.5527 5.39808C14.3834 5.52592 13.8844 5.90282 13.6011 6.12395C13.0323 6.56783 12.2714 7.17826 11.5083 7.84081C10.7489 8.50013 9.97021 9.2258 9.37546 9.89892C9.07884 10.2346 8.81212 10.5749 8.6155 10.9011C8.43128 11.2067 8.25 11.5935 8.25 12.0001C8.25 12.4066 8.43129 12.7935 8.6155 13.099C8.81213 13.4252 9.07884 13.7655 9.37546 14.1012C9.97021 14.7743 10.7489 15.5 11.5083 16.1593C12.2714 16.8219 13.0323 17.4323 13.601 17.8762C13.8846 18.0974 14.3836 18.4744 14.5525 18.6019L14.5547 18.6036C14.8882 18.8492 15.3582 18.7783 15.6038 18.4448C15.8495 18.1113 15.7782 17.6418 15.4447 17.3962Z" fill="#251455"/>
</svg>
