<svg width="24" height="24" viewBox="0 0 24 24" fill="none" xmlns="http://www.w3.org/2000/svg">
<path d="M8.55529 6.60384C8.71666 6.72573 9.1984 7.08963 9.47611 7.30636C10.0323 7.74043 10.7714 8.33354 11.5083 8.97335C12.2489 9.61639 12.9702 10.2919 13.5005 10.892C13.7663 11.1929 13.9684 11.4573 14.0999 11.6754C14.2235 11.8805 14.2493 12.0017 14.2493 12.0017C14.2493 12.0017 14.2235 12.1194 14.0999 12.3245C13.9684 12.5426 13.7663 12.807 13.5005 13.1079C12.9702 13.708 12.2489 14.3835 11.5083 15.0265C10.7714 15.6663 10.0323 16.2595 9.47608 16.6935C9.19837 16.9103 8.7173 17.2737 8.55593 17.3955C8.22241 17.6412 8.15047 18.1112 8.3961 18.4447C8.64174 18.7782 9.11123 18.8495 9.44476 18.6038L9.4473 18.6019C9.61655 18.4741 10.1156 18.0972 10.3989 17.8761C10.9677 17.4322 11.7286 16.8217 12.4917 16.1592C13.2511 15.4999 14.0298 14.7742 14.6245 14.1011C14.9212 13.7654 15.1879 13.4251 15.3845 13.0989C15.5687 12.7933 15.75 12.4065 15.75 11.9999C15.75 11.5934 15.5687 11.2065 15.3845 10.901C15.1879 10.5748 14.9212 10.2345 14.6245 9.89881C14.0298 9.22569 13.2511 8.50002 12.4917 7.8407C11.7286 7.17815 10.9677 6.56772 10.399 6.12384C10.1154 5.90255 9.61637 5.52563 9.44747 5.39805L9.44528 5.3964C9.11176 5.15077 8.64179 5.22166 8.39615 5.55518C8.15053 5.88869 8.22179 6.3582 8.55529 6.60384Z" fill="#251455"/>
</svg>
