<svg width="24" height="24" viewBox="0 0 24 24" fill="none" xmlns="http://www.w3.org/2000/svg">
<path d="M8.55529 6.60378C8.71666 6.72566 9.1984 7.08957 9.47611 7.3063C10.0323 7.74037 10.7714 8.33348 11.5083 8.97329C12.2489 9.61633 12.9702 10.2918 13.5005 10.892C13.7663 11.1929 13.9684 11.4572 14.0999 11.6753C14.2235 11.8805 14.2493 12.0017 14.2493 12.0017C14.2493 12.0017 14.2235 12.1193 14.0999 12.3244C13.9684 12.5426 13.7663 12.8069 13.5005 13.1078C12.9702 13.7079 12.2489 14.3834 11.5083 15.0265C10.7714 15.6663 10.0323 16.2594 9.47608 16.6935C9.19837 16.9102 8.7173 17.2736 8.55593 17.3955C8.22241 17.6411 8.15047 18.1111 8.3961 18.4446C8.64174 18.7782 9.11123 18.8494 9.44476 18.6038L9.4473 18.6019C9.61655 18.474 10.1156 18.0971 10.3989 17.876C10.9677 17.4321 11.7286 16.8217 12.4917 16.1591C13.2511 15.4998 14.0298 14.7741 14.6245 14.101C14.9212 13.7653 15.1879 13.425 15.3845 13.0989C15.5687 12.7933 15.75 12.4064 15.75 11.9999C15.75 11.5934 15.5687 11.2065 15.3845 10.9009C15.1879 10.5747 14.9212 10.2345 14.6245 9.89875C14.0298 9.22563 13.2511 8.49996 12.4917 7.84064C11.7286 7.17809 10.9677 6.56766 10.399 6.12378C10.1154 5.90249 9.61637 5.52557 9.44747 5.39799L9.44528 5.39634C9.11176 5.15071 8.64179 5.2216 8.39615 5.55512C8.15053 5.88863 8.22179 6.35814 8.55529 6.60378Z" fill="#6B39F4" stroke="#6B39F4" stroke-width="2" stroke-linecap="round" stroke-linejoin="round"/>
</svg>
