<svg width="25" height="25" viewBox="0 0 25 25" fill="none" xmlns="http://www.w3.org/2000/svg">
<path d="M6.64207 15.4878C6.76356 15.3262 7.12627 14.8435 7.34231 14.5653C7.775 14.008 8.36627 13.2674 9.00425 12.5289C9.64545 11.7867 10.3192 11.0638 10.918 10.532C11.2182 10.2654 11.4821 10.0627 11.6999 9.93069C11.9047 9.80651 12.0258 9.78049 12.0258 9.78049C12.0258 9.78049 12.1435 9.80592 12.349 9.92907C12.5674 10.06 12.8322 10.2614 13.1338 10.5265C13.7352 11.0553 14.4125 11.7749 15.0574 12.5139C15.699 13.2493 16.294 13.9869 16.7294 14.542C16.9469 14.8192 17.3115 15.2994 17.4337 15.4604C17.6802 15.7933 18.1504 15.8641 18.4833 15.6176C18.8162 15.3712 18.8863 14.9015 18.6398 14.5686L18.6379 14.5661C18.5096 14.3971 18.1315 13.8991 17.9097 13.6162C17.4644 13.0486 16.8521 12.2892 16.1876 11.5277C15.5264 10.77 14.7988 9.99309 14.1242 9.4C13.7878 9.10422 13.4468 8.83835 13.1202 8.64253C12.8142 8.45907 12.4268 8.27875 12.0203 8.27976C11.6138 8.28077 11.2274 8.46302 10.9222 8.64799C10.5966 8.84542 10.2569 9.11298 9.92197 9.41043C9.25033 10.0069 8.5266 10.7873 7.86917 11.5483C7.20851 12.3131 6.59997 13.0755 6.1575 13.6454C5.93692 13.9295 5.56123 14.4294 5.43407 14.5987L5.43243 14.6008C5.18762 14.935 5.25968 15.4048 5.59381 15.6496C5.92793 15.8944 6.39726 15.8219 6.64207 15.4878Z" fill="#251455"/>
</svg>
