<svg width="24" height="24" viewBox="0 0 24 24" fill="none" xmlns="http://www.w3.org/2000/svg">
<path d="M18.4697 4.46973C18.7626 4.17683 19.2374 4.17683 19.5303 4.46973C19.8232 4.76262 19.8232 5.23738 19.5303 5.53027L13.0605 12L19.5303 18.4697C19.8232 18.7626 19.8232 19.2374 19.5303 19.5303C19.2374 19.823 18.7626 19.8231 18.4697 19.5303L12 13.0605L5.53027 19.5303C5.23738 19.8232 4.76262 19.8232 4.46973 19.5303C4.17683 19.2374 4.17683 18.7626 4.46973 18.4697L10.9395 12L4.46973 5.53027C4.177 5.23741 4.177 4.76259 4.46973 4.46973C4.76258 4.17687 5.23737 4.17696 5.53027 4.46973L12 10.9395L18.4697 4.46973Z" fill="#251455"/>
</svg>
