<svg width="24" height="24" viewBox="0 0 24 24" fill="none" xmlns="http://www.w3.org/2000/svg">
<path d="M12.6992 3.75024C14.3922 3.75024 15.3245 3.74989 16.1865 4.26489C17.0305 4.7699 17.5192 5.58062 18.4932 7.19458C19.0991 8.19744 19.713 8.88265 20.5449 9.4856C21.5129 10.1866 22.0975 10.6091 22.4375 11.3411C22.7475 12.008 22.7471 12.7201 22.7471 14.011V14.5315C22.7411 15.9461 22.6853 16.7811 22.1445 17.428C22.1417 17.4308 22.1395 17.4339 22.1367 17.4368C22.1118 17.4657 22.0893 17.491 22.0674 17.5149C21.4889 18.1385 20.788 18.2295 19.6436 18.2434C19.3181 19.3991 18.2572 20.2502 16.999 20.2502C15.7426 20.2502 14.6833 19.4016 14.3564 18.2483H9.64648C9.31944 19.4016 8.25933 20.2502 7.00293 20.2502C5.74791 20.2502 4.68946 19.4035 4.36133 18.2522C3.94309 18.2431 3.49356 18.2083 3.21973 18.1047C3.21473 18.1027 3.20908 18.1009 3.20508 18.0989C2.85815 17.9599 2.4848 17.7134 2.21387 17.5334L2.18457 17.5129C1.94657 17.3689 1.29246 16.9608 1.27246 16.2258C1.23849 15.7141 1.25188 13.0387 1.25488 12.4954V11.5754C1.23188 11.2934 1.36036 11.0991 1.44336 11.0061C1.68326 10.7343 1.97407 10.7413 2.20801 10.7463C2.26096 10.7473 2.32913 10.7492 2.41602 10.7502H11.252V4.51685C11.251 4.46309 11.2557 4.41042 11.2656 4.35864C11.2866 4.24764 11.3325 4.14488 11.3965 4.05688C11.4595 3.97002 11.5428 3.89695 11.6396 3.84302C11.7146 3.80211 11.7979 3.77301 11.8857 3.75903C11.9306 3.75208 11.9747 3.74925 12.0186 3.75024H12.6992ZM7.00293 16.2502C6.31393 16.2502 5.75391 16.8112 5.75391 17.5002C5.75405 18.1891 6.31402 18.7502 7.00293 18.7502C7.68754 18.7502 8.24497 18.196 8.25195 17.5129C8.25186 17.5081 8.25098 17.5032 8.25098 17.4983C8.25098 17.4921 8.25083 17.4859 8.25098 17.4797C8.2401 16.8001 7.6851 16.2503 7.00293 16.2502ZM16.999 16.2502C16.31 16.2502 15.75 16.8112 15.75 17.5002C15.7501 18.1891 16.3101 18.7502 16.999 18.7502C17.6853 18.7502 18.2437 18.1933 18.248 17.5081V17.4895C18.2424 16.8054 17.6845 16.2503 16.999 16.2502ZM2.75293 12.2502V12.4983C2.74393 14.0451 2.74565 15.7649 2.76465 16.0911C2.7967 16.1191 2.85793 16.1687 2.96973 16.2366C2.97852 16.2415 2.98729 16.2473 2.99512 16.2532L3.03906 16.2825C3.22803 16.4074 3.54304 16.6164 3.74805 16.7014C3.83394 16.7259 4.07347 16.7412 4.36035 16.7483C4.68825 15.5966 5.74764 14.7502 7.00293 14.7502C8.2581 14.7503 9.31734 15.5968 9.64551 16.7483H11.25V12.2483H3.00195C2.99578 12.2483 2.89066 12.2493 2.75293 12.2502ZM12.75 16.7483H14.3574C14.6854 15.5968 15.7438 14.7502 16.999 14.7502C18.2525 14.7503 19.3109 15.5943 19.6406 16.7434C20.4494 16.7337 20.7839 16.6919 20.9609 16.5012C20.9689 16.4922 20.9831 16.4762 20.9971 16.4592C21.1571 16.2682 21.2143 15.8662 21.2354 15.2483H20.9971C20.5832 15.2482 20.2471 14.9122 20.2471 14.4983C20.2471 14.0844 20.5832 13.7484 20.9971 13.7483H21.2471C21.2471 13.0213 21.2381 12.5577 21.1631 12.2297C21.1101 12.2417 21.0541 12.2483 20.9971 12.2483H17.2949C15.7441 12.2483 14.8083 12.248 14.0283 11.5911C13.4493 11.1031 13.142 10.4278 12.75 9.26782V16.7483ZM13.0312 5.25024L13.834 7.75024C14.322 9.26724 14.5901 10.1026 14.9971 10.4456C15.344 10.7375 15.9183 10.7493 17.2969 10.7493H19.7354C19.7134 10.7333 19.69 10.7165 19.667 10.6995C18.662 9.97147 17.9279 9.15399 17.2109 7.96899C16.365 6.56818 15.9409 5.865 15.418 5.55103C14.967 5.2812 14.3689 5.25227 13.0312 5.24927V5.25024Z" fill="#251455"/>
<path d="M12.6992 3.75024C14.3922 3.75024 15.3245 3.74989 16.1865 4.26489C17.0305 4.76989 17.5192 5.58061 18.4932 7.19458C19.0991 8.19744 19.713 8.88265 20.5449 9.4856C21.5129 10.1866 22.0975 10.6091 22.4375 11.3411C22.7475 12.008 22.7471 12.7201 22.7471 14.011V14.5315C22.7411 15.9461 22.6853 16.7811 22.1445 17.428C22.1417 17.4308 22.1395 17.4339 22.1367 17.4368C22.1118 17.4657 22.0893 17.491 22.0674 17.5149C21.4889 18.1385 20.788 18.2295 19.6436 18.2434C19.3181 19.3991 18.2572 20.2502 16.999 20.2502C15.7426 20.2502 14.6833 19.4016 14.3564 18.2483H9.64648C9.31944 19.4016 8.25934 20.2502 7.00293 20.2502C5.7479 20.2502 4.68946 19.4035 4.36133 18.2522C3.94309 18.2431 3.49355 18.2083 3.21973 18.1047C3.21473 18.1027 3.20908 18.1009 3.20508 18.0989C2.85816 17.9599 2.48479 17.7134 2.21387 17.5334L2.18457 17.5129C1.94657 17.3689 1.29246 16.9608 1.27246 16.2258C1.23849 15.7141 1.25188 13.0387 1.25488 12.4954V11.5754C1.23188 11.2934 1.36036 11.0991 1.44336 11.0061C1.68326 10.7343 1.97408 10.7413 2.20801 10.7463C2.26096 10.7473 2.32914 10.7492 2.41602 10.7502H11.252V4.51685C11.251 4.46309 11.2557 4.41041 11.2656 4.35864C11.2866 4.24764 11.3325 4.14488 11.3965 4.05688C11.4595 3.97002 11.5428 3.89695 11.6396 3.84302C11.7146 3.80211 11.7979 3.77301 11.8857 3.75903C11.9306 3.75208 11.9747 3.74925 12.0186 3.75024H12.6992ZM7.00293 16.2502C6.31393 16.2502 5.75391 16.8112 5.75391 17.5002C5.75404 18.1891 6.31401 18.7502 7.00293 18.7502C7.68755 18.7502 8.24497 18.196 8.25195 17.5129C8.25186 17.5081 8.25098 17.5032 8.25098 17.4983C8.25098 17.4921 8.25083 17.4859 8.25098 17.4797C8.2401 16.8001 7.6851 16.2503 7.00293 16.2502ZM16.999 16.2502C16.31 16.2502 15.75 16.8112 15.75 17.5002C15.7501 18.1891 16.3101 18.7502 16.999 18.7502C17.6853 18.7502 18.2437 18.1933 18.248 17.5081V17.4895C18.2424 16.8053 17.6845 16.2503 16.999 16.2502ZM2.75293 12.2502V12.4983C2.74393 14.0451 2.74565 15.7649 2.76465 16.0911C2.79669 16.1191 2.85792 16.1687 2.96973 16.2366C2.97852 16.2415 2.98729 16.2473 2.99512 16.2532L3.03906 16.2825C3.22802 16.4074 3.54304 16.6164 3.74805 16.7014C3.83394 16.7259 4.07348 16.7412 4.36035 16.7483C4.68825 15.5966 5.74764 14.7502 7.00293 14.7502C8.25811 14.7503 9.31734 15.5968 9.64551 16.7483H11.25V12.2483H3.00195C2.99558 12.2484 2.89052 12.2493 2.75293 12.2502ZM12.75 16.7483H14.3574C14.6854 15.5968 15.7438 14.7502 16.999 14.7502C18.2525 14.7503 19.3109 15.5943 19.6406 16.7434C20.4494 16.7337 20.7839 16.6919 20.9609 16.5012C20.9689 16.4922 20.9831 16.4762 20.9971 16.4592C21.1571 16.2682 21.2143 15.8662 21.2354 15.2483H20.9971C20.5832 15.2482 20.2471 14.9122 20.2471 14.4983C20.2471 14.0844 20.5832 13.7484 20.9971 13.7483H21.2471C21.2471 13.0213 21.2381 12.5577 21.1631 12.2297C21.1101 12.2417 21.0541 12.2483 20.9971 12.2483H17.2949C15.7441 12.2483 14.8083 12.248 14.0283 11.5911C13.4493 11.1031 13.142 10.4278 12.75 9.26782V16.7483ZM13.0312 5.25024L13.834 7.75024C14.322 9.26724 14.5901 10.1026 14.9971 10.4456C15.344 10.7375 15.9183 10.7493 17.2969 10.7493H19.7354C19.7134 10.7333 19.69 10.7165 19.667 10.6995C18.662 9.97147 17.9279 9.15398 17.2109 7.96899C16.3651 6.56818 15.9409 5.865 15.418 5.55103C14.967 5.28121 14.3689 5.25227 13.0312 5.24927V5.25024Z" fill="#251455"/>
</svg>
