<svg width="24" height="24" viewBox="0 0 24 24" fill="none" xmlns="http://www.w3.org/2000/svg">
<path fill-rule="evenodd" clip-rule="evenodd" d="M0 1.09091C0 0.488417 0.488417 0 1.09091 0L2.14473 0C3.65354 0 5.00124 0.999678 5.38004 2.47168L5.86692 4.36364L21.8021 4.36364L21.8151 4.36354L21.8317 4.36364L22.9091 4.36364C23.5116 4.36364 24 4.85205 24 5.45455C24 6.05704 23.5116 6.54545 22.9091 6.54545H22.7947L22.2081 11.8247C22.0444 13.2978 21.7776 14.5759 20.8898 15.4397C20.0019 16.3034 18.717 16.5349 17.2399 16.658L8.34901 17.3989C8.26349 17.5598 8.1639 17.7144 8.05068 17.8611L7.6861 18.3333C8.06742 18.6889 8.36369 19.1346 8.54105 19.6364L14.368 19.6364C14.8173 18.3652 16.0296 17.4545 17.4545 17.4545C19.262 17.4545 20.7273 18.9198 20.7273 20.7273C20.7273 22.5348 19.262 24 17.4545 24C16.0296 24 14.8173 23.0893 14.368 21.8182L8.54105 21.8182C8.09177 23.0893 6.87951 24 5.45455 24C3.64707 24 2.18182 22.5348 2.18182 20.7273C2.18182 18.9198 3.64707 17.4545 5.45455 17.4545C5.50515 17.4545 5.55548 17.4557 5.60552 17.458L6.32366 16.5278C6.52596 16.2657 6.5921 15.9362 6.5128 15.628L3.26707 3.01544C3.14598 2.54489 2.69704 2.18182 2.14473 2.18182L1.09091 2.18182C0.488417 2.18182 0 1.6934 0 1.09091ZM5.45455 19.6364C4.85205 19.6364 4.36364 20.1248 4.36364 20.7273C4.36364 21.3298 4.85205 21.8182 5.45455 21.8182C6.05704 21.8182 6.54545 21.3298 6.54545 20.7273C6.54545 20.1248 6.05704 19.6364 5.45455 19.6364ZM16.3636 20.7273C16.3636 21.3298 16.8521 21.8182 17.4545 21.8182C18.057 21.8182 18.5455 21.3298 18.5455 20.7273C18.5455 20.1248 18.057 19.6364 17.4545 19.6364C16.8521 19.6364 16.3636 20.1248 16.3636 20.7273Z" fill="#251455"/>
</svg>
