<svg width="24" height="24" viewBox="0 0 24 24" fill="none" xmlns="http://www.w3.org/2000/svg">
<path d="M12 1.25C17.9047 1.25 22.7498 5.83822 22.75 11.5664C22.75 17.2947 17.9048 21.8838 12 21.8838C11.3041 21.8847 10.6101 21.8197 9.92676 21.6914C9.68971 21.6468 9.53885 21.6188 9.42676 21.6035C9.37851 21.5969 9.34848 21.5948 9.33203 21.5938C9.31506 21.6003 9.28172 21.6129 9.22754 21.6387C9.11307 21.693 8.96086 21.7744 8.72754 21.8984C7.29582 22.6598 5.62475 22.9296 4.01367 22.6299C3.75368 22.5814 3.53849 22.3996 3.44727 22.1514C3.35612 21.903 3.40246 21.6252 3.56934 21.4199C4.03709 20.8445 4.35873 20.1513 4.50098 19.4053C4.53946 19.2001 4.4523 18.9213 4.18457 18.6494C2.36978 16.8065 1.25 14.3141 1.25 11.5664C1.25017 5.83822 6.09533 1.25 12 1.25ZM9.33008 21.5908C9.32678 21.5913 9.3235 21.5916 9.32129 21.5918C9.31773 21.5923 9.31543 21.5928 9.31543 21.5928C9.31543 21.5928 9.32081 21.5931 9.33203 21.5938L9.34668 21.5879C9.34668 21.5879 9.34027 21.5892 9.33008 21.5908ZM12 2.75C6.86043 2.75 2.75017 6.72859 2.75 11.5664C2.75 13.8954 3.69678 16.0163 5.25293 17.5967C5.72713 18.0781 6.13579 18.8291 5.97461 19.6836V19.6855C5.87072 20.2308 5.69345 20.7564 5.4502 21.248C6.34393 21.2269 7.229 20.9961 8.02246 20.5742L8.03809 20.5664C8.25196 20.4527 8.43497 20.355 8.58398 20.2842C8.72817 20.2157 8.90863 20.1382 9.10352 20.1084C9.29319 20.0794 9.47748 20.0961 9.63086 20.1172C9.78417 20.1382 9.97197 20.1736 10.1865 20.2139L10.2041 20.2178C10.796 20.3289 11.3967 20.3846 11.999 20.3838C17.1387 20.3838 21.25 16.4044 21.25 11.5664C21.2498 6.72859 17.1396 2.75 12 2.75Z" fill="#251455"/>
</svg>
