<svg width="20" height="20" viewBox="0 0 20 20" fill="none" xmlns="http://www.w3.org/2000/svg">
<path d="M5 11.042C7.18613 11.042 8.95801 12.8139 8.95801 15C8.95801 17.1861 7.18613 18.958 5 18.958C2.81387 18.958 1.04199 17.1861 1.04199 15C1.04199 12.8139 2.81387 11.042 5 11.042ZM15 11.042C17.1861 11.042 18.958 12.8139 18.958 15C18.958 17.1861 17.1861 18.958 15 18.958C12.8139 18.958 11.042 17.1861 11.042 15C11.042 12.8139 12.8139 11.042 15 11.042ZM5 1.04199C7.18613 1.04199 8.95801 2.81387 8.95801 5C8.95801 7.18613 7.18613 8.95801 5 8.95801C2.81387 8.95801 1.04199 7.18613 1.04199 5C1.04199 2.81387 2.81387 1.04199 5 1.04199ZM15 1.04199C17.1861 1.04199 18.958 2.81387 18.958 5C18.958 7.18613 17.1861 8.95801 15 8.95801C12.8139 8.95801 11.042 7.18613 11.042 5C11.042 2.81387 12.8139 1.04199 15 1.04199Z" fill="#251455"/>
</svg>
