<svg width="20" height="20" viewBox="0 0 20 20" fill="none" xmlns="http://www.w3.org/2000/svg">
<path d="M5.20801 10.625C7.50919 10.625 9.375 12.4908 9.375 14.792C9.37482 17.093 7.50909 18.958 5.20801 18.958C2.90708 18.9578 1.04217 17.0929 1.04199 14.792C1.04199 12.4909 2.90697 10.6252 5.20801 10.625ZM14.792 10.625C17.093 10.6252 18.958 12.4909 18.958 14.792C18.9578 17.0929 17.0929 18.9578 14.792 18.958C12.4909 18.958 10.6252 17.093 10.625 14.792C10.625 12.4908 12.4908 10.625 14.792 10.625ZM5.20801 11.875C3.59733 11.8752 2.29199 13.1813 2.29199 14.792C2.29217 16.4026 3.59744 17.7078 5.20801 17.708C6.81873 17.708 8.12482 16.4027 8.125 14.792C8.125 13.1812 6.81884 11.875 5.20801 11.875ZM14.792 11.875C13.1812 11.875 11.875 13.1812 11.875 14.792C11.8752 16.4027 13.1813 17.708 14.792 17.708C16.4026 17.7078 17.7078 16.4026 17.708 14.792C17.708 13.1813 16.4027 11.8752 14.792 11.875ZM5.20801 1.04199C7.50909 1.04199 9.37482 2.90697 9.375 5.20801C9.375 7.50919 7.50919 9.375 5.20801 9.375C2.90697 9.37482 1.04199 7.50909 1.04199 5.20801C1.04217 2.90708 2.90708 1.04217 5.20801 1.04199ZM14.792 1.04199C17.0929 1.04217 18.9578 2.90708 18.958 5.20801C18.958 7.50909 17.093 9.37482 14.792 9.375C12.4908 9.375 10.625 7.50919 10.625 5.20801C10.6252 2.90697 12.4909 1.04199 14.792 1.04199ZM5.20801 2.29199C3.59744 2.29217 2.29217 3.59744 2.29199 5.20801C2.29199 6.81873 3.59733 8.12482 5.20801 8.125C6.81884 8.125 8.125 6.81884 8.125 5.20801C8.12482 3.59733 6.81873 2.29199 5.20801 2.29199ZM14.792 2.29199C13.1813 2.29199 11.8752 3.59733 11.875 5.20801C11.875 6.81884 13.1812 8.125 14.792 8.125C16.4027 8.12482 17.708 6.81873 17.708 5.20801C17.7078 3.59744 16.4026 2.29217 14.792 2.29199Z" fill="#251455"/>
</svg>
