<svg width="24" height="24" viewBox="0 0 24 24" fill="none" xmlns="http://www.w3.org/2000/svg">
<path d="M8.96803 22.7502C8.88103 22.7502 8.79205 22.7352 8.70705 22.7032C5.75205 21.6042 3.66805 19.5002 2.98805 16.9312C2.33405 14.4572 3.03806 11.8252 4.97106 9.5182C5.61106 8.7542 6.18405 8.10617 6.69005 7.53417C8.49005 5.49817 9.48202 4.37618 10.202 1.79818C10.265 1.57318 10.43 1.38916 10.647 1.30316C10.865 1.21616 11.11 1.23717 11.311 1.35717C14.108 3.04017 16.764 5.51616 18.599 8.15116C20.623 11.0582 21.537 13.9912 21.17 16.4072C20.842 18.5722 19.338 21.4272 14.036 22.7282C13.718 22.8062 13.385 22.6682 13.216 22.3882C13.046 22.1082 13.078 21.7492 13.295 21.5042C15.244 19.2922 16.097 17.3402 15.903 15.5372C15.768 14.2832 15.1101 13.0602 13.9401 11.8862C13.9521 13.6192 13.302 15.0912 12.583 15.9752C12.4 16.2002 12.1031 16.2992 11.8211 16.2292C11.5391 16.1592 11.323 15.9332 11.266 15.6482C10.995 14.2912 10.192 13.6582 9.38302 13.2382C9.33202 14.3642 8.85404 15.1672 8.47604 15.8002C8.36304 15.9902 8.25604 16.1682 8.17204 16.3362C7.14304 18.3952 8.17904 19.8982 9.32804 21.2612C9.40804 21.3562 9.48304 21.4452 9.54904 21.5262C9.76304 21.7882 9.77402 22.1612 9.57702 22.4372C9.43302 22.6382 9.20406 22.7502 8.96706 22.7502H8.96803ZM12.879 9.25019C13.035 9.25019 13.1911 9.29918 13.3231 9.39618C15.7921 11.2112 17.1621 13.2232 17.3941 15.3762C17.5721 17.0292 17.092 18.7272 15.932 20.5232C18.137 19.5502 19.397 18.0962 19.687 16.1822C19.996 14.1462 19.172 11.5992 17.368 9.00819C15.828 6.79619 13.668 4.70317 11.349 3.15717C10.559 5.42317 9.47803 6.64616 7.81403 8.52816C7.31503 9.09316 6.74906 9.73317 6.12106 10.4822C4.51006 12.4042 3.91205 14.5592 4.43805 16.5482C4.76905 17.7992 5.52703 18.9222 6.61603 19.8202C6.16203 18.6862 6.02204 17.2822 6.83004 15.6652C6.93904 15.4472 7.06503 15.2362 7.18703 15.0312C7.65803 14.2422 8.10206 13.4972 7.77306 12.1822C7.70206 11.8972 7.80405 11.5962 8.03405 11.4132C8.26405 11.2302 8.58006 11.1982 8.84206 11.3322C8.96706 11.3962 9.12603 11.4662 9.29503 11.5412C10.112 11.9022 11.3391 12.4442 12.1211 13.7322C12.4501 12.8152 12.607 11.5872 12.166 10.2322C12.065 9.92217 12.1761 9.58318 12.4401 9.39218C12.5711 9.29718 12.725 9.25019 12.879 9.25019Z" fill="#251455"/>
</svg>
