<svg width="24" height="24" viewBox="0 0 24 24" fill="none" xmlns="http://www.w3.org/2000/svg">
<path d="M14.849 19.2574C15.666 19.2574 16.274 18.6114 17.007 17.8334C17.225 17.6014 17.473 17.3384 17.757 17.0534L19.723 15.0814C21.031 13.7684 21.75 13.0464 21.75 11.9974C21.75 10.9484 21.031 10.2274 19.725 8.9164L19.723 8.9144L17.757 6.94242C17.541 6.72542 17.345 6.5234 17.165 6.3394C16.105 5.2494 15.339 4.46243 14.239 4.85043C13.037 5.27343 13.009 6.85239 13.061 7.97939C12.962 7.97739 12.864 7.97543 12.767 7.97343C11.602 7.94843 10.396 7.92243 9.21201 8.14443C6.74501 8.60843 4.89704 9.8344 3.71904 11.7894C2.74404 13.4064 2.25 15.4974 2.25 18.0034C2.25 18.2834 2.40596 18.5404 2.65596 18.6694C2.90496 18.7984 3.20498 18.7774 3.43398 18.6154L3.74502 18.3944C5.00102 17.5004 6.18698 16.6554 7.57998 16.2754C9.02898 15.8784 10.673 15.9284 12.263 15.9764C12.527 15.9844 12.795 15.9924 13.063 15.9984C13.01 17.1264 13.032 18.7214 14.24 19.1464C14.457 19.2234 14.659 19.2584 14.849 19.2584V19.2574ZM18.661 9.97343L18.663 9.97543C19.653 10.9694 20.251 11.5694 20.251 11.9974C20.251 12.4254 19.654 13.0264 18.664 14.0204L16.696 15.9944C16.396 16.2954 16.141 16.5664 15.916 16.8054C15.126 17.6444 14.935 17.7964 14.745 17.7334C14.645 17.6454 14.494 17.2704 14.578 15.7654C14.589 15.5694 14.598 15.3994 14.598 15.2574C14.598 14.8434 14.262 14.5074 13.848 14.5074C13.347 14.5074 12.842 14.4924 12.308 14.4764C10.608 14.4254 8.84996 14.3724 7.18496 14.8284C5.92696 15.1714 4.84197 15.8134 3.81797 16.5114C4.18797 12.5734 6.09104 10.2574 9.49004 9.6184C10.521 9.4244 11.647 9.4494 12.736 9.4724C13.101 9.4804 13.478 9.48842 13.848 9.48842C14.262 9.48842 14.598 9.15242 14.598 8.73842C14.598 8.59742 14.589 8.42741 14.578 8.23041C14.495 6.72641 14.645 6.35139 14.745 6.26239C14.944 6.20539 15.477 6.75242 16.091 7.38442C16.275 7.57342 16.475 7.77941 16.696 8.00141L18.662 9.97343H18.661Z" fill="#251455"/>
</svg>
