<svg width="24" height="24" viewBox="0 0 24 24" fill="none" xmlns="http://www.w3.org/2000/svg">
<path d="M10.5039 4.72998C11.2139 4.72998 11.8445 5.15982 12.1045 5.81982L13.0137 8.13037C13.5237 9.43027 14.5643 10.46 15.8643 10.98L18.1738 11.8901C18.8338 12.1501 19.2636 12.7798 19.2637 13.4897C19.2637 14.1997 18.8338 14.8303 18.1738 15.0903L15.8643 15.9995C14.5643 16.5095 13.5337 17.5501 13.0137 18.8501L12.1045 21.1597C11.8445 21.8197 11.2139 22.2495 10.5039 22.2495C9.794 22.2494 9.16427 21.8196 8.9043 21.1597L7.99414 18.8501C7.48417 17.5502 6.44444 16.5195 5.14453 15.9995L2.83398 15.0903C2.17399 14.8303 1.74414 14.1997 1.74414 13.4897C1.74424 12.7799 2.17417 12.1502 2.83398 11.8901L5.14453 10.98C6.44425 10.47 7.47414 9.43009 7.99414 8.13037L8.9043 5.81982C9.16431 5.15999 9.79406 4.73008 10.5039 4.72998ZM10.5039 6.24951C10.4339 6.24956 10.3437 6.27027 10.3037 6.39014L9.39453 8.69971C8.73453 10.3797 7.3841 11.7301 5.7041 12.3901L3.39453 13.3003C3.28475 13.3402 3.25403 13.4296 3.25391 13.4995C3.25391 13.5695 3.27453 13.6597 3.39453 13.6997L5.7041 14.6099C7.3841 15.2699 8.73453 16.6203 9.39453 18.3003L10.3037 20.6099C10.3937 20.8399 10.6141 20.8399 10.7041 20.6099L11.6143 18.3003C12.2742 16.6204 13.6239 15.2699 15.3037 14.6099L17.6143 13.6997C17.7241 13.6597 17.7539 13.5695 17.7539 13.4995C17.7538 13.4296 17.7338 13.3402 17.6143 13.3003L15.3037 12.3901C13.6239 11.7301 12.2742 10.3796 11.6143 8.69971L10.7041 6.39014C10.6641 6.28014 10.5739 6.24951 10.5039 6.24951ZM18.5059 1.75146C18.9658 1.75146 19.3759 2.03145 19.5459 2.46143L19.8857 3.33154C20.0257 3.70143 20.3257 3.9913 20.6855 4.13135L21.5557 4.47119C21.9857 4.64119 22.2559 5.04146 22.2559 5.50146C22.2559 5.96145 21.9759 6.3715 21.5459 6.5415L20.6855 6.88135C20.3158 7.02135 20.0258 7.32135 19.8857 7.68115L19.5459 8.55127C19.3759 8.98127 18.9759 9.26123 18.5059 9.26123V9.25146C18.0459 9.25146 17.6358 8.9715 17.4658 8.5415L17.126 7.67139C16.986 7.30152 16.686 7.01162 16.3262 6.87158L15.4561 6.53174C15.0261 6.36174 14.7559 5.96146 14.7559 5.50146C14.7559 5.04147 15.0358 4.63143 15.4658 4.46143L16.3262 4.12158C16.696 3.98157 16.986 3.6816 17.126 3.32178L17.4658 2.46143C17.6358 2.03145 18.0459 1.75146 18.5059 1.75146ZM18.5059 3.92139C18.2059 4.63139 17.6358 5.21146 16.9258 5.50146C17.6358 5.79146 18.2159 6.37154 18.5059 7.08154C18.8059 6.37154 19.3759 5.79146 20.0859 5.50146C19.3759 5.21146 18.7959 4.63139 18.5059 3.92139Z" fill="#251455"/>
</svg>
