<svg width="24" height="24" viewBox="0 0 24 24" fill="none" xmlns="http://www.w3.org/2000/svg">
<path d="M8.90527 5.83911C9.47534 4.38923 11.5257 4.38915 12.0957 5.83911L13.0049 8.14966C13.5149 9.44955 14.5455 10.4793 15.8555 10.9993L18.165 11.9094C19.615 12.4794 19.615 14.5289 18.165 15.0989L15.8555 16.009C14.5555 16.519 13.5249 17.5496 13.0049 18.8596L12.0957 21.1692C11.5257 22.6192 9.47527 22.6192 8.90527 21.1692L7.99512 18.8596C7.48513 17.5597 6.45545 16.529 5.14551 16.009L2.83496 15.0989C1.38548 14.5287 1.38543 12.4796 2.83496 11.9094L5.14551 10.9993C6.44529 10.4893 7.47509 9.4594 7.99512 8.14966L8.90527 5.83911ZM17.4668 2.44849C17.837 1.50899 19.167 1.50887 19.5371 2.44849L19.877 3.3186C20.017 3.6886 20.3068 3.97938 20.6768 4.11938L21.5469 4.45923C22.4865 4.82933 22.4865 6.15844 21.5469 6.52856L20.6768 6.86938C20.3068 7.0094 20.0169 7.29921 19.877 7.66919L19.5371 8.53931C19.1671 9.47904 17.837 9.47892 17.4668 8.53931L17.127 7.66919C16.987 7.29937 16.6969 7.00946 16.3271 6.86938L15.457 6.52856C14.517 6.15856 14.517 4.82923 15.457 4.45923L16.3271 4.11938C16.697 3.97935 16.987 3.68852 17.127 3.3186L17.4668 2.44849Z" fill="#251455"/>
</svg>
