<svg width="24" height="22" viewBox="0 0 24 22" fill="none" xmlns="http://www.w3.org/2000/svg">
<path d="M3.23163 1.24682C6.55935 -0.816103 9.54464 0.00605941 11.3481 1.37482C11.6448 1.6 11.8484 1.7541 12 1.85817C12.1516 1.7541 12.3552 1.6 12.6519 1.37482C14.4554 0.00605941 17.4407 -0.816103 20.7684 1.24682C23.0694 2.67326 24.3641 5.65289 23.9098 9.0764C23.4533 12.5164 21.2501 16.4071 16.5844 19.8973C14.9641 21.11 13.775 22 12 22C10.225 22 9.03586 21.11 7.41565 19.8973C2.74988 16.4071 0.546724 12.5164 0.0902076 9.0764C-0.364117 5.65289 0.930625 2.67326 3.23163 1.24682Z" fill="#251455"/>
</svg>
