<svg width="24" height="22" viewBox="0 0 24 22" fill="none" xmlns="http://www.w3.org/2000/svg">
<path fill-rule="evenodd" clip-rule="evenodd" d="M3.23163 1.23371C6.55935 -0.807519 9.54464 0.00599559 11.3481 1.36036C11.6448 1.58317 11.8484 1.73565 12 1.83863C12.1516 1.73565 12.3552 1.58317 12.6519 1.36036C14.4554 0.00599559 17.4407 -0.807519 20.7684 1.23371C23.0694 2.64514 24.3641 5.59343 23.9098 8.98092C23.4533 12.3848 21.2501 16.2345 16.5844 19.688C16.5453 19.7169 16.5066 19.7455 16.4682 19.774C14.848 20.9739 13.775 21.7686 12 21.7686C10.225 21.7686 9.15199 20.9739 7.53178 19.774C7.49338 19.7455 7.45468 19.7169 7.41565 19.688C2.74988 16.2345 0.546724 12.3848 0.0902076 8.98092C-0.364117 5.59343 0.930625 2.64514 3.23163 1.23371ZM11.825 1.94652C11.8214 1.94814 11.8221 1.94761 11.8266 1.9458C11.826 1.94607 11.8255 1.94631 11.825 1.94652ZM12.1734 1.9458C12.1779 1.94761 12.1786 1.94814 12.175 1.94652C12.1745 1.94631 12.174 1.94607 12.1734 1.9458ZM10.3426 2.69931C9.00687 1.69622 6.7666 1.02975 4.10716 2.66105C2.47943 3.65951 1.36531 5.89133 1.74983 8.75833C2.13215 11.609 4.01555 15.0881 8.41184 18.3421C10.178 19.6493 10.8227 20.0941 12 20.0941C13.1773 20.0941 13.822 19.6493 15.5882 18.3421C19.9845 15.0881 21.8678 11.609 22.2502 8.75833C22.6347 5.89133 21.5206 3.65951 19.8928 2.66105C17.2334 1.02975 14.9931 1.69622 13.6574 2.69931L13.6341 2.71685C13.3322 2.94353 13.073 3.13825 12.8656 3.27402C12.7578 3.34459 12.6384 3.41646 12.5146 3.47244C12.397 3.52556 12.2164 3.59203 12 3.59203C11.7836 3.59203 11.603 3.52556 11.4854 3.47244C11.3616 3.41646 11.2422 3.34459 11.1344 3.27402C10.927 3.13824 10.6677 2.94351 10.3659 2.71681L10.3426 2.69931Z" fill="#251455"/>
</svg>
