<svg width="24" height="24" viewBox="0 0 24 24" fill="none" xmlns="http://www.w3.org/2000/svg">
<path d="M4.912 18.2743C5.11814 19.8054 6.38629 21.0049 7.92953 21.0758C9.22808 21.1355 10.5472 21.1667 11.9998 21.1667C13.4525 21.1667 14.7716 21.1355 16.0701 21.0758C17.6134 21.0049 18.8815 19.8054 19.0877 18.2743C19.2223 17.2751 19.3332 16.2511 19.3332 15.2083C19.3332 14.1655 19.2223 13.1415 19.0877 12.1424C18.8815 10.6113 17.6134 9.41178 16.0701 9.34083C14.7716 9.28114 13.4525 9.25 11.9998 9.25C10.5472 9.25 9.22808 9.28114 7.92953 9.34083C6.38629 9.41178 5.11814 10.6113 4.912 12.1424C4.77747 13.1415 4.6665 14.1655 4.6665 15.2083C4.6665 16.2511 4.77747 17.2751 4.912 18.2743Z" stroke="#251455" stroke-width="1.375"/>
<path d="M7.875 9.25004V6.95837C7.875 4.6802 9.72183 2.83337 12 2.83337C14.2782 2.83337 16.125 4.6802 16.125 6.95837V9.25004" stroke="#251455" stroke-width="1.375" stroke-linecap="round" stroke-linejoin="round"/>
<path d="M15.6665 15.1992V15.2092" stroke="#251455" stroke-width="1.83333" stroke-linecap="round" stroke-linejoin="round"/>
<path d="M12 15.1992V15.2092" stroke="#251455" stroke-width="1.83333" stroke-linecap="round" stroke-linejoin="round"/>
<path d="M8.3335 15.1992V15.2092" stroke="#251455" stroke-width="1.83333" stroke-linecap="round" stroke-linejoin="round"/>
</svg>
