<svg width="24" height="24" viewBox="0 0 24 24" fill="none" xmlns="http://www.w3.org/2000/svg">
<path d="M2 11.4004C2 10.8794 2.03574 10.3662 2.10449 9.86426C2.17946 9.31722 2.68344 8.93403 3.23047 9.00879C3.77764 9.08374 4.16089 9.58857 4.08594 10.1357C4.02949 10.5479 4 10.9703 4 11.4004C4.0002 16.2116 7.64165 20 12 20C16.3583 20 19.9998 16.2116 20 11.4004C20 10.9703 19.9705 10.5479 19.9141 10.1357C19.8391 9.58857 20.2224 9.08374 20.7695 9.00879C21.3166 8.93403 21.8205 9.31722 21.8955 9.86426C21.9643 10.3662 22 10.8794 22 11.4004C21.9998 17.1927 17.5825 22 12 22C6.41746 22 2.0002 17.1927 2 11.4004ZM8.79297 11.207C8.50698 10.921 8.42139 10.4909 8.57617 10.1172C8.73098 9.74359 9.09559 9.50001 9.5 9.5H11L11 3C11 2.44773 11.4477 2.00002 12 2C12.5523 2 13 2.44772 13 3L13 9.5H14.5C14.9044 9.5 15.269 9.74359 15.4238 10.1172C15.5786 10.4909 15.493 10.921 15.207 11.207L12.707 13.707C12.3165 14.0975 11.6835 14.0976 11.293 13.707L8.79297 11.207Z" fill="#251455"/>
</svg>
