<svg width="24" height="24" viewBox="0 0 24 24" fill="none" xmlns="http://www.w3.org/2000/svg">
<path d="M2.25 11.4004C2.25 10.8908 2.28437 10.389 2.35156 9.89844C2.40778 9.48806 2.78688 9.20062 3.19727 9.25684C3.60735 9.31325 3.89397 9.6914 3.83789 10.1016C3.7799 10.5249 3.75 10.959 3.75 11.4004C3.7502 16.3343 7.48863 20.25 12 20.25C16.5114 20.25 20.2498 16.3343 20.25 11.4004C20.25 10.959 20.2201 10.5249 20.1621 10.1016C20.106 9.6914 20.3927 9.31325 20.8027 9.25684C21.2131 9.20062 21.5922 9.48806 21.6484 9.89844C21.7156 10.389 21.75 10.8908 21.75 11.4004C21.7498 17.07 17.4295 21.75 12 21.75C6.57049 21.75 2.2502 17.07 2.25 11.4004ZM8.96973 11.0303C8.67683 10.7374 8.67683 10.2626 8.96973 9.96973C9.26262 9.67683 9.73738 9.67683 10.0303 9.96973L11.25 11.1895L11.25 3C11.25 2.58579 11.5858 2.25 12 2.25C12.4142 2.25 12.75 2.58579 12.75 3L12.75 11.1895L13.9697 9.96973C14.2626 9.67683 14.7374 9.67683 15.0303 9.96973C15.3232 10.2626 15.3232 10.7374 15.0303 11.0303L12.5303 13.5303C12.2374 13.8232 11.7626 13.8232 11.4697 13.5303L8.96973 11.0303Z" fill="#251455"/>
</svg>
