<svg width="24" height="24" viewBox="0 0 24 24" fill="none" xmlns="http://www.w3.org/2000/svg">
<path d="M9.08008 2.78638C11.033 2.73731 12.967 2.73731 14.9199 2.78638L14.9785 2.78833C16.5033 2.82662 17.7306 2.85732 18.7139 3.02856C19.7432 3.20787 20.5803 3.5515 21.2871 4.26099C21.9909 4.96746 22.3329 5.79234 22.5088 6.80493C22.6763 7.76927 22.7018 8.9667 22.7334 10.4495L22.7344 10.5081C22.7556 11.5044 22.7556 12.4952 22.7344 13.4915L22.7334 13.55C22.7018 15.0329 22.6763 16.2302 22.5088 17.1946C22.3329 18.2072 21.9908 19.032 21.2871 19.7385C20.5803 20.448 19.7432 20.7916 18.7139 20.9709C17.7306 21.1422 16.5033 21.1739 14.9785 21.2122L14.9199 21.2131C12.967 21.2622 11.033 21.2622 9.08008 21.2131L9.02246 21.2122C7.4977 21.1739 6.2704 21.1422 5.28711 20.9709C4.25761 20.7917 3.42073 20.4481 2.71387 19.7385C2.01002 19.032 1.66807 18.2073 1.49219 17.1946C1.32472 16.2302 1.29918 15.0329 1.26758 13.55L1.2666 13.4915C1.24536 12.4952 1.24536 11.5044 1.2666 10.5081L1.26758 10.4495C1.29917 8.9667 1.32472 7.76927 1.49219 6.80493C1.66809 5.79234 2.01007 4.96746 2.71387 4.26099C3.4207 3.55154 4.25769 3.20784 5.28711 3.02856C6.2704 2.85734 7.49772 2.82661 9.02246 2.78833L9.08008 2.78638ZM15.458 10.5657C14.1648 11.2984 13.1134 11.7463 12.001 11.7463C10.8885 11.7463 9.83722 11.2985 8.54395 10.5657L2.92188 7.38013C2.81799 8.17251 2.79475 9.17429 2.76562 10.5403C2.74484 11.5152 2.74484 12.4843 2.76562 13.4592C2.7988 15.0146 2.82396 16.0982 2.96973 16.9377C3.1093 17.7415 3.34922 18.2511 3.77637 18.6799C4.20057 19.1057 4.71664 19.3493 5.54395 19.4934C6.40518 19.6434 7.5215 19.674 9.11816 19.7141C11.046 19.7625 12.955 19.7625 14.8828 19.7141C16.4793 19.674 17.5949 19.6434 18.4561 19.4934C19.2835 19.3493 19.7994 19.1057 20.2236 18.6799C20.6509 18.2511 20.8907 17.7416 21.0303 16.9377C21.176 16.0982 21.2012 15.0147 21.2344 13.4592C21.2552 12.4843 21.2552 11.5152 21.2344 10.5403C21.2052 9.17425 21.182 8.17252 21.0781 7.38013L15.458 10.5657ZM14.8828 4.28638C12.955 4.23794 11.046 4.23795 9.11816 4.28638C7.5215 4.32649 6.40518 4.35612 5.54395 4.5061C4.71666 4.65022 4.20056 4.89382 3.77637 5.31958C3.60325 5.49336 3.4621 5.68129 3.34473 5.89575L9.2832 9.26099C10.5385 9.97225 11.3008 10.2463 12.001 10.2463C12.7011 10.2463 13.4628 9.97205 14.7178 9.26099L20.6553 5.89575C20.5379 5.68138 20.3967 5.4933 20.2236 5.31958C19.7994 4.89392 19.2834 4.65018 18.4561 4.5061C17.5949 4.35615 16.4792 4.32649 14.8828 4.28638Z" fill="#251455"/>
</svg>
