<svg width="24" height="24" viewBox="0 0 24 24" fill="none" xmlns="http://www.w3.org/2000/svg">
<path d="M7.25 2.53609C7.71036 2.30601 8.24863 2.29039 8.72168 2.49313L15.1543 5.24996H21C21.9665 5.24996 22.75 6.03346 22.75 6.99996V20C22.7498 20.9663 21.9664 21.75 21 21.75H15C14.9463 21.75 14.8942 21.7431 14.8438 21.7324C14.8001 21.7231 14.7573 21.7103 14.7158 21.6933C14.7123 21.6919 14.7086 21.6909 14.7051 21.6894L7.9668 18.8017L3.55371 20.2724C2.42054 20.6501 1.25001 19.8067 1.25 18.6123V6.61813C1.25 5.95527 1.6249 5.34913 2.21777 5.0527L7.25 2.53609ZM15.75 20.25H21C21.138 20.25 21.2498 20.1379 21.25 20V6.99996C21.25 6.86189 21.1381 6.74996 21 6.74996H15.75V20.25ZM8.75 17.5048L14.25 19.8623V6.4941L8.75 4.13668V17.5048ZM2.88867 6.39449C2.80398 6.43684 2.75 6.52343 2.75 6.61813V18.6123C2.75001 18.7829 2.91722 18.9035 3.0791 18.8496L7.25 17.4589V4.21285L2.88867 6.39449Z" fill="#6033DC"/>
</svg>
