<svg width="24" height="24" viewBox="0 0 24 24" fill="none" xmlns="http://www.w3.org/2000/svg">
<path d="M15.669 8.93042C16.2696 8.9304 16.7796 8.93039 17.2025 8.97185C17.6525 9.01596 18.0695 9.1116 18.4688 9.34161C18.8679 9.57154 19.1593 9.88357 19.4225 10.2501C19.6695 10.5941 19.9236 11.0338 20.2225 11.5507L20.2226 11.5507C20.3353 11.7457 20.4939 12.0209 20.6062 12.2166C20.7914 12.5391 20.9753 12.8593 21.0826 13.1359C21.1999 13.4379 21.3134 13.9062 21.0405 14.3753C20.7673 14.845 20.3024 14.9776 19.983 15.0256C19.6884 15.0699 19.3171 15.0698 18.9413 15.0697H5.05831C4.6825 15.0698 4.31115 15.0699 4.01658 15.0256C3.69714 14.9776 3.23226 14.845 2.95906 14.3753C2.68619 13.9062 2.79972 13.4379 2.91697 13.1359C3.0243 12.8593 3.20817 12.5391 3.39337 12.2166C3.50568 12.0209 3.66427 11.7457 3.77702 11.5508C4.07592 11.0338 4.33012 10.5942 4.57712 10.2501C4.84025 9.88357 5.13166 9.57154 5.53079 9.34161C5.93008 9.1116 6.34706 9.01596 6.79707 8.97185C7.21997 8.93039 7.73002 8.9304 8.33056 8.93042H8.33059H15.669H15.669Z" fill="#251455"/>
<path opacity="0.4" d="M20.5869 16.7441C20.8851 16.7441 21.1715 16.7444 21.415 16.7705C21.6897 16.8 21.9752 16.8674 22.2539 17.042C22.7365 17.3443 23.0235 17.9417 23.2373 18.3867C23.9262 19.8064 24.3491 21.1503 23.6182 22.3506C23.0395 23.3006 22.033 23.6681 20.8701 23.835C19.7242 23.9994 18.1879 23.999 16.2656 23.999H7.73535C5.81306 23.999 4.27685 23.9994 3.13086 23.835C1.96779 23.6681 0.961578 23.3007 0.382812 22.3506C-0.348287 21.1503 0.0738395 19.8064 0.762695 18.3867C0.976518 17.9416 1.26441 17.3443 1.74707 17.042C2.02585 16.8675 2.31119 16.8 2.58594 16.7705C2.82945 16.7444 3.11497 16.7441 3.41309 16.7441H20.5869ZM12 0.000976562C12.7454 0.000976562 13.3924 0.299926 13.9648 0.760742C14.524 1.21089 15.0479 1.8423 15.5723 2.58301C16.0441 3.24942 16.4947 3.88741 16.7383 4.37988C16.9961 4.90136 17.1764 5.54329 16.8389 6.19824C16.4958 6.8639 15.8456 7.08235 15.2656 7.1709C14.7076 7.25608 13.9709 7.25592 13.1182 7.25586H10.8818C10.029 7.25592 9.29235 7.25609 8.73438 7.1709C8.15452 7.08232 7.5041 6.86375 7.16113 6.19824C6.8238 5.54345 7.00397 4.90127 7.26172 4.37988C7.50527 3.8874 7.95688 3.24943 8.42871 2.58301C8.95296 1.84247 9.47614 1.21083 10.0352 0.760742C10.6076 0.299911 11.2547 0.00104463 12 0.000976562Z" fill="#251455"/>
</svg>
