<svg width="24" height="24" viewBox="0 0 24 24" fill="none" xmlns="http://www.w3.org/2000/svg">
<path d="M14.6499 10.2926C15.5382 10.2356 16.4646 10.2357 17.3511 10.2926C20.2236 10.477 22.5335 12.7204 22.7241 15.5641C22.7585 16.0781 22.7585 16.6097 22.7241 17.1237C22.6525 18.1926 22.1748 19.1394 21.6646 19.8864C21.6386 19.9414 21.6226 20.0267 21.647 20.1705C21.6756 20.3388 21.7543 20.5432 21.8784 20.7701C21.8842 20.7807 21.8901 20.7916 21.896 20.8024C21.9854 20.9656 22.0882 21.1534 22.1499 21.3199C22.2172 21.5017 22.316 21.8678 22.0923 22.236C21.8938 22.5625 21.5827 22.6696 21.3735 22.7086C21.2068 22.7397 21.0092 22.7441 20.8521 22.7477C20.8406 22.7479 20.8289 22.7484 20.8179 22.7487C19.9031 22.7701 19.2421 22.5134 18.7163 22.1393C18.6869 22.1183 18.6602 22.0996 18.6362 22.0826C18.5886 22.1012 18.5346 22.1229 18.4712 22.1481C18.1159 22.2893 17.717 22.3716 17.3511 22.3951C16.4646 22.452 15.5382 22.4521 14.6499 22.3951C11.7771 22.2108 9.46636 19.9677 9.27588 17.1237C9.24146 16.6097 9.24145 16.0781 9.27588 15.5641C9.46653 12.7202 11.7772 10.4769 14.6499 10.2926ZM17.2544 11.7897C16.4319 11.7369 15.5698 11.7368 14.7456 11.7897C12.599 11.9275 10.9115 13.5966 10.7729 15.6647C10.743 16.1118 10.743 16.5759 10.7729 17.0231C10.9115 19.0911 12.599 20.7612 14.7456 20.899C15.5698 20.9519 16.4319 20.9518 17.2544 20.899C17.4768 20.8848 17.7195 20.8318 17.9165 20.7535L17.9331 20.7467C18.0723 20.6914 18.2031 20.6398 18.3081 20.6041C18.3103 20.6034 18.3134 20.603 18.3159 20.6022C18.3932 20.5758 18.5987 20.5054 18.8218 20.5319C19.0415 20.558 19.2137 20.6659 19.2837 20.7096C19.3696 20.7632 19.4707 20.8346 19.5708 20.9059L19.5854 20.9166C19.7985 21.0682 20.0564 21.1935 20.4331 21.235C20.1693 20.6707 19.9475 19.8667 20.3726 19.1237C20.383 19.1054 20.3948 19.0873 20.4067 19.0699C20.8529 18.4235 21.1809 17.7263 21.228 17.0231C21.258 16.5759 21.258 16.1118 21.228 15.6647C21.0895 13.5965 19.4012 11.9274 17.2544 11.7897ZM9.40381 1.31897C10.7924 1.22711 12.2438 1.22692 13.6353 1.31897C17.9795 1.6064 21.4339 5.08379 21.7446 9.4469C21.7739 9.8599 21.4633 10.2181 21.0503 10.2477C20.6372 10.2771 20.278 9.96646 20.2485 9.55334C19.9903 5.92659 17.1221 3.05347 13.5366 2.81604C12.2112 2.72835 10.8252 2.72853 9.50244 2.81604C5.90162 3.05441 3.02356 5.95146 2.78662 9.60022C2.73768 10.3542 2.73766 11.1363 2.78662 11.8903C2.86965 13.1682 3.44347 14.3942 4.17334 15.485C4.18489 15.5022 4.19549 15.5205 4.20557 15.5387C4.85292 16.7055 4.37658 18.0312 3.90088 18.9283C3.83662 19.0495 3.7816 19.1526 3.73486 19.2438C3.79105 19.2454 3.85279 19.247 3.92139 19.2487C4.9312 19.2731 5.56914 18.9951 6.07666 18.6227L6.09424 18.61C6.259 18.4891 6.40978 18.3789 6.53467 18.2985C6.64261 18.2289 6.84567 18.1022 7.09326 18.0719C7.31651 18.0447 7.52152 18.1051 7.62744 18.1383C7.75795 18.1793 7.91076 18.2388 8.07275 18.3043C8.45655 18.4596 8.64188 18.897 8.48682 19.2809C8.3316 19.6649 7.89428 19.8502 7.51025 19.6949C7.41306 19.6557 7.33768 19.6269 7.27881 19.6051C7.20396 19.6568 7.105 19.7285 6.96436 19.8317C6.20395 20.3897 5.24422 20.7806 3.88525 20.7477C3.87068 20.7473 3.85603 20.7471 3.84131 20.7467C3.58163 20.7405 3.30024 20.7343 3.0708 20.6901C2.79354 20.6366 2.4443 20.5015 2.2251 20.1295C1.98557 19.7229 2.08276 19.3125 2.17334 19.0602C2.25862 18.8227 2.40577 18.545 2.5542 18.2653C2.56124 18.252 2.56865 18.2385 2.57568 18.2252C3.01824 17.3904 3.1322 16.7247 2.90674 16.2887C2.1131 15.096 1.39674 13.6226 1.29053 11.9869C1.23737 11.1682 1.23736 10.3213 1.29053 9.50256C1.57556 5.1133 5.04104 1.60759 9.40381 1.31897Z" fill="#251455"/>
</svg>
