<svg width="24" height="24" viewBox="0 0 24 24" fill="none" xmlns="http://www.w3.org/2000/svg">
<path d="M14.6499 10.2922C15.5381 10.2353 16.4647 10.2354 17.3511 10.2922C20.2237 10.4767 22.5336 12.7208 22.7241 15.5647C22.7585 16.0787 22.7585 16.6103 22.7241 17.1243C22.6524 18.1931 22.1747 19.1401 21.6646 19.887C21.6387 19.942 21.6226 20.0274 21.647 20.1711C21.6756 20.3393 21.7544 20.5439 21.8784 20.7708L21.896 20.802C21.9854 20.9653 22.0882 21.1539 22.1499 21.3206C22.2172 21.5025 22.316 21.8685 22.0923 22.2366C21.8938 22.563 21.5826 22.6702 21.3735 22.7092C21.2069 22.7403 21.0092 22.7448 20.8521 22.7483H20.8179C19.9029 22.7697 19.2422 22.5131 18.7163 22.1389L18.6362 22.0823C18.5886 22.1009 18.5346 22.1225 18.4712 22.1477C18.1159 22.2889 17.717 22.3722 17.3511 22.3958C16.4646 22.4526 15.5381 22.4527 14.6499 22.3958C11.7772 22.2115 9.46657 19.9681 9.27588 17.1243C9.24146 16.6103 9.24146 16.0787 9.27588 15.5647C9.46636 12.7207 11.7771 10.4765 14.6499 10.2922ZM9.38818 1.31763C10.7681 1.22766 12.2181 1.22764 13.6079 1.31763C17.9677 1.60774 21.4274 5.10752 21.7075 9.49731C21.7275 9.81731 21.738 9.97786 21.688 10.0579C21.628 10.1478 21.5475 10.1875 21.4575 10.1975C21.3575 10.2074 21.2076 10.1072 20.9077 9.91724C19.8977 9.27728 18.7077 8.87712 17.4478 8.79712C16.4978 8.72712 15.5074 8.72712 14.5474 8.79712C10.9576 9.02725 8.01797 11.8375 7.77783 15.4573C7.73784 16.0471 7.73786 16.6372 7.77783 17.217C7.81783 17.857 7.94819 18.4574 8.13818 19.0374C8.28803 19.4669 8.35743 19.6771 8.27783 19.7971C8.24783 19.8471 8.20771 19.8777 8.15771 19.8977C8.02772 19.9677 7.80764 19.8677 7.36768 19.6477C7.36852 19.6481 7.38723 19.6575 7.36768 19.6575C7.35785 19.6476 7.37753 19.6576 7.36768 19.6477H7.30811C7.28813 19.6477 7.25779 19.6475 7.23779 19.6575C7.16779 19.6675 7.1276 19.6978 7.0376 19.7678L6.95752 19.8274C6.19752 20.3874 5.23743 20.7773 3.87744 20.7473H3.8374C3.57757 20.7373 3.29774 20.7277 3.06787 20.6877C2.78787 20.6377 2.43729 20.4972 2.21729 20.1272C1.97772 19.7175 2.07754 19.3078 2.16748 19.0579C2.25744 18.818 2.39744 18.5477 2.54736 18.2678L2.56787 18.2278C3.00787 17.3878 3.12795 16.7274 2.89795 16.2874C2.10795 15.0974 1.3976 13.6175 1.2876 11.9875C1.2376 11.1676 1.2376 10.3173 1.2876 9.49731C1.56771 5.10742 5.02826 1.60762 9.38818 1.31763Z" fill="#251455"/>
</svg>
