<svg width="24" height="24" viewBox="0 0 24 24" fill="none" xmlns="http://www.w3.org/2000/svg">
<path fill-rule="evenodd" clip-rule="evenodd" d="M14.7728 4.25746L14.9074 4.12292C15.5107 3.51961 16.4863 3.52529 17.0865 4.12546L19.8742 6.91318C20.4744 7.51335 20.4801 8.48897 19.8768 9.09228L19.7423 9.22679C20.1686 10.0064 20.6769 11.1123 21.0749 12.3737C21.5665 13.9316 21.9081 15.7836 21.6752 17.5767C21.6352 17.8847 21.4095 18.1362 21.1076 18.2092C20.8056 18.2821 20.49 18.1613 20.3138 17.9055C19.0546 16.0772 18.3457 15.0661 16.2562 12.6907C15.6514 13.1437 14.7914 13.091 14.2439 12.5434L11.4562 9.75573C10.9087 9.20821 10.8559 8.34823 11.3089 7.74351C8.93358 5.65408 7.92242 4.94512 6.09411 3.68598C5.83829 3.5098 5.71754 3.19415 5.79047 2.89221C5.8634 2.59027 6.1149 2.36453 6.42294 2.32454C8.21606 2.09171 10.0681 2.43328 11.626 2.92485C12.8874 3.32286 13.9932 3.83111 14.7728 4.25746ZM12.3599 6.67034L13.6622 5.36806C12.9993 5.03273 12.1379 4.65927 11.1746 4.35533C10.4515 4.12717 9.6853 3.94272 8.91281 3.83967C9.87493 4.55108 10.8561 5.34569 12.3599 6.67034ZM17.3293 11.6397C18.654 13.1436 19.4487 14.1247 20.1601 15.0869C20.057 14.3144 19.8726 13.5481 19.6444 12.8251C19.3405 11.8618 18.967 11.0003 18.6317 10.3374L17.3293 11.6397ZM16.0258 5.18612C16.0069 5.16719 15.981 5.17059 15.968 5.18358L12.5143 8.63729C12.5013 8.65027 12.4979 8.67613 12.5168 8.69506L15.3046 11.4828C15.3235 11.5017 15.3494 11.4983 15.3624 11.4853L18.8161 8.03162C18.8291 8.01863 18.8325 7.99277 18.8136 7.97384L16.0258 5.18612ZM11.0031 10.8877C11.296 11.1806 11.296 11.6555 11.0031 11.9484L3.95365 18.9977C3.68387 19.2675 3.6741 19.7282 3.97283 20.0269C4.27156 20.3257 4.73228 20.3159 5.00206 20.0461L12.0515 12.9968C12.3444 12.7039 12.8192 12.7039 13.1121 12.9968C13.405 13.2897 13.405 13.7646 13.1121 14.0574L6.06272 21.1068C5.18888 21.9806 3.77825 21.9537 2.91218 21.0876C2.0461 20.2215 2.01915 18.8109 2.89299 17.9371L9.9424 10.8877C10.2353 10.5948 10.7102 10.5948 11.0031 10.8877Z" fill="#251455"/>
</svg>
