<svg width="24" height="24" viewBox="0 0 24 24" fill="none" xmlns="http://www.w3.org/2000/svg">
<path d="M13.3037 13.8005L5.9668 21.1384C5.96142 21.1438 5.95573 21.1488 5.9502 21.1541C5.08552 21.9663 3.73146 21.9451 2.89258 21.1062C2.05417 20.2673 2.03359 18.9141 2.8457 18.0496C2.85091 18.044 2.85596 18.0383 2.86133 18.033L10.1992 10.696L13.3037 13.8005ZM20.4521 10.6951C21.1711 12.2496 21.5048 13.7164 21.6494 14.8992C21.7508 15.7287 21.7604 16.4219 21.7432 16.9119C21.7345 17.157 21.7081 17.5258 21.6787 17.7166C21.6302 18.0317 21.3868 18.2815 21.0732 18.3396C20.7601 18.3974 20.4444 18.2516 20.2861 17.9753C20.2481 17.9127 20.1364 17.7302 20.0537 17.6023C19.8883 17.3464 19.6308 16.9626 19.2676 16.4646C18.7861 15.8045 18.1188 14.9424 17.2373 13.9089L20.4521 10.6951ZM15.708 3.71362C15.8889 3.68391 16.074 3.68386 16.2549 3.71362C16.5831 3.76771 16.8378 3.92791 17.0469 4.09644C17.2384 4.25083 17.4474 4.45979 17.6719 4.68433L19.3164 6.32886C19.541 6.55338 19.7499 6.76227 19.9043 6.95386C20.073 7.16318 20.2332 7.41819 20.2871 7.74683C20.3167 7.92738 20.3167 8.11217 20.2871 8.29272C20.2331 8.62131 20.073 8.8764 19.9043 9.08569C19.7498 9.27732 19.541 9.48611 19.3164 9.71069L16.7461 12.281C16.5361 12.4922 16.3082 12.7216 16.0361 12.8494C15.5828 13.0621 15.0578 13.0621 14.6045 12.8494C14.4358 12.7702 14.3004 12.6628 14.1895 12.5642L11.4365 9.81128C11.338 9.70047 11.2305 9.56483 11.1514 9.39624C10.9386 8.9428 10.9385 8.41803 11.1514 7.9646C11.2791 7.69263 11.5086 7.46454 11.7197 7.25464L14.29 4.68433C14.5145 4.45979 14.7235 4.25083 14.915 4.09644C15.1242 3.92782 15.3796 3.76765 15.708 3.71362ZM7.08789 2.25659C7.5779 2.23931 8.27095 2.24804 9.10059 2.34937C10.2835 2.49385 11.751 2.8277 13.3057 3.54663L10.0898 6.76245C9.05648 5.88103 8.19517 5.21369 7.53516 4.73218C7.0372 4.3689 6.65332 4.11153 6.39746 3.94604C6.27129 3.86445 6.03401 3.71964 6.02734 3.71558L6.02539 3.71362C5.7488 3.55539 5.60223 3.23986 5.66016 2.92651C5.71826 2.61302 5.96811 2.37061 6.2832 2.32202L6.28516 2.32104C6.51966 2.27717 6.84291 2.26523 7.08789 2.25659Z" fill="#251455"/>
</svg>
