<svg width="24" height="24" viewBox="0 0 24 24" fill="none" xmlns="http://www.w3.org/2000/svg">
<path d="M6.00879 10.75C6.69915 10.75 7.25879 11.3096 7.25879 12C7.25879 12.6904 6.69915 13.25 6.00879 13.25H6C5.30964 13.25 4.75 12.6904 4.75 12C4.75 11.3096 5.30964 10.75 6 10.75H6.00879ZM12.0049 10.75C12.6952 10.75 13.2549 11.3096 13.2549 12C13.2549 12.6904 12.6952 13.25 12.0049 13.25H11.9961C11.3057 13.25 10.7461 12.6904 10.7461 12C10.7461 11.3096 11.3057 10.75 11.9961 10.75H12.0049ZM18.0088 10.75C18.6991 10.75 19.2588 11.3096 19.2588 12C19.2588 12.6904 18.6991 13.25 18.0088 13.25H18C17.3096 13.25 16.75 12.6904 16.75 12C16.75 11.3096 17.3096 10.75 18 10.75H18.0088Z" fill="#251455"/>
<path d="M6.00879 10.75C6.69915 10.75 7.25879 11.3096 7.25879 12C7.25879 12.6904 6.69915 13.25 6.00879 13.25H6C5.30964 13.25 4.75 12.6904 4.75 12C4.75 11.3096 5.30964 10.75 6 10.75H6.00879ZM12.0049 10.75C12.6952 10.75 13.2549 11.3096 13.2549 12C13.2549 12.6904 12.6952 13.25 12.0049 13.25H11.9961C11.3057 13.25 10.7461 12.6904 10.7461 12C10.7461 11.3096 11.3057 10.75 11.9961 10.75H12.0049ZM18.0088 10.75C18.6991 10.75 19.2588 11.3096 19.2588 12C19.2588 12.6904 18.6991 13.25 18.0088 13.25H18C17.3096 13.25 16.75 12.6904 16.75 12C16.75 11.3096 17.3096 10.75 18 10.75H18.0088Z" fill="#251455"/>
</svg>
