<svg width="24" height="24" viewBox="0 0 24 24" fill="none" xmlns="http://www.w3.org/2000/svg">
<path d="M14.1211 20.6581C15.1046 20.5746 15.5966 20.533 15.7217 20.9052C15.8464 21.2779 15.4904 21.5026 14.7773 21.951C13.974 22.4563 13.0183 22.7479 11.998 22.7479C10.9778 22.7479 10.0221 22.4563 9.21875 21.951C8.50578 21.5027 8.14966 21.2779 8.27441 20.9052C8.39944 20.5329 8.8915 20.5746 9.875 20.6581C11.282 20.7774 12.7141 20.7774 14.1211 20.6581ZM12 1.24988C16.4557 1.25008 20.0713 4.84187 20.0713 9.27722C20.0714 10.3088 20.1415 11.0872 20.6172 11.787C20.7982 12.0495 21.1408 12.4936 21.3691 12.8505C21.6249 13.2502 21.875 13.7322 21.9609 14.2938C22.2413 16.1266 20.949 17.3139 19.6621 17.8456C15.1294 19.7184 8.86956 19.7184 4.33691 17.8456C3.05002 17.3138 1.75777 16.1266 2.03809 14.2938C2.12403 13.7322 2.37412 13.2502 2.62988 12.8505C2.85828 12.4935 3.20179 12.0495 3.38281 11.787C3.85825 11.0873 3.92763 10.3086 3.92773 9.27722C3.92777 4.84177 7.54418 1.24988 12 1.24988Z" fill="#251455"/>
</svg>
