<svg width="24" height="24" viewBox="0 0 24 24" fill="none" xmlns="http://www.w3.org/2000/svg">
<path d="M14.5396 20.4092C14.866 20.1543 15.3373 20.2117 15.5923 20.5381C15.8473 20.8645 15.7888 21.3358 15.4624 21.5908C14.5314 22.3181 13.3164 22.75 12.0005 22.75C10.6847 22.7499 9.47047 22.318 8.53955 21.5908C8.21312 21.3358 8.15469 20.8645 8.40967 20.5381C8.66465 20.2117 9.13599 20.1543 9.4624 20.4092C10.1235 20.9256 11.0116 21.2499 12.0005 21.25C12.9896 21.25 13.8783 20.9257 14.5396 20.4092ZM12.0005 1.25C16.5468 1.25012 20.2748 4.82165 20.2749 9.2793C20.275 10.3065 20.3459 11.0729 20.8276 11.7627C20.9158 11.8872 21.0096 12.0109 21.1118 12.1465C21.1385 12.1819 21.1659 12.2187 21.1938 12.2559C21.3251 12.4306 21.4676 12.6217 21.6001 12.8232C21.8628 13.2227 22.122 13.7088 22.2114 14.2773C22.5037 16.1366 21.1553 17.3239 19.8481 17.8496C15.2059 19.7161 8.79512 19.7161 4.15283 17.8496C2.84554 17.324 1.4973 16.1368 1.78955 14.2773C1.87897 13.7088 2.13824 13.2227 2.40088 12.8232C2.53331 12.6219 2.67495 12.4305 2.80615 12.2559C2.83411 12.2186 2.8615 12.1819 2.88818 12.1465C2.99045 12.0108 3.08415 11.8872 3.17236 11.7627C3.65409 11.0729 3.725 10.3064 3.7251 9.2793C3.72516 4.82158 7.45408 1.25 12.0005 1.25ZM12.0005 2.75C8.23523 2.75 5.22516 5.69651 5.2251 9.2793C5.225 10.3318 5.1722 11.5213 4.40088 12.624L4.39795 12.627C4.29499 12.7724 4.18388 12.9203 4.07959 13.0586C4.05453 13.0918 4.02943 13.1242 4.00537 13.1562C3.87682 13.3274 3.75897 13.4875 3.65381 13.6475C3.44102 13.9711 3.31231 14.2479 3.271 14.5107C3.13809 15.3572 3.69169 16.0476 4.7124 16.458C8.99561 18.1801 15.0054 18.1802 19.2886 16.458C20.3092 16.0476 20.862 15.3572 20.729 14.5107C20.6877 14.2479 20.559 13.9711 20.3462 13.6475C20.2411 13.4876 20.1231 13.3273 19.9946 13.1562C19.9707 13.1244 19.9463 13.0917 19.9214 13.0586C19.8171 12.9203 19.706 12.7724 19.603 12.627L19.6001 12.624C18.8287 11.5213 18.775 10.3319 18.7749 9.2793C18.7748 5.69658 15.7656 2.75012 12.0005 2.75Z" fill="#251455"/>
</svg>
