<svg width="24" height="23" viewBox="0 0 24 23" fill="none" xmlns="http://www.w3.org/2000/svg">
<path d="M23.1631 0.428711C23.6252 0.42887 23.9998 0.803512 24 1.26562C24 4.13415 22.2215 6.88824 20.3232 8.79004C20.1646 8.94897 20.0858 9.02872 20.0645 9.12305C20.0432 9.21732 20.0814 9.32578 20.1582 9.54297C20.4083 10.25 20.5689 10.9995 20.627 11.7764C20.6421 11.9788 20.6497 12.0803 20.5977 12.1699C20.5456 12.2596 20.4489 12.3057 20.2559 12.3975L19.3818 12.8125C17.8675 13.4051 16.7442 14.8119 16.7441 16.5137C16.7441 17.9104 17.5055 19.1148 18.6143 19.8242L18.7295 19.9043C18.9754 20.0735 19.0989 20.1583 19.1318 20.2744C19.152 20.3458 19.1461 20.4332 19.1162 20.501C19.0675 20.6112 18.9411 20.674 18.6895 20.7998C16.9343 21.6774 14.5678 22.1963 12 22.1963C9.43219 22.1963 7.06568 21.6774 5.31055 20.7998C5.05439 20.6717 4.92638 20.6075 4.87793 20.4951C4.84904 20.4278 4.8432 20.341 4.86328 20.2705C4.89708 20.1529 5.02336 20.0677 5.27539 19.8984L5.38184 19.8271C6.49299 19.1181 7.25586 17.9122 7.25586 16.5137C7.25582 14.8107 6.13118 13.4033 4.61523 12.8115L3.74805 12.4072C3.55319 12.3165 3.45515 12.2715 3.40234 12.1816C3.34951 12.0916 3.35704 11.9892 3.37207 11.7852C3.42952 11.005 3.59075 10.2527 3.8418 9.54297C3.91862 9.32578 3.95682 9.21732 3.93555 9.12305C3.91423 9.02872 3.83539 8.94897 3.67676 8.79004C1.77847 6.88824 0 4.13415 0 1.26562C0.000195847 0.803512 0.374793 0.42887 0.836914 0.428711C4.8455 0.428711 7.32729 2.26015 8.58594 3.91016C8.7479 4.12247 8.82919 4.22868 8.92969 4.26074C9.03012 4.29278 9.15664 4.25335 9.40918 4.1748C11.0887 3.65239 12.9113 3.65239 14.5908 4.1748C14.8434 4.25335 14.9699 4.29278 15.0703 4.26074C15.1708 4.22868 15.2521 4.12247 15.4141 3.91016C16.6727 2.26015 19.1545 0.428711 23.1631 0.428711ZM20.3887 14.2119C20.4868 14.2036 20.543 14.2202 20.6211 14.2803C20.6692 14.3174 20.7286 14.4137 20.8477 14.6055C20.8962 14.6837 20.9514 14.7679 21.0117 14.8613C21.0511 14.9223 21.0932 14.9869 21.1377 15.0566C21.4144 15.4903 21.7675 16.0928 21.7676 16.8936C21.7676 17.6033 21.5337 18.2472 21.1396 18.8184C20.9921 19.0322 20.9183 19.1398 20.7822 19.165C20.6459 19.1901 20.5276 19.1081 20.291 18.9453L19.5518 18.4365C19.5433 18.4307 19.5341 18.4254 19.5254 18.4199C18.8352 17.9821 18.4189 17.2775 18.4189 16.5137C18.419 15.5859 19.0399 14.736 20.0127 14.3643C20.1358 14.3171 20.2554 14.2232 20.3887 14.2119ZM3.60059 14.2129C3.73729 14.2203 3.86274 14.3163 3.98828 14.3643C4.96098 14.7361 5.58199 15.5859 5.58203 16.5137C5.58203 17.2775 5.16578 17.9821 4.47559 18.4199L4.45703 18.4316L3.69824 18.9414C3.4618 19.1002 3.34319 19.179 3.20801 19.1533C3.0727 19.1274 2.99939 19.0213 2.85352 18.8086C2.46353 18.2398 2.23242 17.5992 2.23242 16.8936C2.23252 16.0928 2.58565 15.4903 2.8623 15.0566C2.90664 14.9872 2.94905 14.9221 2.98828 14.8613C3.04627 14.7715 3.09938 14.6898 3.14648 14.6143C3.27077 14.4148 3.33265 14.3145 3.38477 14.2764C3.45815 14.2226 3.50983 14.208 3.60059 14.2129ZM13.7559 14.9658C13.4568 14.6096 12.9287 14.5652 12.5762 14.8672C12.1577 15.2261 12.0218 15.2305 12.0059 15.2305C11.9848 15.2303 11.8471 15.2208 11.4209 14.8623C11.0655 14.5634 10.537 14.6125 10.2412 14.9717C9.94564 15.3309 9.99429 15.8642 10.3496 16.1631C10.808 16.5487 11.3436 16.919 11.9961 16.9229C12.6546 16.9266 13.1936 16.5575 13.6592 16.1582C14.0117 15.8559 14.0548 15.3221 13.7559 14.9658ZM8.64258 10.4355C8.02607 10.4355 7.52637 10.9414 7.52637 11.5645C7.52655 12.1874 8.02619 12.6924 8.64258 12.6924H8.65234C9.26873 12.6924 9.76837 12.1874 9.76855 11.5645C9.76855 10.9414 9.26885 10.4355 8.65234 10.4355H8.64258ZM15.3486 10.4355C14.7322 10.4357 14.2324 10.9414 14.2324 11.5645C14.2326 12.1873 14.7323 12.6923 15.3486 12.6924H15.3584C15.9748 12.6924 16.4754 12.1874 16.4756 11.5645C16.4756 10.9414 15.9749 10.4355 15.3584 10.4355H15.3486Z" fill="#251455"/>
</svg>
