<svg width="24" height="22" viewBox="0 0 24 22" fill="none" xmlns="http://www.w3.org/2000/svg">
<path d="M23.1631 0C23.6252 0.000160544 23.9998 0.378691 24 0.845703C24 3.91292 22.0093 6.8511 19.9922 8.77637C20.4168 9.80938 20.6513 10.9419 20.6514 12.1279C20.6514 12.3952 20.6163 12.6955 20.5889 12.9297C20.5807 12.9991 20.573 13.0629 20.5674 13.1182C20.5374 13.4111 20.5383 13.5917 20.5693 13.7217C20.635 13.9966 20.7789 14.2215 21.0117 14.5859C21.0511 14.6476 21.0931 14.7136 21.1377 14.7842C21.4143 15.2224 21.7675 15.8314 21.7676 16.6406C21.7676 18.3798 20.3944 19.7272 18.6895 20.5889C16.9343 21.4758 14.5678 22 12 22C9.43219 22 7.06568 21.4758 5.31055 20.5889C3.60565 19.7272 2.23242 18.3798 2.23242 16.6406C2.23254 15.8314 2.58565 15.2224 2.8623 14.7842C2.90688 14.7136 2.94887 14.6476 2.98828 14.5859C3.22106 14.2215 3.36502 13.9966 3.43066 13.7217C3.46165 13.5917 3.46261 13.4111 3.43262 13.1182C3.42696 13.0629 3.41926 12.9991 3.41113 12.9297C3.38369 12.6955 3.34863 12.3952 3.34863 12.1279C3.34867 10.9419 3.58325 9.80939 4.00781 8.77637C1.99068 6.8511 0 3.91292 0 0.845703C0.00024089 0.378692 0.37482 0.000161194 0.836914 0C5.20803 0 7.76452 2.20062 8.89844 3.96484C10.8834 3.19837 13.1166 3.19838 15.1016 3.96484C16.2354 2.20058 18.792 0 23.1631 0ZM22.2549 1.73047C18.5902 2.04334 16.7702 4.21375 16.2178 5.4043C16.1222 5.61025 15.9488 5.76864 15.7363 5.84375C15.5239 5.9188 15.2906 5.90455 15.0889 5.80371C13.164 4.84145 10.8359 4.84144 8.91113 5.80371C8.70942 5.90456 8.4761 5.91883 8.26367 5.84375C8.05123 5.76865 7.87779 5.61024 7.78223 5.4043C7.2297 4.21368 5.40965 2.04333 1.74512 1.73047C2.10353 4.03144 3.77914 6.35244 5.57324 7.92676C5.863 8.18105 5.94484 8.60222 5.77148 8.94824C5.29338 9.90266 5.02348 10.9822 5.02344 12.1279C5.02344 12.2874 5.04093 12.4401 5.06445 12.6416C5.0666 12.66 5.06808 12.6789 5.07031 12.6982C5.87117 13.134 6.65204 13.9727 7.00977 15.0137C7.23462 15.6682 7.29719 16.4172 7.08301 17.2002C6.90859 17.8378 6.5581 18.46 6.01953 19.0537C6.03296 19.0606 6.046 19.0683 6.05957 19.0752C7.53655 19.8216 9.63578 20.3076 12 20.3076C14.3642 20.3076 16.4635 19.8216 17.9404 19.0752C17.9498 19.0705 17.9585 19.0643 17.9678 19.0596C17.4377 18.4709 17.0918 17.8543 16.9189 17.2227C16.7048 16.4397 16.7674 15.6906 16.9922 15.0361C17.349 13.9975 18.1268 13.1594 18.9258 12.7227C18.929 12.6947 18.9325 12.6678 18.9355 12.6416C18.9591 12.4401 18.9766 12.2874 18.9766 12.1279C18.9765 10.9822 18.7066 9.90267 18.2285 8.94824C18.0551 8.60221 18.137 8.18105 18.4268 7.92676C20.2209 6.35243 21.8965 4.03143 22.2549 1.73047ZM19.1357 14.6787C18.905 14.9248 18.6966 15.2347 18.5742 15.5908C18.4492 15.9547 18.4175 16.3522 18.5322 16.7715C18.6378 17.1574 18.8811 17.6063 19.3652 18.0908C19.8687 17.5929 20.0928 17.0897 20.0928 16.6406C20.0927 16.3484 19.977 16.0926 19.7256 15.6943C19.6963 15.6479 19.6637 15.5975 19.6289 15.5439C19.4792 15.3136 19.2883 15.0193 19.1357 14.6787ZM4.87012 14.6631C4.71649 15.0101 4.52306 15.3101 4.37109 15.5439C4.33631 15.5975 4.30372 15.6479 4.27441 15.6943C4.023 16.0926 3.90733 16.3484 3.90723 16.6406C3.90723 17.0863 4.12754 17.5858 4.62305 18.0801C5.11561 17.5908 5.36325 17.1383 5.46973 16.749C5.58429 16.3299 5.55268 15.9331 5.42773 15.5693C5.30623 15.2157 5.09892 14.9084 4.87012 14.6631ZM12.5742 14.8672C12.9268 14.5648 13.4557 14.6095 13.7549 14.9658C14.0537 15.3221 14.0106 15.8559 13.6582 16.1582C13.1925 16.5576 12.6529 16.9267 11.9941 16.9229C11.3419 16.9189 10.8069 16.5486 10.3486 16.1631C9.99327 15.8642 9.94453 15.3309 10.2402 14.9717C10.5359 14.6126 11.0636 14.5636 11.4189 14.8623C11.8427 15.2188 11.9816 15.2302 12.0039 15.2305C12.0187 15.2306 12.1536 15.2279 12.5742 14.8672ZM8.65234 10.4355C9.26885 10.4355 9.76855 10.9414 9.76855 11.5645C9.76837 12.1874 9.26873 12.6924 8.65234 12.6924H8.64258C8.02619 12.6924 7.52655 12.1874 7.52637 11.5645C7.52637 10.9414 8.02607 10.4355 8.64258 10.4355H8.65234ZM15.3584 10.4355C15.9749 10.4355 16.4756 10.9414 16.4756 11.5645C16.4754 12.1874 15.9748 12.6924 15.3584 12.6924H15.3486C14.7323 12.6923 14.2326 12.1873 14.2324 11.5645C14.2324 10.9414 14.7322 10.4357 15.3486 10.4355H15.3584Z" fill="#251455"/>
</svg>
