<svg width="24" height="24" viewBox="0 0 24 24" fill="none" xmlns="http://www.w3.org/2000/svg">
<path d="M19 20.25C19.4142 20.25 19.75 20.5858 19.75 21C19.75 21.4142 19.4142 21.75 19 21.75H3C2.58579 21.75 2.25 21.4142 2.25 21C2.25 20.5858 2.58579 20.25 3 20.25H19ZM14 14.25C14.4142 14.25 14.75 14.5858 14.75 15C14.75 15.4142 14.4142 15.75 14 15.75H3C2.58579 15.75 2.25 15.4142 2.25 15C2.25 14.5858 2.58579 14.25 3 14.25H14ZM18.5 2.25C18.7583 2.25 18.9811 2.33939 19.1426 2.42578C19.3098 2.51532 19.4656 2.63156 19.6035 2.74902C19.8788 2.98354 20.1544 3.28485 20.4004 3.5752C20.6301 3.84632 20.8529 4.1309 21.043 4.37305C21.0588 4.39322 21.0745 4.41306 21.0898 4.43262C21.303 4.70404 21.4494 4.88628 21.5381 4.97754C21.8265 5.27458 21.8194 5.74947 21.5225 6.03809C21.2254 6.32651 20.7505 6.31939 20.4619 6.02246C20.3049 5.86091 20.1032 5.60389 19.9111 5.35938C19.8964 5.34062 19.8811 5.3217 19.8662 5.30273C19.6733 5.057 19.4666 4.79357 19.2559 4.54492C19.2539 4.54263 19.2519 4.54037 19.25 4.53809V15C19.25 15.4142 18.9142 15.75 18.5 15.75C18.0858 15.75 17.75 15.4142 17.75 15V4.53809C17.7481 4.54037 17.7461 4.54263 17.7441 4.54492C17.5335 4.79357 17.3267 5.057 17.1338 5.30273C17.1189 5.3217 17.1036 5.34062 17.0889 5.35938C16.8968 5.60389 16.6951 5.86091 16.5381 6.02246C16.2495 6.31939 15.7746 6.32651 15.4775 6.03809C15.1806 5.74947 15.1735 5.27458 15.4619 4.97754C15.5506 4.88628 15.697 4.70404 15.9102 4.43262C15.9255 4.41306 15.9412 4.39322 15.957 4.37305C16.1471 4.13091 16.3699 3.84631 16.5996 3.5752C16.8456 3.28485 17.1212 2.98354 17.3965 2.74902C17.5344 2.63156 17.6902 2.51533 17.8574 2.42578C18.0189 2.33939 18.2417 2.25 18.5 2.25ZM10 8.25C10.4142 8.25 10.75 8.58579 10.75 9C10.75 9.41421 10.4142 9.75 10 9.75H3C2.58579 9.75 2.25 9.41421 2.25 9C2.25 8.58579 2.58579 8.25 3 8.25H10Z" fill="#6B39F4"/>
</svg>
