<svg width="24" height="24" viewBox="0 0 24 24" fill="none" xmlns="http://www.w3.org/2000/svg">
<path fill-rule="evenodd" clip-rule="evenodd" d="M3.75 12C3.75 7.44 7.44 3.75 12 3.75C16.56 3.75 20.25 7.44 20.25 12C20.25 16.56 16.56 20.25 12 20.25C7.44 20.25 3.75 16.56 3.75 12ZM12 2.25C6.62 2.25 2.25 6.62 2.25 12C2.25 17.38 6.62 21.75 12 21.75C17.38 21.75 21.75 17.38 21.75 12C21.75 6.62 17.38 2.25 12 2.25ZM12 5.25C11.59 5.25 11.25 5.59 11.25 6V11.5701L6.43005 14.35C6.26005 14.45 6.12996 14.6101 6.07996 14.8101C6.02996 15.0001 6.06003 15.2 6.16003 15.37C6.75003 16.4 7.60001 17.25 8.63 17.85C9.65 18.44 10.82 18.75 12 18.75C13.18 18.75 14.35 18.44 15.38 17.85C16.4 17.25 17.25 16.4 17.85 15.38C18.44 14.35 18.75 13.18 18.75 12C18.75 10.82 18.44 9.64999 17.85 8.62C17.25 7.6 16.4 6.75002 15.38 6.15002C14.35 5.56002 13.19 5.25 12 5.25Z" fill="#251455"/>
</svg>
