<svg width="24" height="24" viewBox="0 0 24 24" fill="none" xmlns="http://www.w3.org/2000/svg">
<path d="M4.09375 3.62646C5.58485 2.46788 8.49574 1.40599 12.0977 3.24072C14.4994 4.46417 16.6024 4.3855 18.0195 3.99268L18.0566 3.98193C18.4867 3.86266 18.8622 3.75908 19.1533 3.70752C19.305 3.68067 19.476 3.65929 19.6465 3.66943C19.8199 3.67978 20.0486 3.72596 20.2568 3.88428C20.6263 4.1654 20.6946 4.60208 20.7207 4.84131C20.7499 5.10838 20.75 5.45394 20.75 5.8335L20.75 13.4526C20.7519 13.647 20.7555 13.9816 20.5752 14.2856C20.396 14.5876 20.124 14.7336 19.9668 14.8179C19.9536 14.8249 19.9411 14.8312 19.9297 14.8374C18.3455 15.7034 15.1319 16.469 11.417 14.5767C8.13582 12.9054 5.7015 14.1439 4.75 15.0366L4.75 20.9995C4.75 21.4137 4.41421 21.7495 4 21.7495C3.58593 21.7493 3.25 21.4136 3.25 20.9995L3.25 5.42041C3.24908 5.09751 3.2476 4.73771 3.42773 4.36963C3.60678 4.00381 3.8469 3.81863 4.06348 3.65088C4.07377 3.6429 4.08356 3.63438 4.09375 3.62646ZM11.417 4.57666C8.40892 3.04448 6.11756 3.95421 5.01465 4.81104C4.95402 4.85814 4.91102 4.8918 4.875 4.92139C4.84039 4.94982 4.82115 4.96739 4.80957 4.979C4.79977 4.98885 4.79618 4.99443 4.79395 4.99756C4.79155 5.00092 4.78491 5.00939 4.77539 5.02881V5.03076C4.77078 5.04013 4.76411 5.0527 4.75879 5.104C4.75095 5.17973 4.75 5.28108 4.75 5.48877L4.75 13.1851C6.36211 12.2381 8.96644 11.6458 12.0977 13.2407C15.3156 14.8799 18.003 14.1808 19.21 13.521C19.2246 13.513 19.238 13.5061 19.25 13.4995L19.25 5.87354C19.25 5.5897 19.2499 5.37954 19.2441 5.21924C19.0461 5.26466 18.7833 5.33751 18.4209 5.43799C16.6776 5.92136 14.1845 5.98643 11.417 4.57666Z" fill="#251455"/>
</svg>
