<svg width="24" height="24" viewBox="0 0 24 24" fill="none" xmlns="http://www.w3.org/2000/svg">
<path d="M10.3574 13.25C11.5559 13.2501 12.6695 13.6156 13.5703 14.2402C13.9107 14.4762 13.9948 14.9438 13.7588 15.2842C13.5228 15.6243 13.0561 15.7092 12.7158 15.4736C12.0649 15.0223 11.2491 14.7501 10.3574 14.75H6.64258C4.4351 14.7501 2.75 16.3889 2.75 18.2861C2.75026 18.7632 3.18851 19.25 3.85742 19.25H13.1426C13.5568 19.25 13.8926 19.5858 13.8926 20C13.8926 20.4142 13.5568 20.75 13.1426 20.75H3.85742C2.47533 20.75 1.25024 19.7023 1.25 18.2861C1.25 15.4497 3.72196 13.2501 6.64258 13.25H10.3574ZM19 13.25C19.4142 13.25 19.75 13.5858 19.75 14V16.25H22C22.4142 16.25 22.75 16.5858 22.75 17C22.75 17.4142 22.4142 17.75 22 17.75H19.75V20C19.75 20.4142 19.4142 20.75 19 20.75C18.5858 20.75 18.25 20.4142 18.25 20V17.75H16C15.5858 17.75 15.25 17.4142 15.25 17C15.25 16.5858 15.5858 16.25 16 16.25H18.25V14C18.25 13.5858 18.5858 13.25 19 13.25ZM8.5 3.25C10.8472 3.25 12.75 5.15279 12.75 7.5C12.75 9.84721 10.8472 11.75 8.5 11.75C6.15279 11.75 4.25 9.84721 4.25 7.5C4.25 5.15279 6.15279 3.25 8.5 3.25ZM13.5 3.25C15.8472 3.25 17.75 5.15279 17.75 7.5C17.75 9.84721 15.8472 11.75 13.5 11.75C13.0858 11.75 12.75 11.4142 12.75 11C12.75 10.5858 13.0858 10.25 13.5 10.25C15.0188 10.25 16.25 9.01878 16.25 7.5C16.25 5.98122 15.0188 4.75 13.5 4.75C13.0858 4.75 12.75 4.41421 12.75 4C12.75 3.58579 13.0858 3.25 13.5 3.25ZM8.5 4.75C6.98122 4.75 5.75 5.98122 5.75 7.5C5.75 9.01878 6.98122 10.25 8.5 10.25C10.0188 10.25 11.25 9.01878 11.25 7.5C11.25 5.98122 10.0188 4.75 8.5 4.75Z" fill="#251455"/>
</svg>
