<svg width="18" height="18" viewBox="0 0 18 18" fill="none" xmlns="http://www.w3.org/2000/svg">
<path d="M15.8855 1.59443C15.5349 1.21688 14.9852 1.07547 14.4601 1.02486C13.9083 0.971673 13.2475 1.00704 12.536 1.10036C11.1091 1.28753 9.38518 1.72076 7.72916 2.25382C6.0721 2.78721 4.45686 3.42899 3.24719 4.04385C2.64516 4.34986 2.12301 4.65949 1.74341 4.95689C1.55439 5.10498 1.38192 5.2645 1.25217 5.43428C1.12843 5.59622 0.998227 5.82662 1.00002 6.10437C1.00472 6.83342 1.50122 7.34867 2.02995 7.69452C2.56963 8.04752 3.27249 8.31352 3.97121 8.52189C4.67743 8.73249 5.4201 8.8957 6.05855 9.02798C6.10039 9.03665 6.18402 9.05394 6.2865 9.07512C6.67242 9.15486 6.86538 9.19473 7.04677 9.14044C7.22817 9.08615 7.36761 8.9467 7.64652 8.6678L10.4072 5.90717C10.7001 5.61428 11.1749 5.61428 11.4678 5.90717C11.7607 6.20007 11.7607 6.67494 11.4678 6.96783L8.89334 9.5423C8.60906 9.82658 8.46691 9.96872 8.41312 10.1532C8.35932 10.3377 8.4027 10.5336 8.48946 10.9252C8.82583 12.4438 9.11785 13.6986 9.40922 14.5428C9.5794 15.0359 9.77086 15.4627 10.0134 15.7775C10.2664 16.1059 10.6106 16.3541 11.0637 16.3742C11.3458 16.3866 11.5803 16.2578 11.7412 16.1383C11.9106 16.0124 12.07 15.8436 12.2178 15.659C12.5149 15.2879 12.8269 14.7744 13.1374 14.181C13.7614 12.9885 14.4222 11.3896 14.9812 9.7447C15.5401 8.10047 16.0058 6.38545 16.2301 4.96007C16.342 4.24923 16.3973 3.58906 16.3666 3.03608C16.3374 2.51167 16.2257 1.96079 15.8855 1.59443Z" fill="#251455"/>
</svg>
