<svg width="18" height="18" viewBox="0 0 18 18" fill="none" xmlns="http://www.w3.org/2000/svg">
<path d="M12.8486 1.41248C13.56 1.31918 14.2208 1.28414 14.7725 1.33728C15.2975 1.38789 15.8477 1.52915 16.1982 1.90662C16.5384 2.27298 16.6505 2.82459 16.6797 3.349C16.7104 3.90188 16.6548 4.56217 16.543 5.27283C16.3186 6.69811 15.8527 8.41292 15.2939 10.057C14.7349 11.7019 14.0742 13.301 13.4502 14.4935C13.1398 15.0868 12.8273 15.6 12.5303 15.9711C12.3825 16.1557 12.2232 16.3247 12.0537 16.4506C11.8928 16.57 11.658 16.6994 11.376 16.6869C10.9232 16.6668 10.5792 16.4185 10.3262 16.0902C10.0837 15.7755 9.89186 15.3479 9.72168 14.8549C9.3805 13.8662 9.05961 12.4084 8.64648 10.5297C8.5577 10.1259 8.48307 9.98869 8.41602 9.91638C8.40182 9.90108 8.38428 9.886 8.3623 9.86951C8.33802 9.85659 8.31456 9.84229 8.29199 9.82556C8.20605 9.77806 8.07237 9.7233 7.84863 9.66052C7.61404 9.59471 7.25874 9.5214 6.81055 9.43005C6.67268 9.40196 6.5257 9.37224 6.37109 9.34021C5.73276 9.20795 4.99026 9.04489 4.28418 8.83435C3.58555 8.62601 2.88242 8.36013 2.34277 8.0072C1.81403 7.66135 1.3172 7.14544 1.3125 6.41638C1.31086 6.13885 1.44078 5.9083 1.56445 5.74646C1.69419 5.57669 1.86666 5.417 2.05566 5.26892C2.43518 4.97158 2.95771 4.66275 3.55957 4.35681C4.76923 3.74195 6.38494 3.10016 8.04199 2.56677C9.698 2.03372 11.4217 1.59964 12.8486 1.41248ZM14.665 2.4574C14.2322 2.41568 13.6651 2.44081 12.9951 2.52869C11.6591 2.70392 10.0054 3.11606 8.38672 3.63708C6.769 4.15781 5.21175 4.77809 4.06934 5.35876C3.49547 5.65045 3.04681 5.92216 2.75 6.15466C2.60083 6.27154 2.50892 6.36472 2.45898 6.43005C2.45138 6.44001 2.44498 6.44861 2.44043 6.45544C2.46024 6.61337 2.58211 6.81988 2.95801 7.0658C3.36061 7.32914 3.94013 7.55782 4.60547 7.75623C5.26328 7.95238 5.96698 8.10757 6.59961 8.23865C6.73525 8.26675 6.86951 8.29411 7 8.32068C7.45976 8.41428 7.87456 8.49862 8.15234 8.57654C8.27554 8.6111 8.39599 8.64857 8.51172 8.69177L10.8525 6.35193C11.0721 6.13261 11.4278 6.13271 11.6475 6.35193C11.8671 6.5716 11.8671 6.92816 11.6475 7.14783L9.41406 9.38025C9.58093 9.64567 9.67206 9.95531 9.74512 10.2875C10.1651 12.1976 10.4706 13.5772 10.7852 14.4886C10.9429 14.9455 11.0867 15.2348 11.2168 15.4037C11.2893 15.4977 11.3424 15.5354 11.3779 15.5511C11.3795 15.55 11.3811 15.5485 11.3828 15.5472C11.4448 15.5012 11.5359 15.4134 11.6523 15.2679C11.8837 14.9788 12.1569 14.5382 12.4531 13.972C13.0428 12.845 13.6821 11.3023 14.2285 9.6947C14.7751 8.08662 15.2207 6.43801 15.4316 5.09802C15.5373 4.42633 15.5802 3.8532 15.5557 3.4115C15.5295 2.94126 15.4324 2.73512 15.374 2.67224C15.3162 2.61 15.1243 2.5017 14.665 2.4574Z" fill="#251455"/>
</svg>
