<svg width="24" height="24" viewBox="0 0 24 24" fill="none" xmlns="http://www.w3.org/2000/svg">
<path d="M15.2998 1.94727C15.5841 1.90904 15.8241 1.99184 15.9873 2.06348C16.1373 2.12935 16.3066 2.22514 16.4707 2.31836L18.2451 3.32617C18.4128 3.42133 18.5847 3.51911 18.7197 3.61523C18.8655 3.71903 19.0627 3.88408 19.1758 4.15137C19.2991 4.44307 19.2588 4.73703 19.2295 4.90723C19.1977 5.09134 19.1392 5.31799 19.0762 5.56055L19.0693 5.58789C18.673 7.11401 19.6399 8.75525 21.2061 9.17773L21.2334 9.18555C21.4705 9.24946 21.6935 9.30905 21.8672 9.37207C22.0297 9.43103 22.301 9.54159 22.4922 9.79102C22.6681 10.0206 22.715 10.2731 22.7334 10.4512C22.7503 10.6154 22.75 10.8119 22.75 11.0029V12.9941C22.75 13.1852 22.7503 13.3817 22.7334 13.5459C22.715 13.724 22.6681 13.9755 22.4922 14.2051C22.3009 14.4548 22.0297 14.566 21.8672 14.625C21.7803 14.6565 21.6811 14.6869 21.5742 14.7178L21.2061 14.8193C19.6406 15.2418 18.6736 16.8829 19.0703 18.4092L19.0781 18.4365C19.1412 18.679 19.1997 18.9048 19.2314 19.0889C19.2608 19.259 19.3009 19.553 19.1777 19.8447C19.0647 20.1121 18.8675 20.278 18.7217 20.3818C18.5867 20.4779 18.4146 20.5748 18.2471 20.6699L16.4717 21.6777C16.3075 21.771 16.1383 21.8677 15.9883 21.9336C15.825 22.0052 15.585 22.0881 15.3008 22.0498C14.9919 22.0081 14.7626 21.8306 14.6309 21.7197C14.4909 21.602 14.3301 21.4411 14.1592 21.2705L14.1387 21.25C12.9714 20.0857 11.0295 20.0855 9.8623 21.25L9.84277 21.2705C9.67183 21.4411 9.51101 21.602 9.37109 21.7197C9.23931 21.8306 9.00937 22.0081 8.7002 22.0498C8.41598 22.088 8.17585 22.0052 8.0127 21.9336C7.86269 21.8677 7.69343 21.771 7.5293 21.6777L5.75488 20.6699C5.58729 20.5748 5.41527 20.4779 5.28027 20.3818C5.13445 20.278 4.9373 20.1121 4.82422 19.8447C4.70102 19.553 4.74118 19.2589 4.77051 19.0889C4.80227 18.9048 4.86082 18.679 4.92383 18.4365L4.93066 18.4092C5.32713 16.883 4.36006 15.2419 2.79395 14.8193L2.7666 14.8115C2.52954 14.7476 2.30653 14.688 2.13281 14.625C1.97027 14.566 1.6991 14.4548 1.50781 14.2051C1.33194 13.9755 1.28495 13.724 1.2666 13.5459C1.24968 13.3817 1.24996 13.1853 1.25 12.9941V11.0029C1.24996 10.8119 1.24972 10.6154 1.2666 10.4512C1.28495 10.2731 1.33191 10.0206 1.50781 9.79102C1.69902 9.5416 1.9703 9.43104 2.13281 9.37207C2.30654 9.30906 2.52954 9.24944 2.7666 9.18555L2.79395 9.17773C4.3606 8.75523 5.32858 7.11378 4.93262 5.58789C4.93022 5.57866 4.92719 5.56876 4.9248 5.55957C4.86184 5.31716 4.8032 5.09123 4.77148 4.90723C4.74216 4.73707 4.7028 4.44309 4.82617 4.15137C4.93926 3.88403 5.13641 3.71901 5.28223 3.61523C5.41727 3.51912 5.58917 3.42132 5.75684 3.32617C5.7651 3.32148 5.77301 3.3162 5.78125 3.31152L7.50586 2.33301C7.51414 2.32831 7.52294 2.32308 7.53125 2.31836C7.69537 2.22513 7.86468 2.12933 8.01465 2.06348C8.17787 1.99182 8.41775 1.90895 8.70215 1.94727C9.01127 1.98894 9.2403 2.16651 9.37207 2.27734C9.51193 2.39498 9.67286 2.55507 9.84375 2.72559L9.86426 2.74609C11.0308 3.90966 12.9713 3.90972 14.1377 2.74609L14.1582 2.72559C14.329 2.55514 14.4901 2.39494 14.6299 2.27734C14.7617 2.1665 14.9908 1.98889 15.2998 1.94727ZM15.1973 3.80762C13.4453 5.55543 10.5567 5.55544 8.80469 3.80762C8.66494 3.6682 8.56671 3.57041 8.49121 3.5C8.48802 3.50172 8.48475 3.50407 8.48145 3.50586C8.41681 3.54092 8.34183 3.58291 8.24707 3.63672L6.52246 4.61621C6.42595 4.67101 6.34976 4.71459 6.28516 4.75293C6.28071 4.75557 6.27571 4.75821 6.27148 4.76074C6.29509 4.86688 6.33129 5.00874 6.38379 5.21094C6.99361 7.56012 5.51886 9.99643 3.18457 10.626C2.98956 10.6786 2.85281 10.7161 2.75195 10.7471C2.75186 10.7512 2.75204 10.7554 2.75195 10.7598C2.75051 10.8342 2.75 10.921 2.75 11.0312V12.9648C2.75 13.0752 2.75051 13.1628 2.75195 13.2373C2.75204 13.2416 2.75186 13.2459 2.75195 13.25C2.85281 13.2809 2.98963 13.3185 3.18457 13.3711C5.51884 14.0008 6.99302 16.4372 6.38281 18.7861C6.33029 18.9883 6.29412 19.1302 6.27051 19.2363C6.27453 19.2387 6.27898 19.2407 6.2832 19.2432C6.34784 19.2815 6.42391 19.325 6.52051 19.3799L8.24512 20.3594C8.33995 20.4132 8.41482 20.4552 8.47949 20.4902C8.48282 20.492 8.48605 20.4944 8.48926 20.4961C8.56475 20.4257 8.66299 20.3279 8.80273 20.1885C10.5554 18.4395 13.4454 18.4397 15.1982 20.1885C15.3379 20.3278 15.4362 20.4257 15.5117 20.4961C15.515 20.4943 15.5191 20.4921 15.5225 20.4902C15.587 20.4552 15.6613 20.4131 15.7559 20.3594L17.4814 19.3799C17.5779 19.3251 17.6542 19.2815 17.7188 19.2432C17.7231 19.2406 17.7273 19.2378 17.7314 19.2354C17.7078 19.1293 17.6716 18.9879 17.6191 18.7861C17.0087 16.4375 18.4812 14.0009 20.8154 13.3711C21.0104 13.3185 21.1472 13.2809 21.248 13.25C21.2481 13.2459 21.2489 13.2416 21.249 13.2373C21.2505 13.1628 21.25 13.0752 21.25 12.9648V11.0312C21.25 10.921 21.2505 10.8342 21.249 10.7598C21.2489 10.7554 21.2481 10.7512 21.248 10.7471C21.1472 10.7161 21.0104 10.6786 20.8154 10.626C18.4813 9.99633 17.0072 7.55978 17.6172 5.21094C17.6697 5.00882 17.7059 4.86686 17.7295 4.76074C17.7254 4.75828 17.7211 4.7555 17.7168 4.75293C17.6521 4.71456 17.5761 4.67107 17.4795 4.61621L15.7549 3.63672C15.66 3.58286 15.5852 3.54095 15.5205 3.50586C15.5171 3.50403 15.514 3.50176 15.5107 3.5C15.4353 3.57037 15.3369 3.66831 15.1973 3.80762ZM12 7.75C14.3472 7.75 16.25 9.65279 16.25 12C16.2499 14.3472 14.3472 16.25 12 16.25C9.65283 16.25 7.75006 14.3472 7.75 12C7.75 9.65279 9.6528 7.75001 12 7.75ZM12 9.25C10.4812 9.25001 9.25 10.4812 9.25 12C9.25006 13.5187 10.4813 14.75 12 14.75C13.5187 14.75 14.7499 13.5187 14.75 12C14.75 10.4812 13.5188 9.25 12 9.25Z" fill="#251455"/>
</svg>
