<svg width="24" height="24" viewBox="0 0 24 24" fill="none" xmlns="http://www.w3.org/2000/svg">
<path d="M15.2979 2.00989C15.5822 1.97181 15.8221 2.05389 15.9854 2.12512C16.1354 2.19059 16.3046 2.28632 16.4688 2.37903L18.7178 3.66711C18.8636 3.77024 19.0607 3.93471 19.1738 4.20032C19.2973 4.49041 19.2578 4.78315 19.2285 4.95227C19.1968 5.13525 19.1304 5.38702 19.0674 5.62805C18.6712 7.1448 19.6393 8.7764 21.2061 9.19641L21.2334 9.20422C21.4705 9.26773 21.6935 9.32714 21.8672 9.38977C22.0298 9.44841 22.301 9.55865 22.4922 9.80676C22.668 10.035 22.715 10.285 22.7334 10.462C22.7503 10.6253 22.75 10.8209 22.75 11.0109V12.9894C22.75 13.1794 22.7503 13.375 22.7334 13.5382C22.715 13.7152 22.6681 13.9653 22.4922 14.1935C22.3009 14.4416 22.0297 14.5518 21.8672 14.6105C21.6935 14.6731 21.2061 14.8038 21.2061 14.8038C19.6399 15.2238 18.6729 16.8553 19.0693 18.3722C19.0729 18.3857 19.1982 18.8675 19.2295 19.048C19.2588 19.2171 19.2992 19.5098 19.1758 19.7999C19.0627 20.0655 18.8655 20.23 18.7197 20.3331L16.4707 21.6212L16.2236 21.7579C16.142 21.8016 16.0623 21.8424 15.9873 21.8751C15.8241 21.9463 15.5841 22.0283 15.2998 21.9904C14.9906 21.9489 14.7607 21.7724 14.6289 21.6622C14.4904 21.5464 14.1458 21.2044 14.1377 21.1964C13.5543 20.6177 12.7771 20.3285 12 20.3282C11.2229 20.3285 10.4457 20.6177 9.8623 21.1964C9.8539 21.2048 9.50948 21.5464 9.37109 21.6622C9.23931 21.7724 9.00937 21.9489 8.7002 21.9904C8.41595 22.0283 8.17586 21.9463 8.0127 21.8751C7.86276 21.8097 7.69336 21.7139 7.5293 21.6212L5.28027 20.3331C5.13449 20.23 4.93732 20.0655 4.82422 19.7999C4.70077 19.5098 4.74116 19.2171 4.77051 19.048C4.80181 18.8676 4.9271 18.3858 4.93066 18.3722C5.32713 16.8553 4.3601 15.2238 2.79395 14.8038C2.79395 14.8038 2.30653 14.6731 2.13281 14.6105C1.97025 14.5518 1.69905 14.4416 1.50781 14.1935C1.33195 13.9653 1.28495 13.7152 1.2666 13.5382C1.24969 13.375 1.24996 13.1794 1.25 12.9894V11.0109C1.24996 10.8209 1.24969 10.6253 1.2666 10.462C1.28495 10.285 1.33198 10.035 1.50781 9.80676C1.69903 9.55866 1.97024 9.44841 2.13281 9.38977C2.30654 9.32714 2.52954 9.26773 2.7666 9.20422L2.79395 9.19641C4.36071 8.77641 5.32884 7.14481 4.93262 5.62805C4.86963 5.38701 4.80323 5.13525 4.77148 4.95227C4.74216 4.78315 4.70271 4.49041 4.82617 4.20032C4.93927 3.93471 5.13645 3.77024 5.28223 3.66711L7.53125 2.37903C7.69545 2.28632 7.86462 2.1906 8.01465 2.12512C8.17787 2.05389 8.41775 1.97181 8.70215 2.00989C9.01127 2.05131 9.2403 2.22785 9.37207 2.33801C9.51203 2.45504 9.86426 2.80383 9.86426 2.80383C10.4473 3.38187 11.2236 3.6708 12 3.67102C12.7764 3.6708 13.5527 3.38187 14.1357 2.80383C14.1357 2.80383 14.488 2.45505 14.6279 2.33801C14.7597 2.22786 14.9887 2.05131 15.2979 2.00989ZM12 8.50012C10.067 8.50013 8.5 10.0671 8.5 12.0001C8.50003 13.9331 10.067 15.5001 12 15.5001C13.933 15.5001 15.5 13.9331 15.5 12.0001C15.5 10.0671 13.933 8.50012 12 8.50012Z" fill="#251455"/>
</svg>
