<svg width="24" height="24" viewBox="0 0 24 24" fill="none" xmlns="http://www.w3.org/2000/svg">
<path d="M12.2993 14.7324C12.4472 14.3457 12.8803 14.1522 13.2671 14.2998C13.6539 14.4476 13.8483 14.8807 13.7007 15.2676C13.0618 16.9402 12.0897 17.8631 10.9097 18.3242C9.81739 18.7511 8.60729 18.7502 7.56494 18.75C7.5432 18.75 7.52111 18.75 7.49951 18.75C6.37942 18.75 5.44032 18.76 4.63623 19.0742C3.89707 19.3631 3.20765 19.9404 2.70068 21.2676C2.55289 21.6545 2.11888 21.849 1.73193 21.7012C1.34505 21.5533 1.15154 21.1193 1.29932 20.7324C1.93818 19.0599 2.91033 18.1379 4.09033 17.6768C5.18262 17.25 6.39273 17.2498 7.43506 17.25C7.45662 17.25 7.4781 17.25 7.49951 17.25C8.61973 17.25 9.55962 17.241 10.3638 16.9268C11.1029 16.6379 11.7924 16.0597 12.2993 14.7324ZM7.49951 9.25C9.29444 9.25 10.7495 10.7051 10.7495 12.5C10.7495 14.2949 9.29444 15.75 7.49951 15.75C5.70462 15.75 4.24951 14.2949 4.24951 12.5C4.24951 10.7051 5.70462 9.25004 7.49951 9.25ZM17.0542 2.25C18.187 2.24998 19.1134 2.25037 19.8442 2.34863C20.6081 2.45136 21.2707 2.67352 21.7993 3.20215C22.3278 3.73079 22.5501 4.39341 22.6528 5.15723C22.751 5.88803 22.7505 6.81365 22.7505 7.94629L22.7505 10.0537C22.7505 11.1863 22.751 12.112 22.6528 12.8428C22.5501 13.6066 22.3278 14.2692 21.7993 14.7979C21.2707 15.3265 20.6081 15.5486 19.8442 15.6514C19.1134 15.7496 18.187 15.75 17.0542 15.75H15.4995C15.0853 15.75 14.7495 15.4142 14.7495 15C14.7495 14.5858 15.0853 14.25 15.4995 14.25H17.0005C18.2002 14.25 19.0249 14.2483 19.644 14.165C20.2417 14.0847 20.5352 13.9408 20.7388 13.7373C20.9421 13.5338 21.0862 13.2407 21.1665 12.6436C21.2498 12.0244 21.2505 11.1997 21.2505 10L21.2505 8C21.2505 6.80029 21.2498 5.97564 21.1665 5.35645C21.0862 4.75928 20.9421 4.4662 20.7388 4.2627C20.5352 4.05916 20.2417 3.91531 19.644 3.83496C19.0249 3.75172 18.2002 3.75 17.0005 3.75L13.0005 3.75C11.8012 3.75 10.977 3.75176 10.3579 3.83496C9.76029 3.91531 9.46672 4.05916 9.26318 4.2627C9.08908 4.43688 8.9614 4.67422 8.87744 5.10254C8.78935 5.55227 8.76067 6.15096 8.75342 7.00684C8.74965 7.42067 8.4114 7.75328 7.99756 7.75C7.58336 7.74649 7.24991 7.40736 7.25342 6.99316C7.26064 6.14268 7.28681 5.41675 7.40479 4.81445C7.52687 4.19125 7.75666 3.64822 8.20264 3.20215C8.73131 2.67348 9.39381 2.45135 10.1577 2.34863C10.8885 2.25038 11.8141 2.24998 12.9468 2.25L17.0542 2.25ZM7.49951 10.75C6.53305 10.75 5.74951 11.5335 5.74951 12.5C5.74951 13.4665 6.53305 14.25 7.49951 14.25C8.46601 14.25 9.24951 13.4665 9.24951 12.5C9.24951 11.5335 8.46601 10.75 7.49951 10.75ZM17.9995 10.25C18.4137 10.25 18.7495 10.5858 18.7495 11C18.7495 11.4142 18.4137 11.75 17.9995 11.75H14.9995C14.5853 11.75 14.2495 11.4142 14.2495 11C14.2495 10.5858 14.5853 10.25 14.9995 10.25H17.9995ZM17.9995 6.25C18.4137 6.25 18.7495 6.58579 18.7495 7C18.7495 7.41421 18.4137 7.75 17.9995 7.75L11.9995 7.75C11.5853 7.74996 11.2495 7.41419 11.2495 7C11.2495 6.58581 11.5853 6.25004 11.9995 6.25L17.9995 6.25Z" fill="#251455"/>
</svg>
