<svg width="24" height="24" viewBox="0 0 24 24" fill="none" xmlns="http://www.w3.org/2000/svg">
<path d="M12.0664 14.6436C12.2635 14.1277 12.8415 13.8694 13.3574 14.0664C13.8731 14.2636 14.1316 14.8416 13.9346 15.3574C13.2737 17.0874 12.2544 18.0668 11.001 18.5566C9.86401 19.0009 8.61232 19.0003 7.58105 19C7.55396 19 7.52679 19 7.5 19C6.36936 19 5.4798 19.0127 4.72754 19.3066C4.06179 19.5668 3.41957 20.0876 2.93457 21.3574C2.73745 21.8731 2.15937 22.1315 1.64355 21.9346C1.12762 21.7375 0.869349 21.1595 1.06641 20.6436C1.72725 18.9134 2.74649 17.9342 4 17.4443C5.13684 17.0002 6.38779 16.9997 7.41895 17C7.44606 17 7.4732 17 7.5 17C8.63078 17 9.52111 16.9883 10.2734 16.6943C10.9391 16.4341 11.5815 15.9132 12.0664 14.6436ZM17.0703 2C18.1901 1.99996 19.1303 2.00008 19.8779 2.10059C20.6695 2.20704 21.3937 2.44257 21.9766 3.02539C22.5592 3.60822 22.794 4.33251 22.9004 5.12402C23.0009 5.87165 23.001 6.81185 23.001 7.93164L23.001 10.0684C23.001 11.1881 23.0009 12.1284 22.9004 12.876C22.794 13.6675 22.5592 14.3918 21.9766 14.9746C21.3937 15.5574 20.6695 15.793 19.8779 15.8994C19.1303 15.9999 18.1901 16 17.0703 16H16.5C15.9477 16 15.5 15.5523 15.5 15C15.5 14.4477 15.9477 14 16.5 14H17.001C18.2078 14 19.0127 13.9975 19.6113 13.917C20.1809 13.8404 20.4122 13.7098 20.5615 13.5605C20.7108 13.4112 20.8423 13.18 20.9189 12.6104C20.9994 12.0117 21.001 11.2068 21.001 10L21.001 8C21.001 6.79323 20.9994 5.98831 20.9189 5.38965C20.8423 4.82003 20.7108 4.58877 20.5615 4.43945C20.4122 4.29018 20.1809 4.15961 19.6113 4.08301C19.0127 4.00252 18.2078 4 17.001 4L13.001 4C11.7945 4 10.9902 4.00256 10.3916 4.08301C9.8217 4.15963 9.58978 4.29011 9.44043 4.43945C9.31152 4.56841 9.20066 4.75513 9.12305 5.15137C9.03998 5.57563 9.01117 6.15223 9.00391 7.00879C8.99906 7.56091 8.54728 8.00468 7.99512 8C7.44298 7.99517 6.99922 7.54339 7.00391 6.99121C7.01112 6.14152 7.03719 5.39437 7.16016 4.7666C7.2886 4.11089 7.53501 3.51681 8.02637 3.02539C8.60925 2.44251 9.33333 2.20702 10.125 2.10059C10.8727 2.00008 11.8127 1.99996 12.9326 2L17.0703 2ZM7.5 9.25C9.2949 9.25003 10.75 10.7051 10.75 12.5C10.75 14.2949 9.2949 15.75 7.5 15.75C5.70507 15.75 4.25 14.2949 4.25 12.5C4.25 10.7051 5.70508 9.25 7.5 9.25ZM18 10C18.5523 10 19 10.4477 19 11C19 11.5523 18.5523 12 18 12H15C14.4477 12 14 11.5523 14 11C14 10.4477 14.4477 10 15 10H18ZM18 6C18.5523 6.00002 19 6.44773 19 7C19 7.55227 18.5523 7.99998 18 8L12 8C11.4477 8 11 7.55228 11 7C11 6.44772 11.4477 6 12 6L18 6Z" fill="#251455"/>
</svg>
