<svg width="31" height="31" viewBox="0 0 31 31" fill="none" xmlns="http://www.w3.org/2000/svg">
<path d="M20.6667 7.75001V6.71668C20.6667 5.26987 20.6667 4.54647 20.3851 3.99387C20.1374 3.50778 19.7422 3.11258 19.2561 2.86491C18.7035 2.58334 17.9801 2.58334 16.5333 2.58334H14.4667C13.0199 2.58334 12.2965 2.58334 11.7439 2.86491C11.2578 3.11258 10.8626 3.50778 10.6149 3.99387C10.3333 4.54647 10.3333 5.26987 10.3333 6.71668V7.75001M12.9167 14.8542V21.3125M18.0833 14.8542V21.3125M3.875 7.75001H27.125M24.5417 7.75001V22.2167C24.5417 24.3869 24.5417 25.472 24.1193 26.3009C23.7478 27.03 23.155 27.6228 22.4259 27.9943C21.597 28.4167 20.5119 28.4167 18.3417 28.4167H12.6583C10.4881 28.4167 9.40303 28.4167 8.57412 27.9943C7.84499 27.6228 7.25219 27.03 6.88068 26.3009C6.45833 25.472 6.45833 24.3869 6.45833 22.2167V7.75001" stroke="#DB2627" stroke-width="2.58333" stroke-linecap="round" stroke-linejoin="round"/>
</svg>
