<svg width="20" height="20" viewBox="0 0 20 20" fill="none" xmlns="http://www.w3.org/2000/svg">
<path fill-rule="evenodd" clip-rule="evenodd" d="M15.6275 2.85609C16.8888 2.40684 18.3163 3.01522 18.8005 4.26784C19.0407 4.88948 19.0029 5.47571 18.7007 6.00235C18.4234 6.48571 17.953 6.86486 17.4467 7.19037C17.2732 7.3019 17.0948 7.41239 16.9118 7.52574C16.2327 7.94639 15.4901 8.40638 14.6985 9.10457C13.6999 9.98531 12.7164 11.0545 11.8344 12.1178C10.9573 13.1752 10.2105 14.1904 9.6824 14.9428C9.51384 15.183 9.31006 15.4849 9.14692 15.7291C9.06568 15.8507 8.99514 15.9571 8.94494 16.033L8.88616 16.1221L8.86796 16.1497C8.40711 16.8749 7.59069 17.3022 6.72758 17.2915C5.86238 17.2807 5.05541 16.8313 4.61456 16.0906C3.81646 14.7498 3.23313 14.2757 3.03415 14.142C2.87398 14.0343 2.70336 13.947 2.5003 13.8431L2.49229 13.839C2.30215 13.7416 2.0704 13.623 1.86095 13.4705C1.64063 13.3101 1.42539 13.0993 1.27032 12.8031C1.11546 12.5072 1.04199 12.1669 1.04199 11.778C1.04199 10.4272 2.17519 9.37526 3.51879 9.37526C3.52647 9.37526 3.53416 9.3754 3.54184 9.37568C4.41494 9.40791 5.1977 9.74989 5.85522 10.1917C6.10955 10.3626 6.36944 10.5644 6.6337 10.8016C7.03452 10.2707 7.4854 9.6953 7.9751 9.10493C8.95172 7.92756 10.1128 6.65421 11.366 5.54892C12.592 4.46756 14.0491 3.41831 15.6275 2.85609ZM7.82042 15.4677L7.8423 15.4344L7.90227 15.3436C7.95331 15.2664 8.02496 15.1583 8.10752 15.0348C8.27197 14.7886 8.48219 14.477 8.65927 14.2247C9.20089 13.453 9.96818 12.4097 10.8723 11.3197C11.7789 10.2268 12.808 9.10523 13.8716 8.1671C14.7507 7.39182 15.6045 6.86378 16.2903 6.43967C16.4617 6.33366 16.6226 6.23415 16.7707 6.1389C17.23 5.84363 17.492 5.59728 17.6165 5.38022C17.7163 5.20644 17.75 5.01732 17.6345 4.71847C17.4071 4.13012 16.7033 3.79982 16.0469 4.03363C14.6843 4.51898 13.3667 5.45105 12.1928 6.48639C11.0047 7.53432 9.88922 8.75525 8.93719 9.90298C8.28264 10.6921 7.69799 11.4555 7.21227 12.118C7.10251 12.2677 6.93187 12.3609 6.74658 12.3723C6.56128 12.3837 6.38052 12.3121 6.25324 12.177C5.86323 11.7629 5.49577 11.4562 5.15802 11.2292C4.62995 10.8744 4.07454 10.6491 3.50767 10.6253C2.81141 10.631 2.29199 11.1684 2.29199 11.778C2.29199 12.0072 2.33431 12.1403 2.37781 12.2234C2.42109 12.3061 2.48677 12.3799 2.59671 12.46C2.71584 12.5467 2.86166 12.6238 3.06639 12.7286C3.07513 12.7331 3.08396 12.7376 3.0929 12.7421C3.27946 12.8376 3.50838 12.9546 3.73135 13.1045C4.12244 13.3673 4.823 13.9969 5.68868 15.4513C5.89871 15.8041 6.2966 16.036 6.74317 16.0416C7.18954 16.0471 7.59445 15.825 7.81451 15.4768L7.82042 15.4677Z" fill="#251455"/>
</svg>
