<svg width="20" height="20" viewBox="0 0 20 20" fill="none" xmlns="http://www.w3.org/2000/svg">
<path d="M18.2175 4.49305C18.5733 5.41354 18.0744 6.04376 17.1087 6.66454C16.3296 7.16542 15.3369 7.70805 14.2851 8.63574C12.325 10.3645 10.6683 12.4502 9.17083 14.5837C8.8874 14.9875 8.60727 15.3941 8.34283 15.8107C8.00267 16.3489 7.39111 16.6746 6.73538 16.6664C6.07949 16.6583 5.47706 16.3176 5.15162 15.7709C4.12702 14.0495 3.39798 13.6154 3.23307 13.5346C2.34601 13.4027 1.66699 12.6664 1.66699 11.7779C1.66699 10.7961 2.49607 10.0002 3.51879 10.0002C4.24105 10.0268 4.9115 10.3105 5.50662 10.7104C5.88674 10.9658 6.2894 11.3037 6.70822 11.7484C8.21496 9.69321 9.86469 7.70628 11.7794 6.01755C12.9793 4.95921 14.3667 3.96854 15.8372 3.44476C16.796 3.10323 17.8617 3.57257 18.2175 4.49305Z" fill="#251455"/>
</svg>
