<svg width="24" height="24" viewBox="0 0 24 24" fill="none" xmlns="http://www.w3.org/2000/svg">
<path d="M14 2.25012C14.414 2.25035 14.75 2.58604 14.75 3.00012C14.75 3.41431 14.4142 3.75011 14 3.75012H11.5C9.23963 3.75012 7.6196 3.75149 6.3877 3.91711C5.17748 4.07984 4.45489 4.38898 3.92188 4.922C3.38887 5.45503 3.07971 6.17757 2.91699 7.38782C2.75137 8.61972 2.75 10.2397 2.75 12.5001C2.75 14.7604 2.75137 16.3805 2.91699 17.6124C3.07973 18.8226 3.38887 19.5452 3.92188 20.0782C4.07836 20.2347 4.25248 20.3696 4.44922 20.4894C4.71341 20.1911 4.98251 19.8833 5.25586 19.5704C7.10952 17.4491 9.1793 15.0808 11.54 13.6427C12.92 12.8021 14.4388 12.2506 16.1123 12.2501C17.4353 12.2498 18.8109 12.5948 20.248 13.3527C20.2482 13.237 20.2499 13.1195 20.25 13.0001C20.2502 12.586 20.5859 12.2501 21 12.2501C21.4141 12.2503 21.7501 12.586 21.75 13.0001C21.749 15.057 21.7378 16.6856 21.5479 17.9679C21.3546 19.2719 20.9639 20.3136 20.1387 21.1388C19.2805 21.997 18.1881 22.3844 16.8115 22.5695C15.4683 22.75 13.7479 22.7501 11.5576 22.7501H11.4424C9.25213 22.7501 7.53174 22.75 6.18848 22.5695C4.81185 22.3844 3.71952 21.997 2.86133 21.1388C2.00313 20.2806 1.61575 19.1883 1.43066 17.8116C1.25009 16.4683 1.24999 14.7473 1.25 12.5568V12.4425C1.24999 10.252 1.25006 8.53097 1.43066 7.18762C1.61577 5.81115 2.00321 4.71859 2.86133 3.86047C3.71946 3.00257 4.81205 2.61584 6.18848 2.43079C7.53174 2.25024 9.25212 2.25011 11.4424 2.25012H14ZM16.1133 13.7501C14.783 13.7505 13.5316 14.1852 12.3203 14.923C10.1737 16.2306 8.27478 18.4001 6.40137 20.5402C6.26135 20.7001 6.1203 20.8594 5.98047 21.0187C6.10983 21.042 6.24533 21.064 6.3877 21.0831C7.6196 21.2488 9.23963 21.2501 11.5 21.2501C13.7604 21.2501 15.3804 21.2488 16.6123 21.0831C17.8225 20.9204 18.5451 20.6112 19.0781 20.0782C19.5913 19.5651 19.8962 18.876 20.0635 17.7472C20.1715 17.0177 20.2133 16.145 20.2324 15.0714C18.7091 14.1233 17.3466 13.7498 16.1133 13.7501ZM19.5 1.25012C19.7583 1.25012 19.9811 1.33951 20.1426 1.4259C20.3098 1.51545 20.4656 1.63168 20.6035 1.74915C20.8788 1.98366 21.1544 2.28497 21.4004 2.57532C21.6301 2.84644 21.8529 3.13103 22.043 3.37317C22.0588 3.39334 22.0745 3.41318 22.0898 3.43274C22.303 3.70416 22.4494 3.8864 22.5381 3.97766C22.8265 4.2747 22.8194 4.7496 22.5225 5.03821C22.2254 5.32663 21.7505 5.31951 21.4619 5.02258C21.3049 4.86103 21.1032 4.60401 20.9111 4.3595C20.8964 4.34075 20.8811 4.32183 20.8662 4.30286C20.6733 4.05713 20.4665 3.79368 20.2559 3.54504C20.2539 3.54275 20.2519 3.54049 20.25 3.53821V10.0001C20.25 10.4143 19.9142 10.7501 19.5 10.7501C19.0858 10.7501 18.75 10.4143 18.75 10.0001V3.53821C18.7481 3.54049 18.7461 3.54275 18.7441 3.54504C18.5335 3.79369 18.3267 4.05713 18.1338 4.30286C18.1189 4.32183 18.1036 4.34075 18.0889 4.3595C17.8968 4.60401 17.6951 4.86103 17.5381 5.02258C17.2495 5.31951 16.7746 5.32663 16.4775 5.03821C16.1806 4.7496 16.1735 4.2747 16.4619 3.97766C16.5506 3.8864 16.697 3.70416 16.9102 3.43274C16.9255 3.41318 16.9412 3.39334 16.957 3.37317C17.1471 3.13103 17.3699 2.84644 17.5996 2.57532C17.8456 2.28497 18.1212 1.98366 18.3965 1.74915C18.5344 1.63168 18.6902 1.51545 18.8574 1.4259C19.0189 1.33951 19.2417 1.25012 19.5 1.25012Z" fill="#251455"/>
</svg>
