<svg width="24" height="24" viewBox="0 0 24 24" fill="none" xmlns="http://www.w3.org/2000/svg">
<path d="M11.5742 2C13.0966 1.99999 14.4033 1.99988 15.5166 2.0625C15.7188 2.07388 15.8213 2.30845 15.6963 2.46777L15.6904 2.47559C15.5829 2.6125 15.501 2.7154 15.4385 2.79199C15.3835 2.85939 15.3577 2.88858 15.3516 2.89551L15.3506 2.89648C14.4653 3.80731 14.4858 5.26404 15.3965 6.14941C15.7265 6.47023 16.1287 6.67222 16.5488 6.75586C16.8921 6.8242 17.0638 6.85844 17.1318 6.94141C17.1998 7.02436 17.2002 7.16465 17.2002 7.44531V10C17.2002 11.2703 18.2297 12.2998 19.5 12.2998C20.3532 12.2998 21.0981 11.8355 21.4951 11.1455C21.5453 11.0583 21.6357 11.0001 21.7363 11C21.8807 11 21.9984 11.1164 21.999 11.2607C22.0002 11.6334 22 12.0214 22 12.4238V12.5742C22 14.7502 22.0002 16.4856 21.8174 17.8457C21.6285 19.2499 21.2277 20.4031 20.3154 21.3154C19.4031 22.2277 18.2499 22.6285 16.8457 22.8174C15.4856 23.0002 13.7502 23 11.5742 23H11.4258C9.24979 23 7.51444 23.0002 6.1543 22.8174C4.75009 22.6285 3.59688 22.2277 2.68457 21.3154C1.77226 20.4031 1.37145 19.2499 1.18262 17.8457C0.999754 16.4856 0.99998 14.7502 1 12.5742V12.4258C0.99998 10.2498 0.999754 8.51441 1.18262 7.1543C1.37145 5.75009 1.77226 4.59688 2.68457 3.68457C3.59688 2.77226 4.75009 2.37145 6.1543 2.18262C7.51442 1.99975 9.24985 1.99998 11.4258 2H11.5742ZM16.1182 13.75C14.7881 13.7503 13.5373 14.1852 12.3262 14.9229C10.1794 16.2305 8.27972 18.3999 6.40625 20.54L6.17969 20.7988C6.25822 20.8115 6.33923 20.8237 6.42285 20.835C7.63422 20.9978 9.23451 21 11.502 21C13.769 21 15.3688 20.9978 16.5801 20.835C17.7627 20.676 18.4245 20.3802 18.9033 19.9014C19.3821 19.4226 19.6779 18.7614 19.8369 17.5791C19.9345 16.8531 19.974 15.9871 19.9902 14.9219C18.5661 14.0839 17.2845 13.7497 16.1182 13.75ZM19.5 1C19.8151 1 20.0791 1.10843 20.2598 1.20508C20.4484 1.30601 20.6197 1.4343 20.7656 1.55859C21.0565 1.80639 21.342 2.12043 21.5908 2.41406C21.8236 2.68883 22.0496 2.97621 22.2393 3.21777C22.2553 3.23822 22.2716 3.25857 22.2871 3.27832C22.5035 3.55381 22.6395 3.72309 22.7168 3.80273C23.1016 4.19867 23.093 4.83183 22.6973 5.2168C22.3013 5.60164 21.6682 5.59302 21.2832 5.19727C21.1155 5.02471 20.902 4.75316 20.7139 4.51367C20.712 4.51125 20.6842 4.47524 20.6699 4.45703C20.6141 4.38599 20.5573 4.31373 20.5 4.24121V10C20.5 10.5523 20.0523 11 19.5 11C18.9477 11 18.5 10.5523 18.5 10V4.24121C18.4427 4.31373 18.3859 4.38599 18.3301 4.45703C18.3158 4.47524 18.288 4.51125 18.2861 4.51367C18.098 4.75316 17.8845 5.02471 17.7168 5.19727C17.3318 5.59302 16.6987 5.60164 16.3027 5.2168C15.907 4.83183 15.8984 4.19867 16.2832 3.80273C16.3605 3.72309 16.4965 3.55381 16.7129 3.27832C16.7284 3.25857 16.7447 3.23822 16.7607 3.21777C16.9504 2.97621 17.1764 2.68883 17.4092 2.41406C17.658 2.12043 17.9435 1.80639 18.2344 1.55859C18.3803 1.4343 18.5516 1.30601 18.7402 1.20508C18.9209 1.10843 19.1849 1 19.5 1Z" fill="#251455"/>
</svg>
