<svg width="22" height="21" viewBox="0 0 22 21" fill="none" xmlns="http://www.w3.org/2000/svg">
<path fill-rule="evenodd" clip-rule="evenodd" d="M12.388 0.264997C13.4481 0.616867 14.2804 1.45141 15.1165 2.62395C15.9499 3.7926 16.8708 5.42206 18.0578 7.5225L18.1044 7.60496C19.2917 9.7057 20.2125 11.3351 20.7864 12.6565C21.363 13.9843 21.6502 15.1307 21.4211 16.2321C21.1903 17.3411 20.6214 18.3495 19.7928 19.1117C18.9662 19.872 17.8407 20.1928 16.4236 20.3468C15.0145 20.5 13.1712 20.5 10.7988 20.5H10.7013C8.32882 20.5 6.48554 20.5 5.07642 20.3468C3.65927 20.1928 2.53379 19.872 1.70722 19.1117C0.878621 18.3495 0.309681 17.3411 0.0789508 16.2321C-0.150199 15.1307 0.137001 13.9843 0.713651 12.6565C1.28752 11.3351 2.20835 9.7057 3.39558 7.60495L3.44218 7.5225C4.62921 5.42206 5.55008 3.7926 6.38347 2.62395C7.21963 1.45141 8.05194 0.616867 9.112 0.264997C10.1764 -0.0883325 11.3236 -0.0883325 12.388 0.264997ZM10.7455 14.25C10.1957 14.25 9.75 14.6977 9.75 15.25C9.75 15.8023 10.1957 16.25 10.7545 16.25C11.3043 16.25 11.75 15.8023 11.75 15.25C11.75 14.6977 11.3043 14.25 10.7455 14.25ZM10.75 6.25C10.1977 6.25 9.75 6.69772 9.75 7.25V11.25C9.75 11.8023 10.1977 12.25 10.75 12.25C11.3023 12.25 11.75 11.8023 11.75 11.25V7.25C11.75 6.69772 11.3023 6.25 10.75 6.25Z" fill="#DA392C"/>
</svg>
